SplineFontDB: 3.0
FontName: Luna-Bold
FullName: Luna Bold
FamilyName: Luna
Weight: Bold
Copyright: Copyright (c) 2013 - 2016, Juan Pablo del Peral [huertatipografica.com.ar], Cristiano Sobral [cssobral2013@gmail.com].
Version: 1.501;PS 001.000;hotconv 1.0.70;makeotf.lib2.5.58329 DEVELOPMENT
ItalicAngle: 0
UnderlinePosition: -244
UnderlineWidth: 120
Ascent: 1638
Descent: 410
sfntRevision: 0x00010000
LayerCount: 2
Layer: 0 1 "Back"  1
Layer: 1 1 "Fore"  0
XUID: [1021 633 1153022450 14905070]
FSType: 4
OS2Version: 3
OS2_WeightWidthSlopeOnly: 0
OS2_UseTypoMetrics: 1
CreationTime: 1386077595
ModificationTime: 1462128254
PfmFamily: 81
TTFWeight: 700
TTFWidth: 5
LineGap: 0
VLineGap: 0
Panose: 0 0 8 0 0 0 0 0 0 0
OS2TypoAscent: 1638
OS2TypoAOffset: 0
OS2TypoDescent: -410
OS2TypoDOffset: 0
OS2TypoLinegap: 0
OS2WinAscent: 2394
OS2WinAOffset: 0
OS2WinDescent: 658
OS2WinDOffset: 0
HheadAscent: 2394
HheadAOffset: 0
HheadDescent: -658
HheadDOffset: 0
OS2SubXSize: 1331
OS2SubYSize: 1229
OS2SubXOff: 0
OS2SubYOff: 154
OS2SupXSize: 1331
OS2SupYSize: 1229
OS2SupXOff: 0
OS2SupYOff: 717
OS2StrikeYSize: 121
OS2StrikeYPos: 571
OS2Vendor: 'UKWN'
OS2CodePages: 20000193.00000000
OS2UnicodeRanges: 20000007.00000000.00000000.00000000
Lookup: 1 0 0 "'aalt' Access All Alternates lookup 0"  {"'aalt' Access All Alternates lookup 0 subtable"  } ['aalt' ('DFLT' <'dflt' > 'grek' <'dflt' > 'latn' <'CAT ' 'ESP ' 'MOL ' 'NLD ' 'ROM ' 'TRK ' 'dflt' > ) ]
Lookup: 3 0 0 "'aalt' Access All Alternates lookup 1"  {"'aalt' Access All Alternates lookup 1 subtable"  } ['aalt' ('DFLT' <'dflt' > 'grek' <'dflt' > 'latn' <'CAT ' 'ESP ' 'MOL ' 'NLD ' 'ROM ' 'TRK ' 'dflt' > ) ]
Lookup: 6 0 0 "'locl' Localized Forms in Latin lookup 2"  {"'locl' Localized Forms in Latin lookup 2 contextual 0"  "'locl' Localized Forms in Latin lookup 2 contextual 1"  } ['locl' ('latn' <'CAT ' > ) ]

StartChar: exclam
Encoding: 33 33 4
Width: 599
GlyphClass: 2
Flags: W
LayerCount: 2
Fore
SplineSet
475 1477 m 1,0,-1
 393 538 l 1,1,-1
 221 516 l 1,2,-1
 191 546 l 1,3,-1
 173 1464 l 1,4,-1
 200 1498 l 1,5,-1
 438 1514 l 1,6,-1
 475 1477 l 1,0,-1
282 306 m 0,7,8
 353 306 353 306 392.5 265.5 c 128,-1,9
 432 225 432 225 432 152 c 0,10,11
 432 75 432 75 388.5 29.5 c 128,-1,12
 345 -16 345 -16 270.5 -16 c 128,-1,13
 196 -16 196 -16 155.5 25 c 128,-1,14
 115 66 115 66 115 141 c 128,-1,15
 115 216 115 216 160.5 261 c 128,-1,16
 206 306 206 306 282 306 c 0,7,8
EndSplineSet
EndChar

StartChar: quotedbl
Encoding: 34 34 5
Width: 803
GlyphClass: 2
Flags: W
LayerCount: 2
Fore
SplineSet
375 1439 m 1,0,-1
 295 939 l 1,1,-1
 154 918 l 1,2,-1
 130 939 l 1,3,-1
 125 1443 l 1,4,-1
 360 1460 l 1,5,-1
 375 1439 l 1,0,-1
716 1439 m 1,6,-1
 636 939 l 1,7,-1
 493 918 l 1,8,-1
 471 939 l 1,9,-1
 466 1443 l 1,10,-1
 698 1460 l 1,11,-1
 716 1439 l 1,6,-1
EndSplineSet
EndChar

StartChar: numbersign
Encoding: 35 35 6
Width: 1247
GlyphClass: 2
Flags: W
LayerCount: 2
Fore
SplineSet
950 809 m 1,0,-1
 905 573 l 1,1,-1
 1109 573 l 1,2,-1
 1128 553 l 1,3,-1
 1111 397 l 1,4,-1
 870 397 l 1,5,-1
 807 73 l 1,6,-1
 632 73 l 1,7,-1
 616 93 l 1,8,-1
 675 397 l 1,9,-1
 447 397 l 1,10,-1
 384 73 l 1,11,-1
 209 73 l 1,12,-1
 195 93 l 1,13,-1
 254 397 l 1,14,-1
 63 397 l 1,15,-1
 46 418 l 1,16,-1
 59 573 l 1,17,-1
 289 573 l 1,18,-1
 334 809 l 1,19,-1
 139 809 l 1,20,-1
 121 830 l 1,21,-1
 134 985 l 1,22,-1
 369 985 l 1,23,-1
 430 1303 l 1,24,-1
 598 1303 l 1,25,-1
 618 1280 l 1,26,-1
 562 985 l 1,27,-1
 791 985 l 1,28,-1
 852 1303 l 1,29,-1
 1021 1303 l 1,30,-1
 1041 1280 l 1,31,-1
 985 985 l 1,32,-1
 1182 985 l 1,33,-1
 1202 963 l 1,34,-1
 1187 809 l 1,35,-1
 950 809 l 1,0,-1
757 809 m 1,36,-1
 527 809 l 1,37,-1
 482 573 l 1,38,-1
 709 573 l 1,39,-1
 757 809 l 1,36,-1
EndSplineSet
EndChar

StartChar: dollar
Encoding: 36 36 7
Width: 1022
GlyphClass: 2
Flags: W
LayerCount: 2
Fore
SplineSet
914 352 m 0,0,1
 914 290 914 290 893 233 c 128,-1,2
 872 176 872 176 831.5 127 c 128,-1,3
 791 78 791 78 725 42 c 128,-1,4
 659 6 659 6 575 -9 c 1,5,-1
 557 -310 l 1,6,-1
 382 -310 l 1,7,-1
 357 -284 l 1,8,-1
 375 -16 l 1,9,10
 222 -4 222 -4 87 50 c 1,11,-1
 125 319 l 1,12,-1
 154 339 l 1,13,14
 228 270 228 270 321.5 229.5 c 128,-1,15
 415 189 415 189 488 189 c 0,16,17
 552 189 552 189 592 221 c 128,-1,18
 632 253 632 253 632 300 c 0,19,20
 632 331 632 331 609.5 357 c 128,-1,21
 587 383 587 383 551 401 c 128,-1,22
 515 419 515 419 468.5 439.5 c 128,-1,23
 422 460 422 460 373.5 479.5 c 128,-1,24
 325 499 325 499 278.5 528.5 c 128,-1,25
 232 558 232 558 196 593 c 128,-1,26
 160 628 160 628 137.5 681 c 128,-1,27
 115 734 115 734 115 798 c 0,28,29
 115 930 115 930 205 1027 c 128,-1,30
 295 1124 295 1124 453 1152 c 1,31,-1
 471 1466 l 1,32,-1
 644 1466 l 1,33,-1
 670 1439 l 1,34,-1
 653 1159 l 1,35,36
 775 1149 775 1149 887 1107 c 1,37,-1
 844 852 l 1,38,-1
 803 841 l 1,39,40
 731 895 731 895 662 922.5 c 128,-1,41
 593 950 593 950 536 950 c 0,42,43
 472 950 472 950 436 919 c 128,-1,44
 400 888 400 888 400 846 c 0,45,46
 400 815 400 815 422 789.5 c 128,-1,47
 444 764 444 764 480 745.5 c 128,-1,48
 516 727 516 727 562 706.5 c 128,-1,49
 608 686 608 686 656.5 667 c 128,-1,50
 705 648 705 648 751 618.5 c 128,-1,51
 797 589 797 589 833 554.5 c 128,-1,52
 869 520 869 520 891.5 467.5 c 128,-1,53
 914 415 914 415 914 352 c 0,0,1
EndSplineSet
EndChar

StartChar: percent
Encoding: 37 37 8
Width: 1940
GlyphClass: 2
Flags: W
LayerCount: 2
Fore
SplineSet
1514 1484 m 1,0,-1
 1532 1441 l 1,1,-1
 473 -209 l 1,2,-1
 343 -132 l 1,3,-1
 330 -100 l 1,4,-1
 1391 1560 l 1,5,-1
 1514 1484 l 1,0,-1
443 1477 m 0,6,7
 607 1477 607 1477 693 1375 c 128,-1,8
 779 1273 779 1273 779 1080 c 0,9,10
 779 872 779 872 685 762.5 c 128,-1,11
 591 653 591 653 412 653 c 0,12,13
 246 653 246 653 158 755.5 c 128,-1,14
 70 858 70 858 70 1050 c 0,15,16
 70 1257 70 1257 166 1367 c 128,-1,17
 262 1477 262 1477 443 1477 c 0,6,7
423 1278 m 0,18,19
 340 1278 340 1278 301 1227 c 128,-1,20
 262 1176 262 1176 262 1067 c 0,21,22
 262 948 262 948 301.5 891.5 c 128,-1,23
 341 835 341 835 425 835 c 0,24,25
 511 835 511 835 551 889 c 128,-1,26
 591 943 591 943 591 1054 c 0,27,28
 591 1170 591 1170 550.5 1224 c 128,-1,29
 510 1278 510 1278 423 1278 c 0,18,19
1532 814 m 0,30,31
 1695 814 1695 814 1781.5 711 c 128,-1,32
 1868 608 1868 608 1868 416 c 0,33,34
 1868 208 1868 208 1773.5 97.5 c 128,-1,35
 1679 -13 1679 -13 1501 -13 c 0,36,37
 1335 -13 1335 -13 1247 89.5 c 128,-1,38
 1159 192 1159 192 1159 384 c 0,39,40
 1159 592 1159 592 1255 703 c 128,-1,41
 1351 814 1351 814 1532 814 c 0,30,31
1512 614 m 0,42,43
 1429 614 1429 614 1390 562 c 128,-1,44
 1351 510 1351 510 1351 400 c 0,45,46
 1351 283 1351 283 1390.5 227 c 128,-1,47
 1430 171 1430 171 1514 171 c 0,48,49
 1600 171 1600 171 1639.5 224.5 c 128,-1,50
 1679 278 1679 278 1679 388 c 0,51,52
 1679 504 1679 504 1638.5 559 c 128,-1,53
 1598 614 1598 614 1512 614 c 0,42,43
EndSplineSet
EndChar

StartChar: ampersand
Encoding: 38 38 9
Width: 1616
GlyphClass: 2
Flags: W
LayerCount: 2
Fore
SplineSet
1273 787 m 1,0,-1
 1267 766 l 1,1,2
 1293 661 1293 661 1293 562 c 0,3,4
 1293 415 1293 415 1239 300 c 1,5,-1
 1536 32 l 1,6,-1
 1536 13 l 1,7,8
 1462 -67 1462 -67 1373 -121 c 1,9,-1
 1353 -121 l 1,10,-1
 1093 113 l 1,11,12
 923 -20 923 -20 644 -20 c 0,13,14
 393 -20 393 -20 244 90 c 128,-1,15
 95 200 95 200 95 391 c 0,16,17
 95 639 95 639 354 766 c 1,18,-1
 354 783 l 1,19,20
 277 863 277 863 240.5 942 c 128,-1,21
 204 1021 204 1021 204 1109 c 0,22,23
 204 1280 204 1280 328 1378.5 c 128,-1,24
 452 1477 452 1477 682 1477 c 0,25,26
 884 1477 884 1477 1052 1410 c 1,27,-1
 985 1189 l 1,28,-1
 946 1189 l 1,29,30
 806 1269 806 1269 673 1269 c 0,31,32
 573 1269 573 1269 520.5 1223 c 128,-1,33
 468 1177 468 1177 468 1093 c 0,34,35
 468 1037 468 1037 496 989.5 c 128,-1,36
 524 942 524 942 596 880 c 1,37,-1
 1073 447 l 1,38,39
 1096 512 1096 512 1096 598 c 0,40,41
 1096 701 1096 701 1057 787 c 1,42,-1
 918 787 l 1,43,-1
 905 805 l 1,44,-1
 926 998 l 1,45,-1
 1582 998 l 1,46,-1
 1601 978 l 1,47,-1
 1580 787 l 1,48,-1
 1273 787 l 1,0,-1
673 189 m 0,49,50
 832 189 832 189 932 259 c 1,51,-1
 482 666 l 1,52,53
 354 578 354 578 354 441 c 0,54,55
 354 320 354 320 439 254.5 c 128,-1,56
 524 189 524 189 673 189 c 0,49,50
EndSplineSet
EndChar

StartChar: quotesingle
Encoding: 39 39 10
Width: 465
GlyphClass: 2
Flags: W
LayerCount: 2
Fore
SplineSet
375 1439 m 1,0,-1
 295 939 l 1,1,-1
 154 918 l 1,2,-1
 130 939 l 1,3,-1
 125 1443 l 1,4,-1
 360 1460 l 1,5,-1
 375 1439 l 1,0,-1
EndSplineSet
Substitution2: "'locl' Localized Forms in Latin lookup 12 subtable" puso
Substitution2: "'locl' Localized Forms in Latin lookup 10 subtable" puso
Substitution2: "'aalt' Access All Alternates lookup 0 subtable" puso
EndChar

StartChar: parenleft
Encoding: 40 40 11
Width: 670
GlyphClass: 2
Flags: W
LayerCount: 2
Fore
SplineSet
662 1410 m 1,0,-1
 662 1384 l 1,1,2
 525 1262 525 1262 463.5 1071.5 c 128,-1,3
 402 881 402 881 402 577 c 0,4,5
 402 290 402 290 463 108 c 128,-1,6
 524 -74 524 -74 662 -200 c 1,7,-1
 662 -225 l 1,8,-1
 553 -316 l 1,9,-1
 527 -316 l 1,10,11
 334 -175 334 -175 247 35 c 128,-1,12
 160 245 160 245 159 575 c 1,13,14
 160 922 160 922 247 1141 c 128,-1,15
 334 1360 334 1360 527 1503 c 1,16,-1
 553 1503 l 1,17,-1
 662 1410 l 1,0,-1
EndSplineSet
EndChar

StartChar: parenright
Encoding: 41 41 12
Width: 670
GlyphClass: 2
Flags: W
LayerCount: 2
Fore
SplineSet
9 -225 m 1,0,-1
 9 -200 l 1,1,2
 145 -75 145 -75 206 115 c 128,-1,3
 267 305 267 305 269 607 c 1,4,5
 267 896 267 896 206 1079 c 128,-1,6
 145 1262 145 1262 9 1384 c 1,7,-1
 9 1410 l 1,8,-1
 115 1503 l 1,9,-1
 143 1503 l 1,10,11
 336 1361 336 1361 423 1149.5 c 128,-1,12
 510 938 510 938 512 609 c 1,13,14
 510 263 510 263 423 44 c 128,-1,15
 336 -175 336 -175 143 -316 c 1,16,-1
 115 -316 l 1,17,-1
 9 -225 l 1,0,-1
EndSplineSet
EndChar

StartChar: asterisk
Encoding: 42 42 13
Width: 870
GlyphClass: 2
Flags: W
LayerCount: 2
Fore
SplineSet
548 1668 m 1,0,-1
 482 1389 l 1,1,-1
 386 1378 l 1,2,-1
 371 1393 l 1,3,-1
 362 1657 l 1,4,5
 450 1687 450 1687 538 1687 c 1,6,-1
 548 1668 l 1,0,-1
339 1364 m 1,7,-1
 325 1269 l 1,8,-1
 302 1260 l 1,9,-1
 61 1332 l 1,10,11
 58 1409 58 1409 84 1510 c 1,12,-1
 107 1516 l 1,13,-1
 339 1364 l 1,7,-1
516 1366 m 1,14,-1
 755 1457 l 1,15,16
 804 1383 804 1383 837 1295 c 1,17,-1
 823 1282 l 1,18,-1
 551 1260 l 1,19,-1
 507 1345 l 1,20,-1
 516 1366 l 1,14,-1
538 1217 m 1,21,-1
 694 1007 l 1,22,23
 657 953 657 953 568 880 c 1,24,-1
 548 885 l 1,25,-1
 445 1154 l 1,26,-1
 514 1219 l 1,27,-1
 538 1217 l 1,21,-1
402 1173 m 1,28,-1
 405 1148 l 1,29,-1
 269 930 l 1,30,31
 208 947 208 947 104 1009 c 1,32,-1
 107 1030 l 1,33,-1
 316 1217 l 1,34,-1
 402 1173 l 1,28,-1
EndSplineSet
EndChar

StartChar: plus
Encoding: 43 43 14
Width: 1091
GlyphClass: 2
Flags: W
LayerCount: 2
Fore
SplineSet
650 1063 m 1,0,-1
 650 694 l 1,1,-1
 1019 694 l 1,2,-1
 1039 673 l 1,3,-1
 1023 488 l 1,4,-1
 650 488 l 1,5,-1
 650 113 l 1,6,-1
 466 100 l 1,7,-1
 443 118 l 1,8,-1
 443 488 l 1,9,-1
 73 488 l 1,10,-1
 52 509 l 1,11,-1
 68 694 l 1,12,-1
 443 694 l 1,13,-1
 443 1071 l 1,14,-1
 627 1087 l 1,15,-1
 650 1063 l 1,0,-1
EndSplineSet
EndChar

StartChar: comma
Encoding: 44 44 15
Width: 519
GlyphClass: 2
Flags: W
LayerCount: 2
Fore
SplineSet
325 300 m 1,0,1
 427 218 427 218 427 104 c 0,2,3
 427 4 427 4 359.5 -92.5 c 128,-1,4
 292 -189 292 -189 152 -289 c 1,5,-1
 54 -202 l 1,6,-1
 52 -180 l 1,7,8
 178 -76 178 -76 178 43 c 0,9,10
 178 120 178 120 104 180 c 1,11,-1
 107 204 l 1,12,13
 212 268 212 268 325 300 c 1,0,1
EndSplineSet
EndChar

StartChar: hyphen
Encoding: 45 45 16
Width: 690
GlyphClass: 2
Flags: W
LayerCount: 2
Fore
SplineSet
627 700 m 1,0,-1
 627 514 l 1,1,-1
 87 430 l 1,2,-1
 61 455 l 1,3,-1
 61 644 l 1,4,-1
 603 725 l 1,5,-1
 627 700 l 1,0,-1
EndSplineSet
EndChar

StartChar: period
Encoding: 46 46 17
Width: 519
GlyphClass: 2
Flags: W
LayerCount: 2
Fore
SplineSet
266 306 m 0,0,1
 338 306 338 306 377 265.5 c 128,-1,2
 416 225 416 225 416 152 c 0,3,4
 416 75 416 75 372.5 29.5 c 128,-1,5
 329 -16 329 -16 254.5 -16 c 128,-1,6
 180 -16 180 -16 140 25 c 128,-1,7
 100 66 100 66 100 141 c 128,-1,8
 100 216 100 216 145 261 c 128,-1,9
 190 306 190 306 266 306 c 0,0,1
EndSplineSet
EndChar

StartChar: slash
Encoding: 47 47 18
Width: 644
GlyphClass: 2
Flags: W
LayerCount: 2
Fore
SplineSet
696 1518 m 1,0,-1
 225 -262 l 1,1,-1
 16 -262 l 1,2,-1
 -2 -236 l 1,3,-1
 466 1546 l 1,4,-1
 670 1546 l 1,5,-1
 696 1518 l 1,0,-1
EndSplineSet
Substitution2: "'frac' Diagonal Fractions lookup 19 subtable" fraction
Substitution2: "'aalt' Access All Alternates lookup 0 subtable" fraction
EndChar

StartChar: zero
Encoding: 48 48 19
Width: 1078
GlyphClass: 2
Flags: W
LayerCount: 2
Fore
SplineSet
559 1351 m 0,0,1
 779 1351 779 1351 896 1178 c 128,-1,2
 1013 1005 1013 1005 1013 684 c 0,3,4
 1013 344 1013 344 886.5 162 c 128,-1,5
 760 -20 760 -20 523 -20 c 0,6,7
 301 -20 301 -20 183 152 c 128,-1,8
 65 324 65 324 65 646 c 0,9,10
 65 986 65 986 193 1168.5 c 128,-1,11
 321 1351 321 1351 559 1351 c 0,0,1
536 1067 m 0,12,13
 416 1067 416 1067 356.5 967.5 c 128,-1,14
 297 868 297 868 297 666 c 0,15,16
 297 454 297 454 356.5 349.5 c 128,-1,17
 416 245 416 245 538 245 c 128,-1,18
 660 245 660 245 719.5 346 c 128,-1,19
 779 447 779 447 779 650 c 0,20,21
 779 860 779 860 719 963.5 c 128,-1,22
 659 1067 659 1067 536 1067 c 0,12,13
EndSplineSet
Substitution2: "'case' Case-Sensitive Forms lookup 28 subtable" zero.lf
Substitution2: "'tnum' Tabular Numbers lookup 25 subtable" zero.tosf
Substitution2: "'lnum' Lining Figures lookup 23 subtable" zero.lf
Substitution2: "'frac' Diagonal Fractions lookup 20 subtable" zero.numr
Substitution2: "'dnom' Denominators lookup 18 subtable" zero.dnom
Substitution2: "'numr' Numerators lookup 17 subtable" zero.numr
Substitution2: "'sups' Superscript lookup 16 subtable" zerosuperior
Substitution2: "'sinf' Scientific Inferiors lookup 15 subtable" zero.sinf
AlternateSubs2: "'aalt' Access All Alternates lookup 1 subtable" zero.sinf zerosuperior zero.numr zero.dnom zero.lf zero.tosf
EndChar

StartChar: one
Encoding: 49 49 20
Width: 1078
GlyphClass: 2
Flags: W
LayerCount: 2
Fore
SplineSet
737 1319 m 1,0,-1
 720 473 l 1,1,-1
 735 0 l 1,2,-1
 427 0 l 1,3,-1
 443 441 l 1,4,-1
 441 1005 l 1,5,-1
 91 939 l 1,6,-1
 70 955 l 1,7,-1
 70 1195 l 1,8,-1
 694 1351 l 1,9,-1
 737 1319 l 1,0,-1
EndSplineSet
Substitution2: "'ss02' Style Set 2 lookup 36 subtable" arrowleft
Substitution2: "'case' Case-Sensitive Forms lookup 28 subtable" one.lf
Substitution2: "'tnum' Tabular Numbers lookup 25 subtable" one.tosf
Substitution2: "'lnum' Lining Figures lookup 23 subtable" one.lf
Substitution2: "'frac' Diagonal Fractions lookup 20 subtable" one.numr
Substitution2: "'dnom' Denominators lookup 18 subtable" one.dnom
Substitution2: "'numr' Numerators lookup 17 subtable" one.numr
Substitution2: "'sups' Superscript lookup 16 subtable" onesuperior
Substitution2: "'sinf' Scientific Inferiors lookup 15 subtable" one.sinf
AlternateSubs2: "'aalt' Access All Alternates lookup 1 subtable" one.sinf onesuperior one.numr one.dnom one.lf one.tosf arrowleft
EndChar

StartChar: two
Encoding: 50 50 21
Width: 1078
GlyphClass: 2
Flags: W
LayerCount: 2
Fore
SplineSet
551 1351 m 0,0,1
 654 1351 654 1351 736.5 1313.5 c 128,-1,2
 819 1276 819 1276 867.5 1203.5 c 128,-1,3
 916 1131 916 1131 916 1035 c 0,4,5
 916 933 916 933 854.5 811 c 128,-1,6
 793 689 793 689 655 507 c 1,7,-1
 468 248 l 1,8,-1
 475 239 l 1,9,-1
 805 239 l 1,10,-1
 1016 254 l 1,11,-1
 1032 230 l 1,12,-1
 998 -13 l 1,13,-1
 716 0 l 1,14,-1
 182 0 l 1,15,-1
 95 -4 l 1,16,-1
 80 7 l 1,17,-1
 80 193 l 1,18,-1
 386 568 l 1,19,20
 434 629 434 629 452 653 c 128,-1,21
 470 677 470 677 505 724 c 128,-1,22
 540 771 540 771 553.5 794.5 c 128,-1,23
 567 818 567 818 585.5 852 c 128,-1,24
 604 886 604 886 610 911.5 c 128,-1,25
 616 937 616 937 616 961 c 0,26,27
 616 1019 616 1019 579 1056 c 128,-1,28
 542 1093 542 1093 475 1093 c 0,29,30
 403 1093 403 1093 320.5 1048.5 c 128,-1,31
 238 1004 238 1004 169 926 c 1,32,-1
 134 926 l 1,33,-1
 84 1162 l 1,34,35
 318 1351 318 1351 551 1351 c 0,0,1
EndSplineSet
Substitution2: "'ss02' Style Set 2 lookup 36 subtable" arrowup
Substitution2: "'case' Case-Sensitive Forms lookup 28 subtable" two.lf
Substitution2: "'tnum' Tabular Numbers lookup 25 subtable" two.tosf
Substitution2: "'lnum' Lining Figures lookup 23 subtable" two.lf
Substitution2: "'frac' Diagonal Fractions lookup 20 subtable" two.numr
Substitution2: "'dnom' Denominators lookup 18 subtable" two.dnom
Substitution2: "'numr' Numerators lookup 17 subtable" two.numr
Substitution2: "'sups' Superscript lookup 16 subtable" twosuperior
Substitution2: "'sinf' Scientific Inferiors lookup 15 subtable" two.sinf
AlternateSubs2: "'aalt' Access All Alternates lookup 1 subtable" two.sinf twosuperior two.numr two.dnom two.lf two.tosf arrowup
EndChar

StartChar: three
Encoding: 51 51 22
Width: 1078
GlyphClass: 2
Flags: W
LayerCount: 2
Fore
SplineSet
505 1355 m 0,0,1
 687 1355 687 1355 799 1269 c 128,-1,2
 911 1183 911 1183 911 1043 c 0,3,4
 911 986 911 986 890.5 930 c 128,-1,5
 870 874 870 874 819 816.5 c 128,-1,6
 768 759 768 759 692 718 c 1,7,-1
 692 709 l 1,8,9
 952 637 952 637 952 407 c 0,10,11
 952 282 952 282 879 185 c 128,-1,12
 806 88 806 88 673.5 35 c 128,-1,13
 541 -18 541 -18 369 -18 c 0,14,15
 241 -18 241 -18 115 4 c 1,16,-1
 98 241 l 1,17,-1
 118 259 l 1,18,19
 253 211 253 211 377 211 c 0,20,21
 511 211 511 211 586.5 261 c 128,-1,22
 662 311 662 311 662 400 c 0,23,24
 662 475 662 475 605.5 516.5 c 128,-1,25
 549 558 549 558 441 562 c 1,26,-1
 278 562 l 1,27,-1
 262 579 l 1,28,-1
 269 789 l 1,29,-1
 371 791 l 2,30,31
 429 793 429 793 482 815.5 c 128,-1,32
 535 838 535 838 570 882 c 128,-1,33
 605 926 605 926 605 980 c 0,34,35
 605 1043 605 1043 561.5 1076 c 128,-1,36
 518 1109 518 1109 441 1109 c 0,37,38
 375 1109 375 1109 308.5 1082.5 c 128,-1,39
 242 1056 242 1056 161 1002 c 1,40,-1
 132 1002 l 1,41,-1
 84 1223 l 1,42,43
 281 1355 281 1355 505 1355 c 0,0,1
EndSplineSet
Substitution2: "'ss02' Style Set 2 lookup 36 subtable" arrowright
Substitution2: "'case' Case-Sensitive Forms lookup 28 subtable" three.lf
Substitution2: "'tnum' Tabular Numbers lookup 25 subtable" three.tosf
Substitution2: "'lnum' Lining Figures lookup 23 subtable" three.lf
Substitution2: "'frac' Diagonal Fractions lookup 20 subtable" three.numr
Substitution2: "'dnom' Denominators lookup 18 subtable" three.dnom
Substitution2: "'numr' Numerators lookup 17 subtable" three.numr
Substitution2: "'sups' Superscript lookup 16 subtable" threesuperior
Substitution2: "'sinf' Scientific Inferiors lookup 15 subtable" three.sinf
AlternateSubs2: "'aalt' Access All Alternates lookup 1 subtable" three.sinf threesuperior three.numr three.dnom three.lf three.tosf arrowright
EndChar

StartChar: four
Encoding: 52 52 23
Width: 1078
GlyphClass: 2
Flags: W
LayerCount: 2
Fore
SplineSet
1009 319 m 1,0,-1
 835 321 l 1,1,-1
 848 22 l 1,2,-1
 832 0 l 1,3,-1
 596 -16 l 1,4,-1
 579 4 l 1,5,-1
 586 323 l 1,6,-1
 248 323 l 1,7,-1
 54 319 l 1,8,-1
 34 343 l 1,9,-1
 34 536 l 1,10,-1
 562 1332 l 1,11,-1
 837 1332 l 1,12,-1
 830 555 l 1,13,-1
 1007 555 l 1,14,-1
 1026 529 l 1,15,-1
 1009 319 l 1,0,-1
293 555 m 1,16,-1
 591 555 l 1,17,-1
 588 991 l 1,18,-1
 571 991 l 1,19,-1
 293 555 l 1,16,-1
EndSplineSet
Substitution2: "'ss02' Style Set 2 lookup 36 subtable" arrowdown
Substitution2: "'case' Case-Sensitive Forms lookup 28 subtable" four.lf
Substitution2: "'tnum' Tabular Numbers lookup 25 subtable" four.tosf
Substitution2: "'lnum' Lining Figures lookup 23 subtable" four.lf
Substitution2: "'frac' Diagonal Fractions lookup 20 subtable" four.numr
Substitution2: "'dnom' Denominators lookup 18 subtable" four.dnom
Substitution2: "'numr' Numerators lookup 17 subtable" four.numr
Substitution2: "'sups' Superscript lookup 16 subtable" foursuperior
Substitution2: "'sinf' Scientific Inferiors lookup 15 subtable" four.sinf
AlternateSubs2: "'aalt' Access All Alternates lookup 1 subtable" four.sinf foursuperior four.numr four.dnom four.lf four.tosf arrowdown
EndChar

StartChar: five
Encoding: 53 53 24
Width: 1078
GlyphClass: 2
Flags: W
LayerCount: 2
Fore
SplineSet
968 1325 m 1,0,-1
 941 1096 l 1,1,-1
 918 1076 l 1,2,-1
 720 1098 l 1,3,-1
 418 1098 l 1,4,-1
 410 846 l 1,5,-1
 559 816 l 1,6,7
 765 772 765 772 862 682.5 c 128,-1,8
 959 593 959 593 959 447 c 0,9,10
 959 307 959 307 884 201 c 128,-1,11
 809 95 809 95 672 37.5 c 128,-1,12
 535 -20 535 -20 354 -20 c 0,13,14
 232 -20 232 -20 95 7 c 1,15,-1
 75 223 l 1,16,-1
 98 243 l 1,17,18
 239 209 239 209 354 209 c 0,19,20
 501 209 501 209 587 265 c 128,-1,21
 673 321 673 321 673 418 c 0,22,23
 673 489 673 489 614 532.5 c 128,-1,24
 555 576 555 576 427 601 c 1,25,-1
 200 642 l 1,26,-1
 180 664 l 1,27,-1
 184 1303 l 1,28,-1
 219 1339 l 1,29,-1
 357 1332 l 1,30,-1
 720 1332 l 1,31,-1
 950 1345 l 1,32,-1
 968 1325 l 1,0,-1
EndSplineSet
Substitution2: "'ss02' Style Set 2 lookup 36 subtable" arrowupleft
Substitution2: "'case' Case-Sensitive Forms lookup 28 subtable" five.lf
Substitution2: "'tnum' Tabular Numbers lookup 25 subtable" five.tosf
Substitution2: "'lnum' Lining Figures lookup 23 subtable" five.lf
Substitution2: "'frac' Diagonal Fractions lookup 20 subtable" five.numr
Substitution2: "'dnom' Denominators lookup 18 subtable" five.dnom
Substitution2: "'numr' Numerators lookup 17 subtable" five.numr
Substitution2: "'sups' Superscript lookup 16 subtable" fivesuperior
Substitution2: "'sinf' Scientific Inferiors lookup 15 subtable" five.sinf
AlternateSubs2: "'aalt' Access All Alternates lookup 1 subtable" five.sinf fivesuperior five.numr five.dnom five.lf five.tosf arrowupleft
EndChar

StartChar: six
Encoding: 54 54 25
Width: 1078
GlyphClass: 2
Flags: W
LayerCount: 2
Fore
SplineSet
634 820 m 0,0,1
 722 820 722 820 793.5 789 c 128,-1,2
 865 758 865 758 911 704.5 c 128,-1,3
 957 651 957 651 982 579.5 c 128,-1,4
 1007 508 1007 508 1007 425 c 0,5,6
 1007 334 1007 334 976 254 c 128,-1,7
 945 174 945 174 887 112 c 128,-1,8
 829 50 829 50 737 14 c 128,-1,9
 645 -22 645 -22 529 -22 c 0,10,11
 308 -22 308 -22 189 112.5 c 128,-1,12
 70 247 70 247 70 488 c 0,13,14
 70 766 70 766 240.5 991.5 c 128,-1,15
 411 1217 411 1217 723 1355 c 1,16,-1
 739 1355 l 1,17,-1
 946 1221 l 1,18,-1
 946 1191 l 1,19,20
 707 1101 707 1101 576.5 1005.5 c 128,-1,21
 446 910 446 910 391 777 c 1,22,-1
 410 757 l 1,23,24
 510 820 510 820 634 820 c 0,0,1
543 175 m 0,25,26
 635 175 635 175 686 230.5 c 128,-1,27
 737 286 737 286 737 388 c 0,28,29
 737 496 737 496 688.5 552.5 c 128,-1,30
 640 609 640 609 546 609 c 0,31,32
 445 609 445 609 343 538 c 1,33,-1
 343 493 l 2,34,35
 343 331 343 331 388 253 c 128,-1,36
 433 175 433 175 543 175 c 0,25,26
EndSplineSet
Substitution2: "'ss02' Style Set 2 lookup 36 subtable" arrowupright
Substitution2: "'case' Case-Sensitive Forms lookup 28 subtable" six.lf
Substitution2: "'tnum' Tabular Numbers lookup 25 subtable" six.tosf
Substitution2: "'lnum' Lining Figures lookup 23 subtable" six.lf
Substitution2: "'frac' Diagonal Fractions lookup 20 subtable" six.numr
Substitution2: "'dnom' Denominators lookup 18 subtable" six.dnom
Substitution2: "'numr' Numerators lookup 17 subtable" six.numr
Substitution2: "'sups' Superscript lookup 16 subtable" sixsuperior
Substitution2: "'sinf' Scientific Inferiors lookup 15 subtable" six.sinf
AlternateSubs2: "'aalt' Access All Alternates lookup 1 subtable" six.sinf sixsuperior six.numr six.dnom six.lf six.tosf arrowupright
EndChar

StartChar: seven
Encoding: 55 55 26
Width: 1078
GlyphClass: 2
Flags: W
LayerCount: 2
Fore
SplineSet
345 1332 m 1,0,-1
 872 1332 l 1,1,-1
 991 1334 l 1,2,-1
 991 1117 l 1,3,-1
 591 314 l 1,4,-1
 457 -26 l 1,5,-1
 214 43 l 1,6,-1
 195 89 l 1,7,-1
 698 1082 l 1,8,-1
 295 1082 l 1,9,-1
 82 1063 l 1,10,-1
 63 1089 l 1,11,-1
 84 1339 l 1,12,-1
 345 1332 l 1,0,-1
EndSplineSet
Substitution2: "'ss02' Style Set 2 lookup 36 subtable" arrowdownright
Substitution2: "'case' Case-Sensitive Forms lookup 28 subtable" seven.lf
Substitution2: "'tnum' Tabular Numbers lookup 25 subtable" seven.tosf
Substitution2: "'lnum' Lining Figures lookup 23 subtable" seven.lf
Substitution2: "'frac' Diagonal Fractions lookup 20 subtable" seven.numr
Substitution2: "'dnom' Denominators lookup 18 subtable" seven.dnom
Substitution2: "'numr' Numerators lookup 17 subtable" seven.numr
Substitution2: "'sups' Superscript lookup 16 subtable" sevensuperior
Substitution2: "'sinf' Scientific Inferiors lookup 15 subtable" seven.sinf
AlternateSubs2: "'aalt' Access All Alternates lookup 1 subtable" seven.sinf sevensuperior seven.numr seven.dnom seven.lf seven.tosf arrowdownright
EndChar

StartChar: eight
Encoding: 56 56 27
Width: 1078
GlyphClass: 2
Flags: W
LayerCount: 2
Fore
SplineSet
566 1353 m 0,0,1
 746 1353 746 1353 848 1264 c 128,-1,2
 950 1175 950 1175 950 1021 c 0,3,4
 950 918 950 918 897 843.5 c 128,-1,5
 844 769 844 769 744 714 c 1,6,-1
 744 698 l 1,7,8
 798 673 798 673 837.5 646.5 c 128,-1,9
 877 620 877 620 913 582.5 c 128,-1,10
 949 545 949 545 968 493 c 128,-1,11
 987 441 987 441 987 377 c 0,12,13
 987 193 987 193 857.5 86.5 c 128,-1,14
 728 -20 728 -20 509 -20 c 0,15,16
 307 -20 307 -20 194.5 75 c 128,-1,17
 82 170 82 170 82 323 c 0,18,19
 82 443 82 443 148.5 519.5 c 128,-1,20
 215 596 215 596 336 646 c 1,21,-1
 336 659 l 1,22,23
 289 684 289 684 253 712 c 128,-1,24
 217 740 217 740 187 778 c 128,-1,25
 157 816 157 816 141 866.5 c 128,-1,26
 125 917 125 917 125 978 c 0,27,28
 125 1152 125 1152 245.5 1252.5 c 128,-1,29
 366 1353 366 1353 566 1353 c 0,0,1
546 1143 m 0,30,31
 464 1143 464 1143 417.5 1101 c 128,-1,32
 371 1059 371 1059 371 987 c 0,33,34
 371 948 371 948 385.5 916.5 c 128,-1,35
 400 885 400 885 430 860.5 c 128,-1,36
 460 836 460 836 489.5 820 c 128,-1,37
 519 804 519 804 564 785 c 1,38,39
 635 823 635 823 673.5 869.5 c 128,-1,40
 712 916 712 916 712 987 c 0,41,42
 712 1060 712 1060 668 1101.5 c 128,-1,43
 624 1143 624 1143 546 1143 c 0,30,31
514 568 m 1,44,45
 472 552 472 552 442 535.5 c 128,-1,46
 412 519 412 519 385.5 495 c 128,-1,47
 359 471 359 471 345.5 437.5 c 128,-1,48
 332 404 332 404 332 362 c 0,49,50
 332 281 332 281 386 231.5 c 128,-1,51
 440 182 440 182 536 182 c 128,-1,52
 632 182 632 182 685.5 230.5 c 128,-1,53
 739 279 739 279 739 354 c 0,54,55
 739 378 739 378 732.5 399.5 c 128,-1,56
 726 421 726 421 716 438 c 128,-1,57
 706 455 706 455 687.5 471.5 c 128,-1,58
 669 488 669 488 652.5 499.5 c 128,-1,59
 636 511 636 511 609.5 524.5 c 128,-1,60
 583 538 583 538 564 546.5 c 128,-1,61
 545 555 545 555 514 568 c 1,44,45
EndSplineSet
Substitution2: "'ss02' Style Set 2 lookup 36 subtable" arrowdownleft
Substitution2: "'case' Case-Sensitive Forms lookup 28 subtable" eight.lf
Substitution2: "'tnum' Tabular Numbers lookup 25 subtable" eight.tosf
Substitution2: "'lnum' Lining Figures lookup 23 subtable" eight.lf
Substitution2: "'frac' Diagonal Fractions lookup 20 subtable" eight.numr
Substitution2: "'dnom' Denominators lookup 18 subtable" eight.dnom
Substitution2: "'numr' Numerators lookup 17 subtable" eight.numr
Substitution2: "'sups' Superscript lookup 16 subtable" eightsuperior
Substitution2: "'sinf' Scientific Inferiors lookup 15 subtable" eight.sinf
AlternateSubs2: "'aalt' Access All Alternates lookup 1 subtable" eight.sinf eightsuperior eight.numr eight.dnom eight.lf eight.tosf arrowdownleft
EndChar

StartChar: nine
Encoding: 57 57 28
Width: 1078
GlyphClass: 2
Flags: W
LayerCount: 2
Fore
SplineSet
553 1355 m 0,0,1
 775 1355 775 1355 894 1221 c 128,-1,2
 1013 1087 1013 1087 1013 846 c 0,3,4
 1013 567 1013 567 843 342 c 128,-1,5
 673 117 673 117 362 -20 c 1,6,-1
 345 -20 l 1,7,-1
 137 113 l 1,8,-1
 137 143 l 1,9,10
 373 231 373 231 504.5 327 c 128,-1,11
 636 423 636 423 692 555 c 1,12,-1
 673 575 l 1,13,14
 566 512 566 512 451 512 c 0,15,16
 363 512 363 512 291 543 c 128,-1,17
 219 574 219 574 172.5 627.5 c 128,-1,18
 126 681 126 681 100.5 752.5 c 128,-1,19
 75 824 75 824 75 907 c 0,20,21
 75 998 75 998 106 1078 c 128,-1,22
 137 1158 137 1158 195 1220.5 c 128,-1,23
 253 1283 253 1283 345.5 1319 c 128,-1,24
 438 1355 438 1355 553 1355 c 0,0,1
538 725 m 0,25,26
 639 725 639 725 741 796 c 1,27,-1
 741 841 l 2,28,29
 741 1002 741 1002 695 1079.5 c 128,-1,30
 649 1157 649 1157 538 1157 c 0,31,32
 447 1157 447 1157 397 1102.5 c 128,-1,33
 347 1048 347 1048 347 944 c 0,34,35
 347 837 347 837 395 781 c 128,-1,36
 443 725 443 725 538 725 c 0,25,26
EndSplineSet
Substitution2: "'case' Case-Sensitive Forms lookup 28 subtable" nine.lf
Substitution2: "'tnum' Tabular Numbers lookup 25 subtable" nine.tosf
Substitution2: "'lnum' Lining Figures lookup 23 subtable" nine.lf
Substitution2: "'frac' Diagonal Fractions lookup 20 subtable" nine.numr
Substitution2: "'dnom' Denominators lookup 18 subtable" nine.dnom
Substitution2: "'numr' Numerators lookup 17 subtable" nine.numr
Substitution2: "'sups' Superscript lookup 16 subtable" ninesuperior
Substitution2: "'sinf' Scientific Inferiors lookup 15 subtable" nine.sinf
AlternateSubs2: "'aalt' Access All Alternates lookup 1 subtable" nine.sinf ninesuperior nine.numr nine.dnom nine.lf nine.tosf
EndChar

StartChar: colon
Encoding: 58 58 29
Width: 519
GlyphClass: 2
Flags: W
LayerCount: 2
Fore
SplineSet
254 905 m 0,0,1
 326 905 326 905 366.5 864 c 128,-1,2
 407 823 407 823 407 750 c 0,3,4
 407 674 407 674 362.5 628 c 128,-1,5
 318 582 318 582 243 582 c 0,6,7
 170 582 170 582 130.5 623 c 128,-1,8
 91 664 91 664 91 739 c 128,-1,9
 91 814 91 814 135.5 859.5 c 128,-1,10
 180 905 180 905 254 905 c 0,0,1
254 306 m 0,11,12
 326 306 326 306 366.5 265.5 c 128,-1,13
 407 225 407 225 407 152 c 0,14,15
 407 76 407 76 362.5 30 c 128,-1,16
 318 -16 318 -16 243 -16 c 0,17,18
 170 -16 170 -16 130.5 25 c 128,-1,19
 91 66 91 66 91 141 c 128,-1,20
 91 216 91 216 135.5 261 c 128,-1,21
 180 306 180 306 254 306 c 0,11,12
EndSplineSet
EndChar

StartChar: semicolon
Encoding: 59 59 30
Width: 519
GlyphClass: 2
Flags: W
LayerCount: 2
Fore
SplineSet
254 905 m 0,0,1
 326 905 326 905 366.5 864 c 128,-1,2
 407 823 407 823 407 750 c 0,3,4
 407 674 407 674 362.5 628 c 128,-1,5
 318 582 318 582 243 582 c 0,6,7
 170 582 170 582 130.5 623 c 128,-1,8
 91 664 91 664 91 739 c 128,-1,9
 91 814 91 814 135.5 859.5 c 128,-1,10
 180 905 180 905 254 905 c 0,0,1
314 300 m 1,11,12
 416 218 416 218 416 104 c 0,13,14
 416 4 416 4 348.5 -92.5 c 128,-1,15
 281 -189 281 -189 141 -289 c 1,16,-1
 43 -202 l 1,17,-1
 41 -180 l 1,18,19
 169 -74 169 -74 169 43 c 0,20,21
 169 117 169 117 95 180 c 1,22,-1
 95 204 l 1,23,24
 198 267 198 267 314 300 c 1,11,12
EndSplineSet
EndChar

StartChar: less
Encoding: 60 60 31
Width: 1091
GlyphClass: 2
Flags: W
LayerCount: 2
Fore
SplineSet
1011 898 m 1,0,-1
 998 875 l 1,1,-1
 291 607 l 1,2,-1
 291 591 l 1,3,-1
 1000 332 l 1,4,-1
 957 163 l 1,5,-1
 930 143 l 1,6,-1
 78 468 l 1,7,-1
 78 714 l 1,8,-1
 98 741 l 1,9,-1
 946 1071 l 1,10,-1
 1011 898 l 1,0,-1
EndSplineSet
EndChar

StartChar: equal
Encoding: 61 61 32
Width: 1091
GlyphClass: 2
Flags: W
LayerCount: 2
Fore
SplineSet
1039 887 m 1,0,-1
 1023 703 l 1,1,-1
 73 703 l 1,2,-1
 52 723 l 1,3,-1
 68 907 l 1,4,-1
 1019 907 l 1,5,-1
 1039 887 l 1,0,-1
1039 460 m 1,6,-1
 1023 275 l 1,7,-1
 73 275 l 1,8,-1
 52 295 l 1,9,-1
 68 480 l 1,10,-1
 1019 480 l 1,11,-1
 1039 460 l 1,6,-1
EndSplineSet
EndChar

StartChar: greater
Encoding: 62 62 33
Width: 1091
GlyphClass: 2
Flags: W
LayerCount: 2
Fore
SplineSet
993 741 m 1,0,-1
 1013 714 l 1,1,-1
 1013 468 l 1,2,-1
 161 143 l 1,3,-1
 134 163 l 1,4,-1
 91 332 l 1,5,-1
 800 591 l 1,6,-1
 800 607 l 1,7,-1
 93 875 l 1,8,-1
 80 898 l 1,9,-1
 145 1071 l 1,10,-1
 993 741 l 1,0,-1
EndSplineSet
EndChar

StartChar: question
Encoding: 63 63 34
Width: 772
GlyphClass: 2
Flags: W
LayerCount: 2
Fore
SplineSet
161 1505 m 1,0,-1
 191 1521 l 1,1,2
 491 1504 491 1504 652.5 1409.5 c 128,-1,3
 814 1315 814 1315 814 1152 c 0,4,5
 814 1058 814 1058 761 977.5 c 128,-1,6
 708 897 708 897 607 839 c 1,7,-1
 443 741 l 1,8,-1
 438 729 l 1,9,-1
 453 536 l 1,10,-1
 241 509 l 1,11,-1
 221 529 l 1,12,-1
 198 803 l 1,13,-1
 209 825 l 1,14,-1
 414 930 l 1,15,16
 541 997 541 997 541 1104 c 0,17,18
 541 1195 541 1195 443.5 1245 c 128,-1,19
 346 1295 346 1295 128 1308 c 1,20,-1
 107 1336 l 1,21,-1
 161 1505 l 1,0,-1
360 306 m 0,22,23
 431 306 431 306 470 265.5 c 128,-1,24
 509 225 509 225 509 152 c 0,25,26
 509 75 509 75 465.5 29.5 c 128,-1,27
 422 -16 422 -16 347.5 -16 c 128,-1,28
 273 -16 273 -16 233 25 c 128,-1,29
 193 66 193 66 193 141 c 128,-1,30
 193 216 193 216 238 261 c 128,-1,31
 283 306 283 306 360 306 c 0,22,23
EndSplineSet
EndChar

StartChar: at
Encoding: 64 64 35
Width: 1918
GlyphClass: 2
Flags: W
LayerCount: 2
Fore
SplineSet
1871 709 m 0,0,1
 1871 372 1871 372 1648.5 188 c 128,-1,2
 1426 4 1426 4 1013 -2 c 1,3,-1
 1063 354 l 1,4,-1
 1037 354 l 1,5,6
 901 123 901 123 766 -16 c 1,7,-1
 725 -16 l 1,8,9
 602 31 602 31 548.5 119.5 c 128,-1,10
 495 208 495 208 495 347 c 0,11,12
 495 435 495 435 515 522 c 128,-1,13
 535 609 535 609 578 693.5 c 128,-1,14
 621 778 621 778 682 848 c 128,-1,15
 743 918 743 918 831.5 971.5 c 128,-1,16
 920 1025 920 1025 1026 1050 c 1,17,-1
 1039 1050 l 1,18,-1
 1214 1005 l 1,19,-1
 1378 1054 l 1,20,-1
 1401 1041 l 1,21,-1
 1293 254 l 1,22,-1
 1291 206 l 1,23,24
 1470 234 1470 234 1571.5 365 c 128,-1,25
 1673 496 1673 496 1673 698 c 0,26,27
 1673 826 1673 826 1628 931 c 128,-1,28
 1583 1036 1583 1036 1501.5 1108 c 128,-1,29
 1420 1180 1420 1180 1301.5 1218 c 128,-1,30
 1183 1256 1183 1256 1039 1252 c 1,31,32
 867 1249 867 1249 722 1188 c 128,-1,33
 577 1127 577 1127 477.5 1022.5 c 128,-1,34
 378 918 378 918 322 772.5 c 128,-1,35
 266 627 266 627 266 457 c 0,36,37
 266 278 266 278 328.5 134 c 128,-1,38
 391 -10 391 -10 504 -106.5 c 128,-1,39
 617 -203 617 -203 776.5 -254.5 c 128,-1,40
 936 -306 936 -306 1130 -306 c 1,41,-1
 1141 -336 l 1,42,-1
 1059 -477 l 1,43,44
 835 -476 835 -476 651 -415 c 128,-1,45
 467 -354 467 -354 336.5 -241 c 128,-1,46
 206 -128 206 -128 134.5 41.5 c 128,-1,47
 63 211 63 211 63 421 c 0,48,49
 63 566 63 566 96 700 c 128,-1,50
 129 834 129 834 189.5 946.5 c 128,-1,51
 250 1059 250 1059 340 1151.5 c 128,-1,52
 430 1244 430 1244 541 1308.5 c 128,-1,53
 652 1373 652 1373 788.5 1408 c 128,-1,54
 925 1443 925 1443 1076 1443 c 0,55,56
 1314 1443 1314 1443 1494 1354.5 c 128,-1,57
 1674 1266 1674 1266 1772.5 1099.5 c 128,-1,58
 1871 933 1871 933 1871 709 c 0,0,1
800 250 m 0,59,60
 818 250 818 250 850 282 c 128,-1,61
 882 314 882 314 923.5 373.5 c 128,-1,62
 965 433 965 433 1017.5 533 c 128,-1,63
 1070 633 1070 633 1121 755 c 1,64,-1
 1126 789 l 1,65,-1
 1126 798 l 1,66,-1
 980 844 l 1,67,68
 906 844 906 844 851.5 792 c 128,-1,69
 797 740 797 740 769 650 c 128,-1,70
 741 560 741 560 741 443 c 0,71,72
 741 373 741 373 750 328 c 128,-1,73
 759 283 759 283 771.5 266.5 c 128,-1,74
 784 250 784 250 800 250 c 0,59,60
EndSplineSet
EndChar

StartChar: A
Encoding: 65 65 36
Width: 1363
GlyphClass: 2
Flags: W
AnchorPoint: "Anchor-1" 0 0 basechar 0
AnchorPoint: "Anchor-0" 683 1464 basechar 0
LayerCount: 2
Fore
SplineSet
1328 0 m 1,0,-1
 1013 0 l 1,1,-1
 978 191 l 1,2,-1
 939 327 l 1,3,-1
 653 334 l 1,4,-1
 400 327 l 1,5,-1
 362 206 l 1,6,-1
 323 0 l 1,7,-1
 18 0 l 1,8,-1
 514 1464 l 1,9,-1
 880 1464 l 1,10,-1
 1328 0 l 1,0,-1
872 566 m 1,11,-1
 700 1175 l 1,12,-1
 679 1175 l 1,13,-1
 480 566 l 1,14,-1
 675 562 l 1,15,-1
 872 566 l 1,11,-1
EndSplineSet
Position2: "'cpsp' Capital Spacing lookup 0 subtable" dx=16 dy=0 dh=33 dv=0
EndChar

StartChar: B
Encoding: 66 66 37
Width: 1315
GlyphClass: 2
Flags: W
LayerCount: 2
Fore
SplineSet
950 759 m 1,0,1
 1100 724 1100 724 1171.5 638.5 c 128,-1,2
 1243 553 1243 553 1243 414 c 0,3,4
 1243 -11 1243 -11 577 -11 c 0,5,6
 383 -11 383 -11 178 0 c 1,7,-1
 193 436 l 1,8,-1
 178 1464 l 1,9,-1
 698 1466 l 2,10,11
 923 1466 923 1466 1048 1372 c 128,-1,12
 1173 1278 1173 1278 1173 1100 c 0,13,14
 1173 981 1173 981 1115.5 893 c 128,-1,15
 1058 805 1058 805 950 759 c 1,0,1
857 1059 m 0,16,17
 857 1160 857 1160 797.5 1201.5 c 128,-1,18
 738 1243 738 1243 591 1243 c 2,19,-1
 480 1243 l 1,20,-1
 473 846 l 1,21,-1
 686 839 l 1,22,23
 773 862 773 862 815 914.5 c 128,-1,24
 857 967 857 967 857 1059 c 0,16,17
629 209 m 0,25,26
 773 209 773 209 851.5 266 c 128,-1,27
 930 323 930 323 930 430 c 0,28,29
 930 512 930 512 878 561 c 128,-1,30
 826 610 826 610 720 629 c 1,31,-1
 468 625 l 1,32,-1
 466 464 l 1,33,-1
 473 219 l 1,34,35
 561 209 561 209 629 209 c 0,25,26
EndSplineSet
Position2: "'cpsp' Capital Spacing lookup 0 subtable" dx=16 dy=0 dh=33 dv=0
EndChar

StartChar: C
Encoding: 67 67 38
Width: 1174
GlyphClass: 2
Flags: W
AnchorPoint: "Anchor-1" 711 0 basechar 0
AnchorPoint: "Anchor-0" 715 1464 basechar 0
LayerCount: 2
Fore
SplineSet
764 1482 m 0,0,1
 977 1482 977 1482 1148 1393 c 1,2,-1
 1093 1137 l 1,3,-1
 1069 1126 l 1,4,5
 1001 1174 1001 1174 918.5 1201 c 128,-1,6
 836 1228 836 1228 750 1228 c 0,7,8
 388 1228 388 1228 388 753 c 0,9,10
 388 496 388 496 482.5 367.5 c 128,-1,11
 577 239 577 239 759 239 c 0,12,13
 844 239 844 239 933 264.5 c 128,-1,14
 1022 290 1022 290 1096 336 c 1,15,-1
 1123 321 l 1,16,-1
 1098 59 l 1,17,18
 927 -20 927 -20 735 -20 c 0,19,20
 408 -20 408 -20 235.5 170.5 c 128,-1,21
 63 361 63 361 63 718 c 0,22,23
 63 1083 63 1083 246.5 1282.5 c 128,-1,24
 430 1482 430 1482 764 1482 c 0,0,1
EndSplineSet
Substitution2: "Single Substitution lookup 41 subtable" C.ss01
Substitution2: "'ss01' Style Set 1 lookup 35 subtable" C.ss01
Substitution2: "'aalt' Access All Alternates lookup 0 subtable" C.ss01
Position2: "'cpsp' Capital Spacing lookup 0 subtable" dx=16 dy=0 dh=33 dv=0
EndChar

StartChar: D
Encoding: 68 68 39
Width: 1488
GlyphClass: 2
Flags: W
AnchorPoint: "Anchor-1" 0 0 basechar 0
AnchorPoint: "Anchor-0" 729 1464 basechar 0
LayerCount: 2
Fore
SplineSet
178 1464 m 1,0,-1
 766 1473 l 1,1,2
 1085 1473 1085 1473 1255 1296 c 128,-1,3
 1425 1119 1425 1119 1425 787 c 0,4,5
 1425 399 1425 399 1234.5 191.5 c 128,-1,6
 1044 -16 1044 -16 689 -16 c 0,7,8
 440 -16 440 -16 178 0 c 1,9,-1
 193 436 l 1,10,-1
 178 1464 l 1,0,-1
744 223 m 0,11,12
 1104 223 1104 223 1104 716 c 0,13,14
 1104 983 1104 983 1016.5 1105.5 c 128,-1,15
 929 1228 929 1228 744 1228 c 0,16,17
 623 1228 623 1228 486 1217 c 1,18,-1
 473 464 l 1,19,-1
 480 239 l 1,20,21
 639 223 639 223 744 223 c 0,11,12
EndSplineSet
Substitution2: "Single Substitution lookup 41 subtable" D.ss01
Substitution2: "'ss01' Style Set 1 lookup 35 subtable" D.ss01
Substitution2: "'aalt' Access All Alternates lookup 0 subtable" D.ss01
Position2: "'cpsp' Capital Spacing lookup 0 subtable" dx=16 dy=0 dh=33 dv=0
EndChar

StartChar: E
Encoding: 69 69 40
Width: 1156
GlyphClass: 2
Flags: W
AnchorPoint: "Anchor-1" 668 0 basechar 0
AnchorPoint: "Anchor-0" 641 1464 basechar 0
LayerCount: 2
Fore
SplineSet
1098 254 m 1,0,-1
 1117 230 l 1,1,-1
 1096 0 l 1,2,-1
 178 0 l 1,3,-1
 193 436 l 1,4,-1
 178 1464 l 1,5,-1
 1104 1464 l 1,6,-1
 1123 1439 l 1,7,-1
 1100 1210 l 1,8,-1
 750 1221 l 1,9,-1
 486 1219 l 1,10,-1
 480 866 l 1,11,-1
 731 861 l 1,12,-1
 970 868 l 1,13,-1
 989 846 l 1,14,-1
 968 616 l 1,15,-1
 709 623 l 1,16,-1
 475 620 l 1,17,-1
 473 464 l 1,18,-1
 480 243 l 1,19,-1
 737 241 l 1,20,-1
 1098 254 l 1,0,-1
EndSplineSet
Position2: "'cpsp' Capital Spacing lookup 0 subtable" dx=16 dy=0 dh=33 dv=0
EndChar

StartChar: F
Encoding: 70 70 41
Width: 1035
GlyphClass: 2
Flags: W
LayerCount: 2
Fore
SplineSet
486 1219 m 1,0,-1
 480 823 l 1,1,-1
 684 820 l 1,2,-1
 932 827 l 1,3,-1
 952 805 l 1,4,-1
 930 575 l 1,5,-1
 659 582 l 1,6,-1
 475 579 l 1,7,-1
 473 464 l 1,8,-1
 486 0 l 1,9,-1
 178 0 l 1,10,-1
 193 436 l 1,11,-1
 178 1464 l 1,12,-1
 1048 1464 l 1,13,-1
 1067 1439 l 1,14,-1
 1043 1207 l 1,15,-1
 696 1221 l 1,16,-1
 486 1219 l 1,0,-1
EndSplineSet
Position2: "'cpsp' Capital Spacing lookup 0 subtable" dx=16 dy=0 dh=33 dv=0
EndChar

StartChar: G
Encoding: 71 71 42
Width: 1358
GlyphClass: 2
Flags: W
AnchorPoint: "Anchor-1" 689 0 basechar 0
AnchorPoint: "Anchor-0" 743 1464 basechar 0
LayerCount: 2
Fore
SplineSet
827 1482 m 0,0,1
 1065 1482 1065 1482 1258 1393 c 1,2,-1
 1191 1117 l 1,3,-1
 1162 1111 l 1,4,5
 1050 1176 1050 1176 962.5 1204 c 128,-1,6
 875 1232 875 1232 775 1232 c 0,7,8
 639 1232 639 1232 555 1181 c 128,-1,9
 471 1130 471 1130 428.5 1016 c 128,-1,10
 386 902 386 902 386 716 c 0,11,12
 386 534 386 534 426 426.5 c 128,-1,13
 466 319 466 319 549.5 271 c 128,-1,14
 633 223 633 223 773 223 c 0,15,16
 863 223 863 223 966 254 c 1,17,-1
 970 380 l 1,18,-1
 966 605 l 1,19,-1
 1250 627 l 1,20,-1
 1243 427 l 1,21,-1
 1250 70 l 1,22,23
 979 -20 979 -20 748 -20 c 0,24,25
 407 -20 407 -20 235 166 c 128,-1,26
 63 352 63 352 63 700 c 0,27,28
 63 1080 63 1080 261.5 1281 c 128,-1,29
 460 1482 460 1482 827 1482 c 0,0,1
EndSplineSet
Position2: "'cpsp' Capital Spacing lookup 0 subtable" dx=16 dy=0 dh=33 dv=0
EndChar

StartChar: H
Encoding: 72 72 43
Width: 1581
GlyphClass: 2
Flags: W
AnchorPoint: "Anchor-1" 0 0 basechar 0
AnchorPoint: "Anchor-0" 786 1464 basechar 0
LayerCount: 2
Fore
SplineSet
1386 464 m 1,0,-1
 1401 0 l 1,1,-1
 1089 0 l 1,2,-1
 1107 436 l 1,3,-1
 1104 607 l 1,4,-1
 773 612 l 1,5,-1
 475 605 l 1,6,-1
 473 464 l 1,7,-1
 486 0 l 1,8,-1
 178 0 l 1,9,-1
 193 436 l 1,10,-1
 178 1464 l 1,11,-1
 491 1464 l 1,12,-1
 480 861 l 1,13,-1
 794 855 l 1,14,-1
 1100 861 l 1,15,-1
 1089 1464 l 1,16,-1
 1405 1464 l 1,17,-1
 1386 464 l 1,0,-1
EndSplineSet
Position2: "'cpsp' Capital Spacing lookup 0 subtable" dx=16 dy=0 dh=33 dv=0
EndChar

StartChar: I
Encoding: 73 73 44
Width: 670
GlyphClass: 2
Flags: W
AnchorPoint: "Anchor-1" 0 0 basechar 0
AnchorPoint: "Anchor-0" 334 1464 basechar 0
LayerCount: 2
Fore
SplineSet
473 464 m 1,0,-1
 486 0 l 1,1,-1
 178 0 l 1,2,-1
 193 436 l 1,3,-1
 178 1464 l 1,4,-1
 491 1464 l 1,5,-1
 473 464 l 1,0,-1
EndSplineSet
Substitution2: "Single Substitution lookup 41 subtable" I.ss01
Substitution2: "'ss01' Style Set 1 lookup 35 subtable" I.ss01
Substitution2: "'aalt' Access All Alternates lookup 0 subtable" I.ss01
Position2: "'cpsp' Capital Spacing lookup 0 subtable" dx=16 dy=0 dh=33 dv=0
EndChar

StartChar: J
Encoding: 74 74 45
Width: 761
GlyphClass: 2
Flags: W
AnchorPoint: "Anchor-1" 0 0 basechar 0
AnchorPoint: "Anchor-0" 336 1464 basechar 0
LayerCount: 2
Fore
SplineSet
571 482 m 1,0,-1
 575 275 l 1,1,2
 575 147 575 147 532.5 56 c 128,-1,3
 490 -35 490 -35 393 -106.5 c 128,-1,4
 296 -178 296 -178 128 -241 c 1,5,-1
 34 -78 l 1,6,-1
 34 -50 l 1,7,8
 176 23 176 23 233.5 95 c 128,-1,9
 291 167 291 167 291 280 c 2,10,-1
 291 453 l 1,11,-1
 278 1237 l 1,12,-1
 37 1230 l 1,13,-1
 13 1252 l 1,14,-1
 30 1464 l 1,15,-1
 586 1464 l 1,16,-1
 571 482 l 1,0,-1
EndSplineSet
Position2: "'cpsp' Capital Spacing lookup 0 subtable" dx=16 dy=0 dh=33 dv=0
EndChar

StartChar: K
Encoding: 75 75 46
Width: 1327
GlyphClass: 2
Flags: W
AnchorPoint: "Anchor-1" 679 0 basechar 0
AnchorPoint: "Anchor-0" 666 1464 basechar 0
LayerCount: 2
Fore
SplineSet
1305 1464 m 1,0,-1
 787 773 l 1,1,2
 1053 402 1053 402 1348 63 c 1,3,-1
 1343 30 l 1,4,5
 1206 -4 1206 -4 1041 -22 c 1,6,-1
 1005 -4 l 1,7,8
 683 428 683 428 477 753 c 1,9,-1
 473 464 l 1,10,-1
 484 0 l 1,11,-1
 175 0 l 1,12,-1
 193 436 l 1,13,-1
 175 1464 l 1,14,-1
 488 1464 l 1,15,-1
 477 785 l 1,16,-1
 887 1323 l 1,17,-1
 970 1464 l 1,18,-1
 1305 1464 l 1,0,-1
EndSplineSet
Position2: "'cpsp' Capital Spacing lookup 0 subtable" dx=16 dy=0 dh=33 dv=0
EndChar

StartChar: L
Encoding: 76 76 47
Width: 983
GlyphClass: 2
Flags: W
AnchorPoint: "Anchor-1" 531 0 basechar 0
AnchorPoint: "Anchor-0" 481 1464 basechar 0
LayerCount: 2
Fore
SplineSet
980 230 m 1,0,-1
 959 0 l 1,1,-1
 169 0 l 1,2,-1
 184 436 l 1,3,-1
 169 1464 l 1,4,-1
 482 1464 l 1,5,-1
 464 464 l 1,6,-1
 471 254 l 1,7,-1
 961 254 l 1,8,-1
 980 230 l 1,0,-1
EndSplineSet
Substitution2: "Single Substitution lookup 41 subtable" L.ss01
Substitution2: "'ss01' Style Set 1 lookup 35 subtable" L.ss01
Substitution2: "'aalt' Access All Alternates lookup 0 subtable" L.ss01
Position2: "'cpsp' Capital Spacing lookup 0 subtable" dx=16 dy=0 dh=33 dv=0
EndChar

StartChar: M
Encoding: 77 77 48
Width: 1811
GlyphClass: 2
Flags: W
LayerCount: 2
Fore
SplineSet
1703 0 m 1,0,-1
 1430 0 l 1,1,-1
 1407 443 l 1,2,-1
 1355 1007 l 1,3,-1
 1332 1007 l 1,4,-1
 1005 154 l 1,5,-1
 766 154 l 1,6,-1
 468 1007 l 1,7,-1
 447 1007 l 1,8,-1
 391 473 l 1,9,-1
 360 0 l 1,10,-1
 100 0 l 1,11,-1
 248 1464 l 1,12,-1
 603 1464 l 1,13,-1
 662 1248 l 1,14,-1
 894 555 l 1,15,-1
 914 555 l 1,16,-1
 1157 1248 l 1,17,-1
 1223 1464 l 1,18,-1
 1571 1464 l 1,19,-1
 1703 0 l 1,0,-1
EndSplineSet
Substitution2: "Single Substitution lookup 41 subtable" M.ss01
Substitution2: "'ss01' Style Set 1 lookup 35 subtable" M.ss01
Substitution2: "'aalt' Access All Alternates lookup 0 subtable" M.ss01
Position2: "'cpsp' Capital Spacing lookup 0 subtable" dx=16 dy=0 dh=33 dv=0
EndChar

StartChar: N
Encoding: 78 78 49
Width: 1579
GlyphClass: 2
Flags: W
AnchorPoint: "Anchor-1" 786 0 basechar 0
AnchorPoint: "Anchor-0" 789 1464 basechar 0
LayerCount: 2
Fore
SplineSet
1386 453 m 1,0,-1
 1399 0 l 1,1,-1
 1067 0 l 1,2,-1
 471 991 l 1,3,-1
 451 991 l 1,4,-1
 447 505 l 1,5,-1
 460 0 l 1,6,-1
 178 0 l 1,7,-1
 193 432 l 1,8,-1
 180 1464 l 1,9,-1
 512 1464 l 1,10,-1
 1107 473 l 1,11,-1
 1128 473 l 1,12,-1
 1119 1451 l 1,13,-1
 1405 1469 l 1,14,-1
 1386 453 l 1,0,-1
EndSplineSet
Position2: "'cpsp' Capital Spacing lookup 0 subtable" dx=16 dy=0 dh=33 dv=0
EndChar

StartChar: O
Encoding: 79 79 50
Width: 1460
GlyphClass: 2
Flags: W
AnchorPoint: "Anchor-1" 0 0 basechar 0
AnchorPoint: "Anchor-0" 731 1464 basechar 0
LayerCount: 2
Fore
SplineSet
757 1484 m 0,0,1
 1066 1484 1066 1484 1233.5 1296.5 c 128,-1,2
 1401 1109 1401 1109 1401 764 c 0,3,4
 1401 387 1401 387 1219.5 182.5 c 128,-1,5
 1038 -22 1038 -22 707 -22 c 0,6,7
 399 -22 399 -22 231 170 c 128,-1,8
 63 362 63 362 63 714 c 0,9,10
 63 1083 63 1083 244 1283.5 c 128,-1,11
 425 1484 425 1484 757 1484 c 0,0,1
729 1234 m 0,12,13
 548 1234 548 1234 466 1121.5 c 128,-1,14
 384 1009 384 1009 384 755 c 0,15,16
 384 559 384 559 420 441 c 128,-1,17
 456 323 456 323 531.5 269.5 c 128,-1,18
 607 216 607 216 731 216 c 0,19,20
 913 216 913 216 995.5 330 c 128,-1,21
 1078 444 1078 444 1078 703 c 0,22,23
 1078 896 1078 896 1041.5 1012.5 c 128,-1,24
 1005 1129 1005 1129 929.5 1181.5 c 128,-1,25
 854 1234 854 1234 729 1234 c 0,12,13
EndSplineSet
Position2: "'cpsp' Capital Spacing lookup 0 subtable" dx=16 dy=0 dh=33 dv=0
EndChar

StartChar: P
Encoding: 80 80 51
Width: 1256
GlyphClass: 2
Flags: W
LayerCount: 2
Fore
SplineSet
178 1464 m 1,0,-1
 739 1466 l 2,1,2
 968 1466 968 1466 1092.5 1350.5 c 128,-1,3
 1217 1235 1217 1235 1217 1019 c 0,4,5
 1217 768 1217 768 1054.5 618 c 128,-1,6
 892 468 892 468 618 468 c 2,7,-1
 473 468 l 1,8,-1
 473 464 l 1,9,-1
 486 0 l 1,10,-1
 178 0 l 1,11,-1
 193 436 l 1,12,-1
 178 1464 l 1,0,-1
477 703 m 1,13,-1
 686 694 l 1,14,15
 896 753 896 753 896 991 c 0,16,17
 896 1115 896 1115 833.5 1174.5 c 128,-1,18
 771 1234 771 1234 642 1239 c 1,19,-1
 486 1230 l 1,20,-1
 477 703 l 1,13,-1
EndSplineSet
Position2: "'cpsp' Capital Spacing lookup 0 subtable" dx=16 dy=0 dh=33 dv=0
EndChar

StartChar: Q
Encoding: 81 81 52
Width: 1475
GlyphClass: 2
Flags: W
LayerCount: 2
Fore
SplineSet
1662 -219 m 1,0,-1
 1673 -250 l 1,1,2
 1612 -371 1612 -371 1530 -447 c 1,3,-1
 1505 -457 l 1,4,5
 1085 -302 1085 -302 757 -22 c 1,6,-1
 709 -22 l 2,7,8
 399 -22 399 -22 231 170 c 128,-1,9
 63 362 63 362 63 714 c 0,10,11
 63 1083 63 1083 244 1283.5 c 128,-1,12
 425 1484 425 1484 757 1484 c 0,13,14
 1066 1484 1066 1484 1233.5 1296 c 128,-1,15
 1401 1108 1401 1108 1401 759 c 0,16,17
 1401 495 1401 495 1305.5 311 c 128,-1,18
 1210 127 1210 127 1032 43 c 1,19,20
 1334 -140 1334 -140 1662 -219 c 1,0,-1
384 748 m 0,21,22
 384 556 384 556 421 439 c 128,-1,23
 458 322 458 322 534 269 c 128,-1,24
 610 216 610 216 735 216 c 0,25,26
 912 216 912 216 995 332 c 128,-1,27
 1078 448 1078 448 1078 707 c 0,28,29
 1078 898 1078 898 1041 1014 c 128,-1,30
 1004 1130 1004 1130 928 1182 c 128,-1,31
 852 1234 852 1234 727 1234 c 0,32,33
 546 1234 546 1234 465 1121 c 128,-1,34
 384 1008 384 1008 384 748 c 0,21,22
EndSplineSet
Substitution2: "Single Substitution lookup 41 subtable" Q.corta
Position2: "'cpsp' Capital Spacing lookup 0 subtable" dx=16 dy=0 dh=33 dv=0
EndChar

StartChar: R
Encoding: 82 82 53
Width: 1340
GlyphClass: 2
Flags: W
AnchorPoint: "Anchor-1" 672 0 basechar 0
AnchorPoint: "Anchor-0" 672 1464 basechar 0
LayerCount: 2
Fore
SplineSet
946 582 m 1,0,1
 1118 308 1118 308 1298 73 c 1,2,-1
 1293 39 l 1,3,4
 1148 -12 1148 -12 991 -22 c 1,5,-1
 959 2 l 1,6,7
 802 273 802 273 694 493 c 1,8,-1
 473 493 l 1,9,-1
 473 464 l 1,10,-1
 486 0 l 1,11,-1
 178 0 l 1,12,-1
 193 436 l 1,13,-1
 178 1464 l 1,14,-1
 739 1466 l 2,15,16
 968 1466 968 1466 1093.5 1353.5 c 128,-1,17
 1219 1241 1219 1241 1219 1032 c 0,18,19
 1219 891 1219 891 1147.5 774 c 128,-1,20
 1076 657 1076 657 946 582 c 1,0,1
477 731 m 1,21,-1
 703 723 l 1,22,23
 896 788 896 788 896 1002 c 0,24,25
 896 1119 896 1119 833.5 1176.5 c 128,-1,26
 771 1234 771 1234 642 1239 c 1,27,-1
 486 1230 l 1,28,-1
 477 731 l 1,21,-1
EndSplineSet
Position2: "'cpsp' Capital Spacing lookup 0 subtable" dx=16 dy=0 dh=33 dv=0
EndChar

StartChar: S
Encoding: 83 83 54
Width: 1131
GlyphClass: 2
Flags: W
AnchorPoint: "Anchor-1" 548 0 basechar 0
AnchorPoint: "Anchor-0" 590 1464 basechar 0
LayerCount: 2
Fore
SplineSet
648 1482 m 0,0,1
 837 1482 837 1482 1019 1407 c 1,2,-1
 968 1141 l 1,3,-1
 922 1123 l 1,4,5
 845 1179 845 1179 762 1210 c 128,-1,6
 679 1241 679 1241 612 1241 c 0,7,8
 521 1241 521 1241 466.5 1192.5 c 128,-1,9
 412 1144 412 1144 412 1080 c 0,10,11
 412 1042 412 1042 434 1009.5 c 128,-1,12
 456 977 456 977 493 952 c 128,-1,13
 530 927 530 927 578.5 902.5 c 128,-1,14
 627 878 627 878 680 853.5 c 128,-1,15
 733 829 733 829 786.5 801.5 c 128,-1,16
 840 774 840 774 888 738 c 128,-1,17
 936 702 936 702 973.5 660 c 128,-1,18
 1011 618 1011 618 1032.5 559.5 c 128,-1,19
 1054 501 1054 501 1054 432 c 0,20,21
 1054 339 1054 339 1015 256 c 128,-1,22
 976 173 976 173 905.5 112 c 128,-1,23
 835 51 835 51 731.5 15.5 c 128,-1,24
 628 -20 628 -20 505 -20 c 0,25,26
 289 -20 289 -20 70 73 c 1,27,-1
 113 360 l 1,28,-1
 148 377 l 1,29,30
 238 299 238 299 346 256.5 c 128,-1,31
 454 214 454 214 538 214 c 0,32,33
 639 214 639 214 694.5 263 c 128,-1,34
 750 312 750 312 750 380 c 0,35,36
 750 419 750 419 728 453 c 128,-1,37
 706 487 706 487 669 513 c 128,-1,38
 632 539 632 539 584 563 c 128,-1,39
 536 587 536 587 483 611.5 c 128,-1,40
 430 636 430 636 376.5 663 c 128,-1,41
 323 690 323 690 275 725.5 c 128,-1,42
 227 761 227 761 190 802.5 c 128,-1,43
 153 844 153 844 131 902.5 c 128,-1,44
 109 961 109 961 109 1030 c 0,45,46
 109 1125 109 1125 148.5 1208.5 c 128,-1,47
 188 1292 188 1292 258 1352 c 128,-1,48
 328 1412 328 1412 429 1447 c 128,-1,49
 530 1482 530 1482 648 1482 c 0,0,1
EndSplineSet
Position2: "'cpsp' Capital Spacing lookup 0 subtable" dx=16 dy=0 dh=33 dv=0
EndChar

StartChar: T
Encoding: 84 84 55
Width: 1143
GlyphClass: 2
Flags: W
AnchorPoint: "Anchor-1" 568 0 basechar 0
AnchorPoint: "Anchor-0" 577 1464 basechar 0
LayerCount: 2
Fore
SplineSet
1111 1439 m 1,0,-1
 1093 1210 l 1,1,-1
 818 1223 l 1,2,-1
 727 1223 l 1,3,-1
 716 464 l 1,4,-1
 729 0 l 1,5,-1
 421 0 l 1,6,-1
 436 436 l 1,7,-1
 425 1223 l 1,8,-1
 334 1223 l 1,9,-1
 54 1210 l 1,10,-1
 34 1234 l 1,11,-1
 54 1464 l 1,12,-1
 1093 1464 l 1,13,-1
 1111 1439 l 1,0,-1
EndSplineSet
Position2: "'cpsp' Capital Spacing lookup 0 subtable" dx=16 dy=0 dh=33 dv=0
EndChar

StartChar: U
Encoding: 85 85 56
Width: 1449
GlyphClass: 2
Flags: W
AnchorPoint: "Anchor-1" 0 0 basechar 0
AnchorPoint: "Anchor-0" 729 1464 basechar 0
LayerCount: 2
Fore
SplineSet
1303 720 m 1,0,-1
 1300 527 l 1,1,2
 1303 265 1303 265 1148 122.5 c 128,-1,3
 993 -20 993 -20 705 -20 c 0,4,5
 428 -20 428 -20 282.5 119 c 128,-1,6
 137 258 137 258 143 516 c 1,7,-1
 145 727 l 1,8,-1
 139 1464 l 1,9,-1
 447 1464 l 1,10,-1
 432 557 l 2,11,12
 430 392 430 392 502 312 c 128,-1,13
 574 232 574 232 722.5 232 c 128,-1,14
 871 232 871 232 944 308.5 c 128,-1,15
 1017 385 1017 385 1016 541 c 1,16,-1
 1000 1464 l 1,17,-1
 1314 1464 l 1,18,-1
 1303 720 l 1,0,-1
EndSplineSet
Position2: "'cpsp' Capital Spacing lookup 0 subtable" dx=16 dy=0 dh=33 dv=0
EndChar

StartChar: V
Encoding: 86 86 57
Width: 1334
GlyphClass: 2
Flags: W
LayerCount: 2
Fore
SplineSet
839 0 m 1,0,-1
 471 0 l 1,1,-1
 22 1464 l 1,2,-1
 336 1464 l 1,3,-1
 373 1271 l 1,4,-1
 650 286 l 1,5,-1
 670 286 l 1,6,-1
 989 1254 l 1,7,-1
 1028 1464 l 1,8,-1
 1332 1464 l 1,9,-1
 839 0 l 1,0,-1
EndSplineSet
Substitution2: "Single Substitution lookup 41 subtable" V.ss01
Substitution2: "'ss01' Style Set 1 lookup 35 subtable" V.ss01
Substitution2: "'aalt' Access All Alternates lookup 0 subtable" V.ss01
Position2: "'cpsp' Capital Spacing lookup 0 subtable" dx=16 dy=0 dh=33 dv=0
EndChar

StartChar: W
Encoding: 87 87 58
Width: 2052
GlyphClass: 2
Flags: W
AnchorPoint: "Anchor-1" 0 0 basechar 0
AnchorPoint: "Anchor-0" 1011 1464 basechar 0
LayerCount: 2
Fore
SplineSet
1560 0 m 1,0,-1
 1237 0 l 1,1,-1
 1019 700 l 1,2,-1
 998 700 l 1,3,-1
 777 0 l 1,4,-1
 453 0 l 1,5,-1
 43 1464 l 1,6,-1
 345 1464 l 1,7,-1
 369 1284 l 1,8,-1
 627 319 l 1,9,-1
 648 319 l 1,10,-1
 896 1107 l 1,11,-1
 791 1464 l 1,12,-1
 1104 1464 l 1,13,-1
 1139 1252 l 1,14,-1
 1403 319 l 1,15,-1
 1423 319 l 1,16,-1
 1718 1264 l 1,17,-1
 1755 1464 l 1,18,-1
 2041 1464 l 1,19,-1
 1560 0 l 1,0,-1
EndSplineSet
Position2: "'cpsp' Capital Spacing lookup 0 subtable" dx=16 dy=0 dh=33 dv=0
EndChar

StartChar: X
Encoding: 88 88 59
Width: 1386
GlyphClass: 2
Flags: W
LayerCount: 2
Fore
SplineSet
887 766 m 1,0,-1
 1360 0 l 1,1,-1
 989 0 l 1,2,-1
 920 145 l 1,3,-1
 677 525 l 1,4,-1
 414 130 l 1,5,-1
 347 0 l 1,6,-1
 30 0 l 1,7,-1
 498 723 l 1,8,-1
 34 1464 l 1,9,-1
 405 1464 l 1,10,-1
 473 1316 l 1,11,-1
 703 959 l 1,12,-1
 939 1328 l 1,13,-1
 1002 1464 l 1,14,-1
 1328 1464 l 1,15,-1
 887 766 l 1,0,-1
EndSplineSet
Substitution2: "Single Substitution lookup 41 subtable" X.ss01
Substitution2: "'ss01' Style Set 1 lookup 35 subtable" X.ss01
Substitution2: "'aalt' Access All Alternates lookup 0 subtable" X.ss01
Position2: "'cpsp' Capital Spacing lookup 0 subtable" dx=16 dy=0 dh=33 dv=0
EndChar

StartChar: Y
Encoding: 89 89 60
Width: 1267
GlyphClass: 2
Flags: W
AnchorPoint: "Anchor-1" 0 0 basechar 0
AnchorPoint: "Anchor-0" 627 1464 basechar 0
LayerCount: 2
Fore
SplineSet
757 407 m 1,0,-1
 770 0 l 1,1,-1
 462 0 l 1,2,-1
 480 407 l 1,3,-1
 475 493 l 1,4,-1
 9 1464 l 1,5,-1
 336 1464 l 1,6,-1
 369 1362 l 1,7,-1
 616 805 l 1,8,-1
 638 805 l 1,9,-1
 914 1353 l 1,10,-1
 957 1464 l 1,11,-1
 1275 1464 l 1,12,-1
 761 498 l 1,13,-1
 757 407 l 1,0,-1
EndSplineSet
Position2: "'cpsp' Capital Spacing lookup 0 subtable" dx=16 dy=0 dh=33 dv=0
EndChar

StartChar: Z
Encoding: 90 90 61
Width: 1243
GlyphClass: 2
Flags: W
AnchorPoint: "Anchor-1" 0 0 basechar 0
AnchorPoint: "Anchor-0" 629 1464 basechar 0
LayerCount: 2
Fore
SplineSet
1159 1241 m 1,0,-1
 432 234 l 1,1,-1
 922 234 l 1,2,-1
 1171 254 l 1,3,-1
 1182 236 l 1,4,-1
 1157 -7 l 1,5,-1
 827 0 l 1,6,-1
 243 0 l 1,7,-1
 68 -9 l 1,8,-1
 68 211 l 1,9,-1
 803 1228 l 1,10,-1
 339 1228 l 1,11,-1
 91 1207 l 1,12,-1
 78 1223 l 1,13,-1
 100 1466 l 1,14,-1
 1019 1464 l 1,15,-1
 1159 1466 l 1,16,-1
 1159 1241 l 1,0,-1
EndSplineSet
Position2: "'cpsp' Capital Spacing lookup 0 subtable" dx=16 dy=0 dh=33 dv=0
EndChar

StartChar: bracketleft
Encoding: 91 91 62
Width: 670
GlyphClass: 2
Flags: W
LayerCount: 2
Fore
SplineSet
670 1457 m 1,0,-1
 670 1321 l 1,1,-1
 427 1289 l 1,2,-1
 427 -104 l 1,3,-1
 670 -134 l 1,4,-1
 670 -273 l 1,5,-1
 657 -286 l 1,6,-1
 182 -264 l 1,7,-1
 198 594 l 1,8,-1
 182 1451 l 1,9,-1
 657 1473 l 1,10,-1
 670 1457 l 1,0,-1
EndSplineSet
EndChar

StartChar: backslash
Encoding: 92 92 63
Width: 644
GlyphClass: 2
Flags: W
LayerCount: 2
Fore
SplineSet
204 1546 m 1,0,-1
 675 -236 l 1,1,-1
 655 -262 l 1,2,-1
 445 -262 l 1,3,-1
 -22 1518 l 1,4,-1
 2 1546 l 1,5,-1
 204 1546 l 1,0,-1
EndSplineSet
EndChar

StartChar: bracketright
Encoding: 93 93 64
Width: 670
GlyphClass: 2
Flags: W
LayerCount: 2
Fore
SplineSet
-2 -271 m 1,0,-1
 -2 -134 l 1,1,-1
 241 -104 l 1,2,-1
 241 1291 l 1,3,-1
 -2 1321 l 1,4,-1
 -2 1457 l 1,5,-1
 11 1473 l 1,6,-1
 488 1451 l 1,7,-1
 473 594 l 1,8,-1
 488 -264 l 1,9,-1
 11 -286 l 1,10,-1
 -2 -271 l 1,0,-1
EndSplineSet
EndChar

StartChar: asciicircum
Encoding: 94 94 65
Width: 1002
GlyphClass: 2
Flags: W
LayerCount: 2
Fore
SplineSet
966 332 m 1,0,-1
 946 306 l 1,1,-1
 775 266 l 1,2,-1
 518 916 l 1,3,-1
 503 916 l 1,4,-1
 234 266 l 1,5,-1
 209 254 l 1,6,-1
 39 319 l 1,7,-1
 366 1111 l 1,8,-1
 395 1128 l 1,9,-1
 638 1128 l 1,10,-1
 966 332 l 1,0,-1
EndSplineSet
EndChar

StartChar: underscore
Encoding: 95 95 66
Width: 1008
GlyphClass: 2
Flags: W
LayerCount: 2
Fore
SplineSet
1043 -223 m 1,0,-1
 1028 -393 l 1,1,-1
 -13 -393 l 1,2,-1
 -34 -371 l 1,3,-1
 -18 -202 l 1,4,-1
 1026 -202 l 1,5,-1
 1043 -223 l 1,0,-1
EndSplineSet
EndChar

StartChar: grave
Encoding: 96 96 67
Width: 883
GlyphClass: 2
Flags: W
LayerCount: 2
Fore
SplineSet
278 1644 m 1,0,-1
 304 1646 l 1,1,2
 477 1487 477 1487 716 1298 c 1,3,-1
 644 1184 l 1,4,-1
 616 1182 l 1,5,6
 439 1285 439 1285 173 1451 c 1,7,-1
 169 1480 l 1,8,-1
 278 1644 l 1,0,-1
EndSplineSet
EndChar

StartChar: a
Encoding: 97 97 68
Width: 1093
GlyphClass: 2
Flags: W
AnchorPoint: "Anchor-1" 0 0 basechar 0
AnchorPoint: "Anchor-0" 531 1056 basechar 0
LayerCount: 2
Fore
SplineSet
555 1078 m 0,0,1
 730 1078 730 1078 829 999 c 128,-1,2
 928 920 928 920 928 779 c 0,3,4
 928 740 928 740 915 525.5 c 128,-1,5
 902 311 902 311 902 275 c 0,6,7
 902 238 902 238 914 222 c 128,-1,8
 926 206 926 206 955 206 c 0,9,10
 972 206 972 206 1013 216 c 1,11,-1
 1037 198 l 1,12,-1
 1009 39 l 1,13,14
 937 -9 937 -9 844 -18 c 1,15,16
 774 -11 774 -11 728.5 31.5 c 128,-1,17
 683 74 683 74 668 148 c 1,18,-1
 653 148 l 1,19,20
 543 30 543 30 418 -20 c 1,21,22
 255 -18 255 -18 161.5 66 c 128,-1,23
 68 150 68 150 68 295 c 0,24,25
 68 408 68 408 126.5 473.5 c 128,-1,26
 185 539 185 539 302 562 c 1,27,-1
 650 627 l 1,28,-1
 650 720 l 2,29,30
 650 868 650 868 505 868 c 0,31,32
 433 868 433 868 355 836.5 c 128,-1,33
 277 805 277 805 180 737 c 1,34,-1
 157 750 l 1,35,-1
 123 950 l 1,36,37
 221 1013 221 1013 332.5 1045.5 c 128,-1,38
 444 1078 444 1078 555 1078 c 0,0,1
648 475 m 1,39,-1
 407 423 l 1,40,41
 371 414 371 414 353.5 392 c 128,-1,42
 336 370 336 370 336 327 c 0,43,44
 336 268 336 268 368 235 c 128,-1,45
 400 202 400 202 457 202 c 0,46,47
 547 202 547 202 644 306 c 1,48,-1
 648 475 l 1,39,-1
EndSplineSet
Substitution2: "'ss02' Style Set 2 lookup 36 subtable" left
Substitution2: "'case' Case-Sensitive Forms lookup 28 subtable" A
Substitution2: "'ordn' Ordinals lookup 22 subtable" a.sups
Substitution2: "'sups' Superscript lookup 16 subtable" a.sups
AlternateSubs2: "'aalt' Access All Alternates lookup 1 subtable" a.sups A left
EndChar

StartChar: b
Encoding: 98 98 69
Width: 1186
GlyphClass: 2
Flags: W
LayerCount: 2
Fore
SplineSet
707 1071 m 1,0,1
 907 1071 907 1071 1014 936 c 128,-1,2
 1121 801 1121 801 1121 559 c 0,3,4
 1121 280 1121 280 981.5 129 c 128,-1,5
 842 -22 842 -22 598 -22 c 0,6,7
 480 -22 480 -22 343 30 c 1,8,-1
 182 -28 l 1,9,-1
 145 2 l 1,10,-1
 163 434 l 1,11,-1
 148 1573 l 1,12,-1
 451 1596 l 1,13,-1
 441 907 l 1,14,-1
 453 907 l 1,15,16
 520 969 520 969 578 1006.5 c 128,-1,17
 636 1044 636 1044 707 1071 c 1,0,1
596 175 m 0,18,19
 712 175 712 175 775.5 258.5 c 128,-1,20
 839 342 839 342 837 516 c 0,21,22
 835 667 835 667 783.5 747 c 128,-1,23
 732 827 732 827 634 827 c 0,24,25
 540 827 540 827 438 731 c 1,26,-1
 434 473 l 1,27,-1
 438 216 l 1,28,29
 522 175 522 175 596 175 c 0,18,19
EndSplineSet
Substitution2: "'ss02' Style Set 2 lookup 36 subtable" up
Substitution2: "'case' Case-Sensitive Forms lookup 28 subtable" B
Substitution2: "'ordn' Ordinals lookup 22 subtable" b.sups
Substitution2: "'sups' Superscript lookup 16 subtable" b.sups
AlternateSubs2: "'aalt' Access All Alternates lookup 1 subtable" b.sups B up
EndChar

StartChar: c
Encoding: 99 99 70
Width: 874
GlyphClass: 2
Flags: W
AnchorPoint: "Anchor-1" 509 0 basechar 0
AnchorPoint: "Anchor-0" 546 1056 basechar 0
LayerCount: 2
Fore
SplineSet
573 1078 m 0,0,1
 732 1078 732 1078 852 1021 c 1,2,-1
 803 779 l 1,3,-1
 777 768 l 1,4,5
 661 832 661 832 571 832 c 0,6,7
 466 832 466 832 409 757 c 128,-1,8
 352 682 352 682 352 543 c 0,9,10
 352 385 352 385 413 300.5 c 128,-1,11
 474 216 474 216 588 216 c 0,12,13
 692 216 692 216 816 273 c 1,14,-1
 839 254 l 1,15,-1
 809 20 l 1,16,17
 678 -22 678 -22 529 -22 c 0,18,19
 311 -22 311 -22 188 120 c 128,-1,20
 65 262 65 262 65 516 c 0,21,22
 65 779 65 779 199.5 928.5 c 128,-1,23
 334 1078 334 1078 573 1078 c 0,0,1
EndSplineSet
Substitution2: "Single Substitution lookup 41 subtable" C.ss01
Substitution2: "'ss02' Style Set 2 lookup 36 subtable" right
Substitution2: "'ss01' Style Set 1 lookup 35 subtable" C.ss01
Substitution2: "'case' Case-Sensitive Forms lookup 28 subtable" C
Substitution2: "'ordn' Ordinals lookup 22 subtable" c.sups
Substitution2: "'sups' Superscript lookup 16 subtable" c.sups
AlternateSubs2: "'aalt' Access All Alternates lookup 1 subtable" c.sups C C.ss01 right
EndChar

StartChar: d
Encoding: 100 100 71
Width: 1193
GlyphClass: 2
Flags: W
LayerCount: 2
Fore
SplineSet
1019 466 m 1,0,-1
 1023 275 l 1,1,2
 1025 237 1025 237 1035.5 221.5 c 128,-1,3
 1046 206 1046 206 1073 206 c 0,4,5
 1089 206 1089 206 1134 216 c 1,6,-1
 1154 198 l 1,7,-1
 1128 39 l 1,8,9
 1056 -8 1056 -8 961 -18 c 1,10,11
 891 -11 891 -11 843.5 30 c 128,-1,12
 796 71 796 71 777 141 c 1,13,-1
 759 141 l 1,14,15
 699 87 699 87 647 50.5 c 128,-1,16
 595 14 595 14 532 -16 c 1,17,18
 307 -16 307 -16 185 126 c 128,-1,19
 63 268 63 268 63 521 c 0,20,21
 63 788 63 788 205 932 c 128,-1,22
 347 1076 347 1076 596 1076 c 0,23,24
 657 1076 657 1076 741 1061 c 1,25,-1
 737 1573 l 1,26,-1
 1037 1596 l 1,27,-1
 1019 466 l 1,0,-1
575 870 m 0,28,29
 342 870 342 870 345 566 c 1,30,31
 352 221 352 221 562 221 c 0,32,33
 659 221 659 221 746 314 c 1,34,-1
 750 438 l 1,35,-1
 744 830 l 1,36,37
 659 870 659 870 575 870 c 0,28,29
EndSplineSet
Substitution2: "Single Substitution lookup 41 subtable" D.ss01
Substitution2: "'ss02' Style Set 2 lookup 36 subtable" down
Substitution2: "'ss01' Style Set 1 lookup 35 subtable" D.ss01
Substitution2: "'case' Case-Sensitive Forms lookup 28 subtable" D
Substitution2: "'ordn' Ordinals lookup 22 subtable" d.sups
Substitution2: "'sups' Superscript lookup 16 subtable" d.sups
AlternateSubs2: "'aalt' Access All Alternates lookup 1 subtable" d.sups D D.ss01 down
EndChar

StartChar: e
Encoding: 101 101 72
Width: 1070
GlyphClass: 2
Flags: W
AnchorPoint: "Anchor-1" 268 0 basechar 0
AnchorPoint: "Anchor-0" 566 1054 basechar 0
LayerCount: 2
Fore
SplineSet
948 491 m 1,0,-1
 345 488 l 1,1,2
 354 346 354 346 422.5 274 c 128,-1,3
 491 202 491 202 627 202 c 0,4,5
 695 202 695 202 775.5 223 c 128,-1,6
 856 244 856 244 932 284 c 1,7,-1
 957 269 l 1,8,-1
 916 46 l 1,9,10
 758 -22 758 -22 598 -22 c 0,11,12
 347 -22 347 -22 206 123 c 128,-1,13
 65 268 65 268 65 523 c 0,14,15
 65 780 65 780 206.5 928 c 128,-1,16
 348 1076 348 1076 588 1076 c 0,17,18
 786 1076 786 1076 893 965.5 c 128,-1,19
 1000 855 1000 855 1000 659 c 0,20,21
 1000 598 1000 598 991 534 c 1,22,-1
 948 491 l 1,0,-1
735 666 m 1,23,-1
 739 694 l 1,24,25
 739 786 739 786 696.5 832 c 128,-1,26
 654 878 654 878 577 878 c 0,27,28
 489 878 489 878 431 820 c 128,-1,29
 373 762 373 762 352 655 c 1,30,-1
 735 666 l 1,23,-1
EndSplineSet
Substitution2: "'ss02' Style Set 2 lookup 36 subtable" square1
Substitution2: "'case' Case-Sensitive Forms lookup 28 subtable" E
Substitution2: "'ordn' Ordinals lookup 22 subtable" e.sups
Substitution2: "'sups' Superscript lookup 16 subtable" e.sups
AlternateSubs2: "'aalt' Access All Alternates lookup 1 subtable" e.sups E square1
EndChar

StartChar: f
Encoding: 102 102 73
Width: 747
GlyphClass: 2
Flags: W
LayerCount: 2
Fore
SplineSet
689 1601 m 0,0,1
 776 1601 776 1601 887 1580 c 1,2,-1
 866 1355 l 1,3,-1
 846 1341 l 1,4,5
 740 1386 740 1386 659 1386 c 0,6,7
 519 1386 519 1386 516 1225 c 1,8,-1
 514 1048 l 1,9,-1
 770 1048 l 1,10,-1
 779 1032 l 1,11,-1
 766 866 l 1,12,-1
 509 866 l 1,13,-1
 503 466 l 1,14,-1
 518 0 l 1,15,-1
 216 0 l 1,16,-1
 234 438 l 1,17,-1
 230 866 l 1,18,-1
 70 866 l 1,19,-1
 59 882 l 1,20,-1
 75 1048 l 1,21,-1
 228 1048 l 1,22,-1
 225 1173 l 1,23,24
 225 1379 225 1379 346.5 1490 c 128,-1,25
 468 1601 468 1601 689 1601 c 0,0,1
EndSplineSet
Substitution2: "Single Substitution lookup 41 subtable" f.t
Substitution2: "Single Substitution lookup 40 subtable" f.l
Substitution2: "Single Substitution lookup 39 subtable" f.f
Substitution2: "'ss02' Style Set 2 lookup 36 subtable" square2
Substitution2: "'case' Case-Sensitive Forms lookup 28 subtable" F
Substitution2: "'ordn' Ordinals lookup 22 subtable" f.sups
Substitution2: "'sups' Superscript lookup 16 subtable" f.sups
AlternateSubs2: "'aalt' Access All Alternates lookup 1 subtable" f.sups F square2
EndChar

StartChar: g
Encoding: 103 103 74
Width: 1136
GlyphClass: 2
Flags: W
AnchorPoint: "Anchor-1" 0 0 basechar 0
AnchorPoint: "Anchor-0" 574 1036 basechar 0
LayerCount: 2
Fore
SplineSet
1154 1102 m 1,0,-1
 1154 914 l 1,1,2
 1093 897 1093 897 980 880 c 1,3,-1
 976 870 l 1,4,5
 1009 802 1009 802 1009 718 c 0,6,7
 1009 547 1009 547 886 446 c 128,-1,8
 763 345 763 345 551 345 c 0,9,10
 494 345 494 345 418 357 c 1,11,12
 399 338 399 338 391.5 325 c 128,-1,13
 384 312 384 312 384 297 c 0,14,15
 384 273 384 273 407 257 c 128,-1,16
 430 241 430 241 469 232.5 c 128,-1,17
 508 224 508 224 558 217.5 c 128,-1,18
 608 211 608 211 663.5 203.5 c 128,-1,19
 719 196 719 196 774.5 186 c 128,-1,20
 830 176 830 176 880.5 156 c 128,-1,21
 931 136 931 136 970 108.5 c 128,-1,22
 1009 81 1009 81 1031.5 35 c 128,-1,23
 1054 -11 1054 -11 1054 -70 c 0,24,25
 1054 -177 1054 -177 988 -262 c 128,-1,26
 922 -347 922 -347 803 -395 c 128,-1,27
 684 -443 684 -443 534 -443 c 0,28,29
 328 -443 328 -443 216 -359 c 128,-1,30
 104 -275 104 -275 104 -137 c 1,31,32
 176 -36 176 -36 293 34 c 1,33,-1
 293 46 l 1,34,35
 215 74 215 74 172.5 122.5 c 128,-1,36
 130 171 130 171 130 252 c 1,37,38
 191 326 191 326 284 391 c 1,39,-1
 284 402 l 1,40,41
 203 446 203 446 160.5 521 c 128,-1,42
 118 596 118 596 118 696 c 0,43,44
 118 872 118 872 241 972.5 c 128,-1,45
 364 1073 364 1073 575 1073 c 0,46,47
 700 1073 700 1073 798 1032 c 1,48,49
 962 1061 962 1061 1132 1123 c 1,50,-1
 1154 1102 l 1,0,-1
559 527 m 0,51,52
 652 527 652 527 700 574.5 c 128,-1,53
 748 622 748 622 748 714 c 0,54,55
 748 801 748 801 704.5 844 c 128,-1,56
 661 887 661 887 571 887 c 0,57,58
 380 887 380 887 380 712 c 0,59,60
 380 621 380 621 425.5 574 c 128,-1,61
 471 527 471 527 559 527 c 0,51,52
800 -125 m 0,62,63
 800 -103 800 -103 791 -86 c 128,-1,64
 782 -69 782 -69 761.5 -56.5 c 128,-1,65
 741 -44 741 -44 720 -36 c 128,-1,66
 699 -28 699 -28 663.5 -21 c 128,-1,67
 628 -14 628 -14 602 -10.5 c 128,-1,68
 576 -7 576 -7 531 -1 c 128,-1,69
 486 5 486 5 460 9 c 1,70,71
 404 -29 404 -29 377 -63 c 128,-1,72
 350 -97 350 -97 350 -134 c 0,73,74
 350 -195 350 -195 405 -230.5 c 128,-1,75
 460 -266 460 -266 564 -266 c 0,76,77
 671 -266 671 -266 735.5 -229 c 128,-1,78
 800 -192 800 -192 800 -125 c 0,62,63
EndSplineSet
Substitution2: "'ss02' Style Set 2 lookup 36 subtable" circle1
Substitution2: "'case' Case-Sensitive Forms lookup 28 subtable" G
Substitution2: "'ordn' Ordinals lookup 22 subtable" g.sups
Substitution2: "'sups' Superscript lookup 16 subtable" g.sups
AlternateSubs2: "'aalt' Access All Alternates lookup 1 subtable" g.sups G circle1
EndChar

StartChar: h
Encoding: 104 104 75
Width: 1206
GlyphClass: 2
Flags: W
AnchorPoint: "Anchor-1" 297 0 basechar 0
AnchorPoint: "Anchor-0" 295 1484 basechar 0
LayerCount: 2
Fore
SplineSet
779 0 m 1,0,-1
 798 659 l 2,1,2
 800 740 800 740 763 783.5 c 128,-1,3
 726 827 726 827 655 827 c 0,4,5
 553 827 553 827 438 731 c 1,6,-1
 434 466 l 1,7,-1
 451 0 l 1,8,-1
 148 0 l 1,9,-1
 163 438 l 1,10,-1
 150 1573 l 1,11,-1
 453 1596 l 1,12,-1
 441 907 l 1,13,-1
 455 907 l 1,14,15
 579 1021 579 1021 727 1071 c 1,16,17
 900 1071 900 1071 990.5 992 c 128,-1,18
 1081 913 1081 913 1078 766 c 2,19,-1
 1071 464 l 1,20,-1
 1084 0 l 1,21,-1
 779 0 l 1,0,-1
EndSplineSet
Substitution2: "'ss02' Style Set 2 lookup 36 subtable" circle2
Substitution2: "'case' Case-Sensitive Forms lookup 28 subtable" H
Substitution2: "'ordn' Ordinals lookup 22 subtable" h.sups
Substitution2: "'sups' Superscript lookup 16 subtable" h.sups
AlternateSubs2: "'aalt' Access All Alternates lookup 1 subtable" h.sups H circle2
EndChar

StartChar: i
Encoding: 105 105 76
Width: 577
GlyphClass: 2
Flags: W
AnchorPoint: "Anchor-1" 0 0 basechar 0
AnchorPoint: "Anchor-0" 293 1056 basechar 0
LayerCount: 2
Fore
SplineSet
300 1575 m 0,0,1
 371 1575 371 1575 411 1534.5 c 128,-1,2
 451 1494 451 1494 451 1421 c 0,3,4
 451 1344 451 1344 407 1298 c 128,-1,5
 363 1252 363 1252 288.5 1252 c 128,-1,6
 214 1252 214 1252 174 1293 c 128,-1,7
 134 1334 134 1334 134 1409.5 c 128,-1,8
 134 1485 134 1485 179 1530 c 128,-1,9
 224 1575 224 1575 300 1575 c 0,0,1
423 466 m 1,10,-1
 438 0 l 1,11,-1
 137 0 l 1,12,-1
 152 436 l 1,13,-1
 139 1037 l 1,14,-1
 441 1061 l 1,15,-1
 423 466 l 1,10,-1
EndSplineSet
Substitution2: "Single Substitution lookup 41 subtable" I.ss01
Substitution2: "'ss01' Style Set 1 lookup 35 subtable" I.ss01
Substitution2: "'case' Case-Sensitive Forms lookup 28 subtable" I
Substitution2: "'ordn' Ordinals lookup 22 subtable" i.sups
Substitution2: "'sups' Superscript lookup 16 subtable" i.sups
Substitution2: "'locl' Localized Forms in Latin lookup 9 subtable" idotaccent
Substitution2: "'locl' Localized Forms in Latin lookup 8 subtable" idotaccent
Substitution2: "'locl' Localized Forms in Latin lookup 7 subtable" idotaccent
Substitution2: "'locl' Localized Forms in Latin lookup 6 subtable" idotaccent
Substitution2: "'locl' Localized Forms in Latin lookup 5 subtable" idotaccent
AlternateSubs2: "'aalt' Access All Alternates lookup 1 subtable" idotaccent i.sups I I.ss01
EndChar

StartChar: j
Encoding: 106 106 77
Width: 647
GlyphClass: 2
Flags: W
AnchorPoint: "Anchor-1" 0 0 basechar 0
AnchorPoint: "Anchor-0" 318 1056 basechar 0
LayerCount: 2
Fore
SplineSet
325 1575 m 0,0,1
 397 1575 397 1575 436 1534.5 c 128,-1,2
 475 1494 475 1494 475 1421 c 0,3,4
 475 1344 475 1344 432 1298 c 128,-1,5
 389 1252 389 1252 314 1252 c 128,-1,6
 239 1252 239 1252 199 1293.5 c 128,-1,7
 159 1335 159 1335 159 1410 c 128,-1,8
 159 1485 159 1485 204 1530 c 128,-1,9
 249 1575 249 1575 325 1575 c 0,0,1
501 1057 m 1,10,-1
 482 466 l 1,11,-1
 495 61 l 1,12,13
 495 -119 495 -119 408.5 -237 c 128,-1,14
 322 -355 322 -355 125 -443 c 1,15,-1
 18 -310 l 1,16,-1
 18 -282 l 1,17,18
 122 -224 122 -224 165.5 -147.5 c 128,-1,19
 209 -71 209 -71 209 52 c 2,20,-1
 211 436 l 1,21,-1
 202 866 l 1,22,-1
 20 866 l 1,23,-1
 2 885 l 1,24,-1
 16 1048 l 1,25,-1
 209 1048 l 1,26,-1
 491 1063 l 1,27,-1
 501 1057 l 1,10,-1
EndSplineSet
Substitution2: "'case' Case-Sensitive Forms lookup 28 subtable" J
Substitution2: "'ordn' Ordinals lookup 22 subtable" j.sups
Substitution2: "'sups' Superscript lookup 16 subtable" j.sups
AlternateSubs2: "'aalt' Access All Alternates lookup 1 subtable" j.sups J
EndChar

StartChar: k
Encoding: 107 107 78
Width: 1124
GlyphClass: 2
Flags: W
AnchorPoint: "Anchor-1" 602 0 basechar 0
AnchorPoint: "Anchor-0" 297 1546 basechar 0
LayerCount: 2
Fore
SplineSet
434 466 m 1,0,-1
 451 0 l 1,1,-1
 148 0 l 1,2,-1
 163 438 l 1,3,-1
 150 1573 l 1,4,-1
 453 1596 l 1,5,-1
 434 466 l 1,0,-1
1087 1057 m 1,6,-1
 741 579 l 1,7,8
 857 397 857 397 1109 50 c 1,9,-1
 1109 18 l 1,10,11
 1032 2 1032 2 827 -22 c 1,12,-1
 796 -9 l 1,13,14
 587 288 587 288 451 553 c 1,15,-1
 451 573 l 1,16,-1
 714 948 l 1,17,-1
 768 1057 l 1,18,-1
 1087 1057 l 1,6,-1
EndSplineSet
Substitution2: "'case' Case-Sensitive Forms lookup 28 subtable" K
Substitution2: "'ordn' Ordinals lookup 22 subtable" k.sups
Substitution2: "'sups' Superscript lookup 16 subtable" k.sups
AlternateSubs2: "'aalt' Access All Alternates lookup 1 subtable" k.sups K
EndChar

StartChar: l
Encoding: 108 108 79
Width: 597
GlyphClass: 2
Flags: W
AnchorPoint: "Anchor-1" 297 0 basechar 0
AnchorPoint: "Anchor-0" 297 1546 basechar 0
LayerCount: 2
Fore
SplineSet
434 466 m 1,0,-1
 451 0 l 1,1,-1
 148 0 l 1,2,-1
 163 438 l 1,3,-1
 150 1573 l 1,4,-1
 453 1596 l 1,5,-1
 434 466 l 1,0,-1
EndSplineSet
Substitution2: "Single Substitution lookup 41 subtable" L.ss01
Substitution2: "'ss01' Style Set 1 lookup 35 subtable" L.ss01
Substitution2: "'case' Case-Sensitive Forms lookup 28 subtable" L
Substitution2: "'ordn' Ordinals lookup 22 subtable" l.sups
Substitution2: "'sups' Superscript lookup 16 subtable" l.sups
AlternateSubs2: "'aalt' Access All Alternates lookup 1 subtable" l.sups L L.ss01
EndChar

StartChar: m
Encoding: 109 109 80
Width: 1827
GlyphClass: 2
Flags: W
LayerCount: 2
Fore
SplineSet
1403 0 m 1,0,-1
 1419 659 l 2,1,2
 1420 741 1420 741 1384.5 784 c 128,-1,3
 1349 827 1349 827 1278 827 c 0,4,5
 1176 827 1176 827 1061 735 c 1,6,-1
 1057 464 l 1,7,-1
 1069 0 l 1,8,-1
 768 0 l 1,9,-1
 787 659 l 1,10,11
 787 827 787 827 642 827 c 0,12,13
 541 827 541 827 423 731 c 1,14,-1
 423 466 l 1,15,-1
 436 0 l 1,16,-1
 137 0 l 1,17,-1
 152 436 l 1,18,-1
 139 1037 l 1,19,-1
 425 1061 l 1,20,-1
 425 907 l 1,21,-1
 438 907 l 1,22,23
 568 1023 568 1023 714 1071 c 1,24,25
 971 1071 971 1071 1041 900 c 1,26,-1
 1052 900 l 1,27,28
 1185 1020 1185 1020 1348 1071 c 1,29,30
 1521 1071 1521 1071 1610.5 992 c 128,-1,31
 1700 913 1700 913 1698 766 c 2,32,-1
 1692 464 l 1,33,-1
 1703 0 l 1,34,-1
 1403 0 l 1,0,-1
EndSplineSet
Substitution2: "Single Substitution lookup 41 subtable" M.ss01
Substitution2: "'ss01' Style Set 1 lookup 35 subtable" M.ss01
Substitution2: "'case' Case-Sensitive Forms lookup 28 subtable" M
Substitution2: "'ordn' Ordinals lookup 22 subtable" m.sups
Substitution2: "'sups' Superscript lookup 16 subtable" m.sups
AlternateSubs2: "'aalt' Access All Alternates lookup 1 subtable" m.sups M M.ss01
EndChar

StartChar: n
Encoding: 110 110 81
Width: 1197
GlyphClass: 2
Flags: W
AnchorPoint: "Anchor-1" 609 0 basechar 0
AnchorPoint: "Anchor-0" 636 1056 basechar 0
LayerCount: 2
Fore
SplineSet
768 0 m 1,0,-1
 787 659 l 1,1,2
 787 740 787 740 751 783.5 c 128,-1,3
 715 827 715 827 644 827 c 0,4,5
 542 827 542 827 425 729 c 1,6,-1
 425 466 l 1,7,-1
 438 0 l 1,8,-1
 137 0 l 1,9,-1
 152 436 l 1,10,-1
 139 1037 l 1,11,-1
 427 1061 l 1,12,-1
 427 907 l 1,13,-1
 441 907 l 1,14,15
 570 1023 570 1023 716 1071 c 1,16,17
 889 1071 889 1071 978.5 992 c 128,-1,18
 1068 913 1068 913 1067 766 c 1,19,-1
 1059 464 l 1,20,-1
 1071 0 l 1,21,-1
 768 0 l 1,0,-1
EndSplineSet
Substitution2: "'case' Case-Sensitive Forms lookup 28 subtable" N
Substitution2: "'ordn' Ordinals lookup 22 subtable" n.sups
Substitution2: "'sups' Superscript lookup 16 subtable" n.sups
AlternateSubs2: "'aalt' Access All Alternates lookup 1 subtable" n.sups N
EndChar

StartChar: o
Encoding: 111 111 82
Width: 1122
GlyphClass: 2
Flags: W
AnchorPoint: "Anchor-1" 0 0 basechar 0
AnchorPoint: "Anchor-0" 563 1056 basechar 0
LayerCount: 2
Fore
SplineSet
577 1078 m 0,0,1
 809 1078 809 1078 931.5 942 c 128,-1,2
 1054 806 1054 806 1054 548 c 0,3,4
 1054 272 1054 272 922.5 125 c 128,-1,5
 791 -22 791 -22 543 -22 c 0,6,7
 311 -22 311 -22 188 114.5 c 128,-1,8
 65 251 65 251 65 507 c 0,9,10
 65 784 65 784 197 931 c 128,-1,11
 329 1078 329 1078 577 1078 c 0,0,1
557 872 m 0,12,13
 448 872 448 872 399 800 c 128,-1,14
 350 728 350 728 350 566 c 0,15,16
 350 357 350 357 400 268.5 c 128,-1,17
 450 180 450 180 564 180 c 0,18,19
 672 180 672 180 721 251 c 128,-1,20
 770 322 770 322 770 486 c 0,21,22
 770 692 770 692 719.5 782 c 128,-1,23
 669 872 669 872 557 872 c 0,12,13
EndSplineSet
Substitution2: "'case' Case-Sensitive Forms lookup 28 subtable" O
Substitution2: "'ordn' Ordinals lookup 22 subtable" o.sups
Substitution2: "'sups' Superscript lookup 16 subtable" o.sups
AlternateSubs2: "'aalt' Access All Alternates lookup 1 subtable" o.sups O
EndChar

StartChar: p
Encoding: 112 112 83
Width: 1169
GlyphClass: 2
Flags: W
LayerCount: 2
Fore
SplineSet
694 1071 m 1,0,1
 894 1071 894 1071 1000.5 936 c 128,-1,2
 1107 801 1107 801 1107 557 c 0,3,4
 1107 279 1107 279 967.5 128.5 c 128,-1,5
 828 -22 828 -22 579 -22 c 0,6,7
 506 -22 506 -22 427 -9 c 1,8,-1
 434 -421 l 1,9,-1
 137 -421 l 1,10,-1
 150 436 l 1,11,-1
 137 1037 l 1,12,-1
 425 1061 l 1,13,-1
 423 907 l 1,14,-1
 438 907 l 1,15,16
 502 968 502 968 561.5 1005.5 c 128,-1,17
 621 1043 621 1043 694 1071 c 1,0,1
582 175 m 0,18,19
 697 175 697 175 760.5 258.5 c 128,-1,20
 824 342 824 342 823 516 c 1,21,22
 821 668 821 668 770.5 747.5 c 128,-1,23
 720 827 720 827 620 827 c 0,24,25
 572 827 572 827 525 803.5 c 128,-1,26
 478 780 478 780 423 729 c 1,27,-1
 421 466 l 1,28,-1
 425 209 l 1,29,30
 507 175 507 175 582 175 c 0,18,19
EndSplineSet
Substitution2: "'case' Case-Sensitive Forms lookup 28 subtable" P
Substitution2: "'ordn' Ordinals lookup 22 subtable" p.sups
Substitution2: "'sups' Superscript lookup 16 subtable" p.sups
AlternateSubs2: "'aalt' Access All Alternates lookup 1 subtable" p.sups P
EndChar

StartChar: q
Encoding: 113 113 84
Width: 1169
GlyphClass: 2
Flags: W
LayerCount: 2
Fore
SplineSet
1011 1076 m 1,0,-1
 1037 1061 l 1,1,-1
 1019 466 l 1,2,-1
 1035 -421 l 1,3,-1
 735 -421 l 1,4,-1
 748 57 l 1,5,-1
 748 113 l 1,6,-1
 729 113 l 1,7,8
 639 35 639 35 525 -16 c 1,9,10
 304 -16 304 -16 183.5 126 c 128,-1,11
 63 268 63 268 63 516 c 0,12,13
 63 652 63 652 100.5 758.5 c 128,-1,14
 138 865 138 865 206.5 934.5 c 128,-1,15
 275 1004 275 1004 370 1040 c 128,-1,16
 465 1076 465 1076 582 1076 c 0,17,18
 707 1076 707 1076 855 1026 c 1,19,-1
 1011 1076 l 1,0,-1
573 870 m 0,20,21
 342 870 342 870 345 555 c 1,22,23
 349 392 349 392 403.5 306.5 c 128,-1,24
 458 221 458 221 557 221 c 0,25,26
 655 221 655 221 748 314 c 1,27,-1
 750 434 l 1,28,-1
 744 823 l 1,29,30
 653 870 653 870 573 870 c 0,20,21
EndSplineSet
Substitution2: "'case' Case-Sensitive Forms lookup 28 subtable" Q
Substitution2: "'ordn' Ordinals lookup 22 subtable" q.sups
Substitution2: "'sups' Superscript lookup 16 subtable" q.sups
AlternateSubs2: "'aalt' Access All Alternates lookup 1 subtable" q.sups Q
EndChar

StartChar: r
Encoding: 114 114 85
Width: 785
GlyphClass: 2
Flags: W
AnchorPoint: "Anchor-1" 286 0 basechar 0
AnchorPoint: "Anchor-0" 459 1056 basechar 0
LayerCount: 2
Fore
SplineSet
720 1059 m 0,0,1
 739 1059 739 1059 775 1054 c 1,2,-1
 775 775 l 1,3,-1
 746 764 l 1,4,5
 704 779 704 779 662 779 c 0,6,7
 530 779 530 779 423 612 c 1,8,-1
 423 466 l 1,9,-1
 438 0 l 1,10,-1
 137 0 l 1,11,-1
 152 436 l 1,12,-1
 139 1037 l 1,13,-1
 427 1061 l 1,14,-1
 425 855 l 1,15,-1
 441 855 l 1,16,17
 498 960 498 960 570 1009.5 c 128,-1,18
 642 1059 642 1059 720 1059 c 0,0,1
EndSplineSet
Substitution2: "'case' Case-Sensitive Forms lookup 28 subtable" R
Substitution2: "'ordn' Ordinals lookup 22 subtable" r.sups
Substitution2: "'sups' Superscript lookup 16 subtable" r.sups
AlternateSubs2: "'aalt' Access All Alternates lookup 1 subtable" r.sups R
EndChar

StartChar: s
Encoding: 115 115 86
Width: 872
GlyphClass: 2
Flags: W
AnchorPoint: "Anchor-1" 422 0 basechar 0
AnchorPoint: "Anchor-0" 438 1056 basechar 0
LayerCount: 2
Fore
SplineSet
493 1076 m 0,0,1
 650 1076 650 1076 785 1023 c 1,2,-1
 744 800 l 1,3,-1
 707 789 l 1,4,5
 640 832 640 832 575 855 c 128,-1,6
 510 878 510 878 460 878 c 0,7,8
 404 878 404 878 372.5 848.5 c 128,-1,9
 341 819 341 819 341 779 c 0,10,11
 341 749 341 749 361 724.5 c 128,-1,12
 381 700 381 700 414 683 c 128,-1,13
 447 666 447 666 489 647.5 c 128,-1,14
 531 629 531 629 575 611.5 c 128,-1,15
 619 594 619 594 661 567.5 c 128,-1,16
 703 541 703 541 736 509.5 c 128,-1,17
 769 478 769 478 789 430 c 128,-1,18
 809 382 809 382 809 323 c 0,19,20
 809 255 809 255 783.5 194.5 c 128,-1,21
 758 134 758 134 707.5 85 c 128,-1,22
 657 36 657 36 574 7 c 128,-1,23
 491 -22 491 -22 386 -22 c 0,24,25
 219 -22 219 -22 48 46 c 1,26,-1
 82 282 l 1,27,-1
 111 300 l 1,28,29
 182 240 182 240 268.5 205.5 c 128,-1,30
 355 171 355 171 421 171 c 0,31,32
 481 171 481 171 516 201.5 c 128,-1,33
 551 232 551 232 551 275 c 0,34,35
 551 305 551 305 530.5 330 c 128,-1,36
 510 355 510 355 477 371.5 c 128,-1,37
 444 388 444 388 401.5 407.5 c 128,-1,38
 359 427 359 427 315 444.5 c 128,-1,39
 271 462 271 462 229 489.5 c 128,-1,40
 187 517 187 517 153.5 549 c 128,-1,41
 120 581 120 581 100 630 c 128,-1,42
 80 679 80 679 80 739 c 0,43,44
 80 887 80 887 190.5 981.5 c 128,-1,45
 301 1076 301 1076 493 1076 c 0,0,1
EndSplineSet
Substitution2: "'case' Case-Sensitive Forms lookup 28 subtable" S
Substitution2: "'ordn' Ordinals lookup 22 subtable" s.sups
Substitution2: "'sups' Superscript lookup 16 subtable" s.sups
AlternateSubs2: "'aalt' Access All Alternates lookup 1 subtable" s.sups S
EndChar

StartChar: t
Encoding: 116 116 87
Width: 768
GlyphClass: 2
Flags: W
AnchorPoint: "Anchor-1" 422 0 basechar 0
AnchorPoint: "Anchor-0" 0 0 basechar 0
LayerCount: 2
Fore
SplineSet
566 223 m 0,0,1
 639 223 639 223 718 262 c 1,2,-1
 744 239 l 1,3,-1
 714 59 l 1,4,5
 599 0 599 0 477 -13 c 1,6,7
 171 17 171 17 171 286 c 1,8,-1
 182 475 l 1,9,-1
 180 866 l 1,10,-1
 39 866 l 1,11,-1
 28 882 l 1,12,-1
 43 1048 l 1,13,-1
 178 1048 l 1,14,-1
 178 1223 l 1,15,-1
 453 1312 l 1,16,-1
 473 1293 l 1,17,-1
 466 1048 l 1,18,-1
 737 1048 l 1,19,-1
 746 1032 l 1,20,-1
 731 866 l 1,21,-1
 462 866 l 1,22,-1
 447 357 l 1,23,24
 447 284 447 284 475 253.5 c 128,-1,25
 503 223 503 223 566 223 c 0,0,1
EndSplineSet
Substitution2: "'case' Case-Sensitive Forms lookup 28 subtable" T
Substitution2: "'ordn' Ordinals lookup 22 subtable" t.sups
Substitution2: "'sups' Superscript lookup 16 subtable" t.sups
AlternateSubs2: "'aalt' Access All Alternates lookup 1 subtable" t.sups T
EndChar

StartChar: u
Encoding: 117 117 88
Width: 1186
GlyphClass: 2
Flags: W
AnchorPoint: "Anchor-1" 0 0 basechar 0
AnchorPoint: "Anchor-0" 588 1056 basechar 0
LayerCount: 2
Fore
SplineSet
1035 1061 m 1,0,-1
 1016 275 l 2,1,2
 1016 238 1016 238 1028 222 c 128,-1,3
 1040 206 1040 206 1069 206 c 0,4,5
 1086 206 1086 206 1128 216 c 1,6,-1
 1150 198 l 1,7,-1
 1123 39 l 1,8,9
 1052 -8 1052 -8 957 -18 c 1,10,11
 887 -11 887 -11 840.5 33 c 128,-1,12
 794 77 794 77 775 152 c 1,13,-1
 753 152 l 1,14,15
 625 28 625 28 486 -13 c 1,16,17
 315 -13 315 -13 224.5 65.5 c 128,-1,18
 134 144 134 144 134 291 c 1,19,-1
 141 559 l 1,20,-1
 130 1037 l 1,21,-1
 423 1061 l 1,22,-1
 414 391 l 1,23,24
 414 230 414 230 551 230 c 0,25,26
 645 230 645 230 748 319 c 1,27,-1
 748 1037 l 1,28,-1
 1035 1061 l 1,0,-1
EndSplineSet
Substitution2: "'case' Case-Sensitive Forms lookup 28 subtable" U
Substitution2: "'ordn' Ordinals lookup 22 subtable" u.sups
Substitution2: "'sups' Superscript lookup 16 subtable" u.sups
AlternateSubs2: "'aalt' Access All Alternates lookup 1 subtable" u.sups U
EndChar

StartChar: v
Encoding: 118 118 89
Width: 1008
GlyphClass: 2
Flags: W
LayerCount: 2
Fore
SplineSet
341 889 m 1,0,-1
 501 284 l 1,1,-1
 516 284 l 1,2,-1
 707 872 l 1,3,-1
 746 1057 l 1,4,-1
 1009 1057 l 1,5,-1
 655 0 l 1,6,-1
 330 0 l 1,7,-1
 30 1050 l 1,8,-1
 312 1063 l 1,9,-1
 341 889 l 1,0,-1
EndSplineSet
Substitution2: "Single Substitution lookup 41 subtable" V.ss01
Substitution2: "'ss01' Style Set 1 lookup 35 subtable" V.ss01
Substitution2: "'case' Case-Sensitive Forms lookup 28 subtable" V
Substitution2: "'ordn' Ordinals lookup 22 subtable" v.sups
Substitution2: "'sups' Superscript lookup 16 subtable" v.sups
AlternateSubs2: "'aalt' Access All Alternates lookup 1 subtable" v.sups V V.ss01
EndChar

StartChar: w
Encoding: 119 119 90
Width: 1586
GlyphClass: 2
Flags: W
AnchorPoint: "Anchor-1" 0 0 basechar 0
AnchorPoint: "Anchor-0" 806 1056 basechar 0
LayerCount: 2
Fore
SplineSet
330 898 m 1,0,-1
 460 304 l 1,1,-1
 477 304 l 1,2,-1
 636 882 l 1,3,-1
 673 1057 l 1,4,-1
 966 1057 l 1,5,-1
 989 898 l 1,6,-1
 1123 306 l 1,7,-1
 1141 306 l 1,8,-1
 1295 882 l 1,9,-1
 1332 1057 l 1,10,-1
 1587 1057 l 1,11,-1
 1258 0 l 1,12,-1
 973 0 l 1,13,-1
 811 679 l 1,14,-1
 791 679 l 1,15,-1
 603 0 l 1,16,-1
 304 0 l 1,17,-1
 30 1050 l 1,18,-1
 304 1063 l 1,19,-1
 330 898 l 1,0,-1
EndSplineSet
Substitution2: "'case' Case-Sensitive Forms lookup 28 subtable" W
Substitution2: "'ordn' Ordinals lookup 22 subtable" w.sups
Substitution2: "'sups' Superscript lookup 16 subtable" w.sups
AlternateSubs2: "'aalt' Access All Alternates lookup 1 subtable" w.sups W
EndChar

StartChar: x
Encoding: 120 120 91
Width: 1047
GlyphClass: 2
Flags: W
LayerCount: 2
Fore
SplineSet
400 939 m 1,0,-1
 546 703 l 1,1,-1
 689 948 l 1,2,-1
 746 1054 l 1,3,-1
 1011 1054 l 1,4,-1
 707 536 l 1,5,-1
 1026 9 l 1,6,-1
 707 -13 l 1,7,-1
 655 121 l 1,8,-1
 505 364 l 1,9,-1
 347 107 l 1,10,-1
 297 0 l 1,11,-1
 32 0 l 1,12,-1
 339 529 l 1,13,-1
 30 1048 l 1,14,-1
 352 1063 l 1,15,-1
 400 939 l 1,0,-1
EndSplineSet
Substitution2: "Single Substitution lookup 41 subtable" X.ss01
Substitution2: "'ss01' Style Set 1 lookup 35 subtable" X.ss01
Substitution2: "'case' Case-Sensitive Forms lookup 28 subtable" X
Substitution2: "'ordn' Ordinals lookup 22 subtable" x.sups
Substitution2: "'sups' Superscript lookup 16 subtable" x.sups
AlternateSubs2: "'aalt' Access All Alternates lookup 1 subtable" x.sups X X.ss01
EndChar

StartChar: y
Encoding: 121 121 92
Width: 1015
GlyphClass: 2
Flags: W
AnchorPoint: "Anchor-1" 0 0 basechar 0
AnchorPoint: "Anchor-0" 518 1056 basechar 0
LayerCount: 2
Fore
SplineSet
323 896 m 1,0,-1
 512 306 l 1,1,-1
 529 306 l 1,2,-1
 714 868 l 1,3,-1
 753 1057 l 1,4,-1
 1013 1057 l 1,5,-1
 670 73 l 2,6,7
 596 -142 596 -142 469.5 -256.5 c 128,-1,8
 343 -371 343 -371 111 -436 c 1,9,-1
 89 -434 l 1,10,11
 9 -361 9 -361 -48 -252 c 1,12,-1
 -37 -221 l 1,13,14
 104 -197 104 -197 204.5 -144.5 c 128,-1,15
 305 -92 305 -92 384 0 c 1,16,-1
 -2 1050 l 1,17,-1
 289 1063 l 1,18,-1
 323 896 l 1,0,-1
EndSplineSet
Substitution2: "'case' Case-Sensitive Forms lookup 28 subtable" Y
Substitution2: "'ordn' Ordinals lookup 22 subtable" y.sups
Substitution2: "'sups' Superscript lookup 16 subtable" y.sups
AlternateSubs2: "'aalt' Access All Alternates lookup 1 subtable" y.sups Y
EndChar

StartChar: z
Encoding: 122 122 93
Width: 963
GlyphClass: 2
Flags: W
AnchorPoint: "Anchor-1" 0 0 basechar 0
AnchorPoint: "Anchor-0" 477 1056 basechar 0
LayerCount: 2
Fore
SplineSet
314 1057 m 1,0,-1
 773 1057 l 1,1,-1
 889 1059 l 1,2,-1
 891 880 l 1,3,-1
 380 193 l 1,4,-1
 700 193 l 1,5,-1
 894 211 l 1,6,-1
 909 191 l 1,7,-1
 889 -4 l 1,8,-1
 625 0 l 1,9,-1
 206 0 l 1,10,-1
 61 -7 l 1,11,-1
 61 171 l 1,12,-1
 577 861 l 1,13,-1
 273 861 l 1,14,-1
 84 846 l 1,15,-1
 65 866 l 1,16,-1
 89 1061 l 1,17,-1
 314 1057 l 1,0,-1
EndSplineSet
Substitution2: "'case' Case-Sensitive Forms lookup 28 subtable" Z
Substitution2: "'ordn' Ordinals lookup 22 subtable" z.sups
Substitution2: "'sups' Superscript lookup 16 subtable" z.sups
AlternateSubs2: "'aalt' Access All Alternates lookup 1 subtable" z.sups Z
EndChar

StartChar: braceleft
Encoding: 123 123 94
Width: 670
GlyphClass: 2
Flags: W
LayerCount: 2
Fore
SplineSet
501 1494 m 0,0,1
 560 1494 560 1494 646 1473 c 1,2,-1
 659 1451 l 1,3,-1
 634 1295 l 1,4,5
 579 1308 579 1308 553 1308 c 0,6,7
 430 1308 430 1308 430 1169 c 0,8,9
 430 1121 430 1121 456 1009 c 128,-1,10
 482 897 482 897 482 850 c 0,11,12
 482 771 482 771 443 711.5 c 128,-1,13
 404 652 404 652 327 616 c 1,14,-1
 327 605 l 1,15,16
 403 571 403 571 442.5 510.5 c 128,-1,17
 482 450 482 450 482 375 c 0,18,19
 482 325 482 325 456 214 c 128,-1,20
 430 103 430 103 430 54 c 0,21,22
 430 -87 430 -87 553 -87 c 0,23,24
 584 -87 584 -87 634 -75 c 1,25,-1
 659 -228 l 1,26,-1
 646 -250 l 1,27,28
 574 -271 574 -271 501 -271 c 0,29,30
 350 -271 350 -271 270.5 -201.5 c 128,-1,31
 191 -132 191 -132 191 -2 c 0,32,33
 191 69 191 69 215 193.5 c 128,-1,34
 239 318 239 318 239 360 c 0,35,36
 239 430 239 430 200.5 474 c 128,-1,37
 162 518 162 518 82 538 c 1,38,-1
 82 682 l 1,39,40
 239 722 239 722 239 861 c 0,41,42
 239 903 239 903 215 1029 c 128,-1,43
 191 1155 191 1155 191 1225 c 0,44,45
 191 1356 191 1356 270.5 1425 c 128,-1,46
 350 1494 350 1494 501 1494 c 0,0,1
EndSplineSet
EndChar

StartChar: bar
Encoding: 124 124 95
Width: 697
GlyphClass: 2
Flags: W
LayerCount: 2
Fore
SplineSet
468 1805 m 1,0,-1
 462 662 l 1,1,-1
 462 -573 l 1,2,-1
 256 -588 l 1,3,-1
 232 -562 l 1,4,-1
 234 638 l 1,5,-1
 236 1809 l 1,6,-1
 445 1826 l 1,7,-1
 468 1805 l 1,0,-1
EndSplineSet
EndChar

StartChar: braceright
Encoding: 125 125 96
Width: 670
GlyphClass: 2
Flags: W
LayerCount: 2
Fore
SplineSet
171 -271 m 0,0,1
 98 -271 98 -271 22 -250 c 1,2,-1
 11 -228 l 1,3,-1
 37 -75 l 1,4,5
 87 -87 87 -87 115 -87 c 0,6,7
 241 -87 241 -87 241 54 c 0,8,9
 241 102 241 102 215 213 c 128,-1,10
 189 324 189 324 189 371 c 0,11,12
 189 450 189 450 228 510.5 c 128,-1,13
 267 571 267 571 343 605 c 1,14,-1
 343 616 l 1,15,16
 267 651 267 651 228 711.5 c 128,-1,17
 189 772 189 772 189 848 c 0,18,19
 189 898 189 898 215 1009 c 128,-1,20
 241 1120 241 1120 241 1169 c 0,21,22
 241 1310 241 1310 115 1310 c 0,23,24
 92 1310 92 1310 37 1298 c 1,25,-1
 11 1451 l 1,26,-1
 22 1473 l 1,27,28
 98 1494 98 1494 171 1494 c 0,29,30
 320 1494 320 1494 398.5 1425 c 128,-1,31
 477 1356 477 1356 477 1225 c 0,32,33
 477 1155 477 1155 453.5 1030 c 128,-1,34
 430 905 430 905 430 861 c 0,35,36
 430 723 430 723 586 682 c 1,37,-1
 586 541 l 1,38,39
 430 496 430 496 430 362 c 0,40,41
 430 319 430 319 453.5 193.5 c 128,-1,42
 477 68 477 68 477 -2 c 0,43,44
 477 -132 477 -132 398.5 -201.5 c 128,-1,45
 320 -271 320 -271 171 -271 c 0,0,1
EndSplineSet
EndChar

StartChar: asciitilde
Encoding: 126 126 97
Width: 1091
GlyphClass: 2
Flags: W
LayerCount: 2
Fore
SplineSet
341 536 m 0,0,1
 319 536 319 536 293 519 c 128,-1,2
 267 502 267 502 248.5 484 c 128,-1,3
 230 466 230 466 193 427 c 1,4,5
 183 415 183 415 178 410 c 1,6,-1
 148 410 l 1,7,-1
 68 509 l 1,8,-1
 68 536 l 1,9,-1
 254 748 l 1,10,-1
 282 759 l 1,11,12
 340 750 340 750 527.5 694 c 128,-1,13
 715 638 715 638 755 638 c 0,14,15
 769 638 769 638 782.5 644 c 128,-1,16
 796 650 796 650 814.5 665 c 128,-1,17
 833 680 833 680 844 690.5 c 128,-1,18
 855 701 855 701 880.5 727.5 c 128,-1,19
 906 754 906 754 918 766 c 1,20,-1
 946 766 l 1,21,-1
 1026 668 l 1,22,-1
 1026 642 l 1,23,-1
 839 430 l 1,24,-1
 811 418 l 1,25,26
 751 427 751 427 564.5 481.5 c 128,-1,27
 378 536 378 536 341 536 c 0,0,1
EndSplineSet
EndChar

StartChar: exclamdown
Encoding: 161 161 99
Width: 599
GlyphClass: 2
Flags: W
LayerCount: 2
Fore
SplineSet
332 759 m 0,0,1
 260 759 260 759 221 799.5 c 128,-1,2
 182 840 182 840 182 914 c 0,3,4
 182 991 182 991 225.5 1036.5 c 128,-1,5
 269 1082 269 1082 343 1082 c 0,6,7
 418 1082 418 1082 458 1041.5 c 128,-1,8
 498 1001 498 1001 498 926 c 0,9,10
 498 850 498 850 453 804.5 c 128,-1,11
 408 759 408 759 332 759 c 0,0,1
139 -412 m 1,12,-1
 221 527 l 1,13,-1
 393 551 l 1,14,-1
 423 521 l 1,15,-1
 441 -397 l 1,16,-1
 414 -432 l 1,17,-1
 175 -447 l 1,18,-1
 139 -412 l 1,12,-1
EndSplineSet
EndChar

StartChar: cent
Encoding: 162 162 100
Width: 870
GlyphClass: 2
Flags: W
LayerCount: 2
Fore
SplineSet
588 304 m 0,0,1
 690 304 690 304 816 362 c 1,2,-1
 839 343 l 1,3,-1
 809 109 l 1,4,5
 713 80 713 80 620 70 c 1,6,-1
 598 -282 l 1,7,-1
 402 -282 l 1,8,-1
 380 -256 l 1,9,-1
 400 82 l 1,10,11
 241 121 241 121 153 257 c 128,-1,12
 65 393 65 393 65 605 c 0,13,14
 65 837 65 837 171 981.5 c 128,-1,15
 277 1126 277 1126 468 1157 c 1,16,-1
 488 1494 l 1,17,-1
 677 1494 l 1,18,-1
 709 1466 l 1,19,-1
 689 1157 l 1,20,21
 779 1143 779 1143 852 1109 c 1,22,-1
 803 868 l 1,23,-1
 777 857 l 1,24,25
 663 920 663 920 571 920 c 0,26,27
 466 920 466 920 409 845.5 c 128,-1,28
 352 771 352 771 352 632 c 0,29,30
 352 473 352 473 413 388.5 c 128,-1,31
 474 304 474 304 588 304 c 0,0,1
EndSplineSet
EndChar

StartChar: sterling
Encoding: 163 163 101
Width: 1013
GlyphClass: 2
Flags: W
LayerCount: 2
Fore
SplineSet
955 204 m 1,0,-1
 935 -7 l 1,1,-1
 648 0 l 1,2,-1
 52 0 l 1,3,-1
 41 16 l 1,4,-1
 54 180 l 1,5,6
 140 201 140 201 180.5 256 c 128,-1,7
 221 311 221 311 221 407 c 2,8,-1
 219 618 l 1,9,-1
 52 618 l 1,10,-1
 41 634 l 1,11,-1
 57 779 l 1,12,-1
 219 779 l 1,13,-1
 216 939 l 1,14,15
 215 1139 215 1139 335 1246 c 128,-1,16
 455 1353 455 1353 675 1353 c 0,17,18
 803 1353 803 1353 937 1316 c 1,19,-1
 918 1100 l 1,20,-1
 900 1087 l 1,21,22
 762 1159 762 1159 653 1159 c 0,23,24
 477 1159 477 1159 477 985 c 1,25,-1
 475 779 l 1,26,-1
 766 779 l 1,27,-1
 775 766 l 1,28,-1
 764 618 l 1,29,-1
 475 618 l 1,30,-1
 473 425 l 2,31,32
 473 348 473 348 452.5 299 c 128,-1,33
 432 250 432 250 386 214 c 1,34,-1
 386 204 l 1,35,-1
 714 204 l 1,36,-1
 944 221 l 1,37,-1
 955 204 l 1,0,-1
EndSplineSet
EndChar

StartChar: currency
Encoding: 164 164 102
Width: 987
GlyphClass: 2
Flags: W
LayerCount: 2
Fore
SplineSet
968 1139 m 1,0,-1
 968 1111 l 1,1,-1
 811 970 l 1,2,3
 861 889 861 889 861 794 c 0,4,5
 861 711 861 711 816 629 c 1,6,-1
 976 495 l 1,7,-1
 978 468 l 1,8,-1
 848 330 l 1,9,-1
 820 332 l 1,10,-1
 682 488 l 1,11,12
 599 434 599 434 505 434 c 0,13,14
 415 434 415 434 339 482 c 1,15,-1
 204 325 l 1,16,-1
 178 323 l 1,17,-1
 39 453 l 1,18,-1
 41 482 l 1,19,-1
 195 618 l 1,20,21
 145 696 145 696 145 794 c 0,22,23
 145 882 145 882 193 961 c 1,24,-1
 37 1096 l 1,25,-1
 32 1123 l 1,26,-1
 161 1260 l 1,27,-1
 189 1260 l 1,28,-1
 332 1102 l 1,29,30
 406 1150 406 1150 505 1150 c 0,31,32
 592 1150 592 1150 666 1107 c 1,33,-1
 803 1264 l 1,34,-1
 832 1269 l 1,35,-1
 968 1139 l 1,0,-1
505 989 m 0,36,37
 419 989 419 989 364.5 934 c 128,-1,38
 310 879 310 879 310 794 c 256,39,40
 310 709 310 709 364.5 655 c 128,-1,41
 419 601 419 601 505 601 c 0,42,43
 590 601 590 601 645 655 c 128,-1,44
 700 709 700 709 700 794 c 256,45,46
 700 879 700 879 645 934 c 128,-1,47
 590 989 590 989 505 989 c 0,36,37
EndSplineSet
EndChar

StartChar: yen
Encoding: 165 165 103
Width: 1195
GlyphClass: 2
Flags: W
LayerCount: 2
Fore
SplineSet
825 562 m 1,0,-1
 727 391 l 1,1,-1
 1137 391 l 1,2,-1
 1150 377 l 1,3,-1
 1139 252 l 1,4,-1
 714 252 l 1,5,-1
 723 0 l 1,6,-1
 464 0 l 1,7,-1
 475 252 l 1,8,-1
 75 252 l 1,9,-1
 63 269 l 1,10,-1
 73 391 l 1,11,-1
 462 391 l 1,12,-1
 373 562 l 1,13,-1
 75 562 l 1,14,-1
 63 579 l 1,15,-1
 73 700 l 1,16,-1
 300 700 l 1,17,-1
 68 1146 l 1,18,-1
 341 1146 l 1,19,-1
 369 1063 l 1,20,-1
 594 642 l 1,21,-1
 612 642 l 1,22,-1
 857 1054 l 1,23,-1
 896 1146 l 1,24,-1
 1162 1146 l 1,25,-1
 905 700 l 1,26,-1
 1137 700 l 1,27,-1
 1150 689 l 1,28,-1
 1139 562 l 1,29,-1
 825 562 l 1,0,-1
EndSplineSet
EndChar

StartChar: brokenbar
Encoding: 166 166 104
Width: 697
GlyphClass: 2
Flags: W
LayerCount: 2
Fore
SplineSet
468 1805 m 1,0,-1
 462 857 l 1,1,-1
 254 832 l 1,2,-1
 234 850 l 1,3,-1
 234 1809 l 1,4,-1
 445 1826 l 1,5,-1
 468 1805 l 1,0,-1
462 336 m 1,6,-1
 462 -573 l 1,7,-1
 256 -588 l 1,8,-1
 232 -562 l 1,9,-1
 234 341 l 1,10,-1
 436 364 l 1,11,-1
 462 336 l 1,6,-1
EndSplineSet
EndChar

StartChar: section
Encoding: 167 167 105
Width: 979
GlyphClass: 2
Flags: W
LayerCount: 2
Fore
SplineSet
712 345 m 1,0,1
 830 250 830 250 830 123 c 0,2,3
 830 54 830 54 798 -9.5 c 128,-1,4
 766 -73 766 -73 710 -120 c 128,-1,5
 654 -167 654 -167 573 -195 c 128,-1,6
 492 -223 492 -223 400 -223 c 0,7,8
 324 -223 324 -223 227.5 -205 c 128,-1,9
 131 -187 131 -187 57 -157 c 1,10,-1
 95 82 l 1,11,-1
 123 100 l 1,12,13
 198 37 198 37 280 1.5 c 128,-1,14
 362 -34 362 -34 432 -34 c 0,15,16
 497 -34 497 -34 535 -2.5 c 128,-1,17
 573 29 573 29 573 70 c 0,18,19
 573 98 573 98 551 124.5 c 128,-1,20
 529 151 529 151 493.5 171.5 c 128,-1,21
 458 192 458 192 413 216.5 c 128,-1,22
 368 241 368 241 320.5 264.5 c 128,-1,23
 273 288 273 288 227.5 321 c 128,-1,24
 182 354 182 354 146.5 390.5 c 128,-1,25
 111 427 111 427 89.5 478 c 128,-1,26
 68 529 68 529 68 588 c 0,27,28
 68 686 68 686 125 773.5 c 128,-1,29
 182 861 182 861 280 914 c 1,30,31
 163 1007 163 1007 163 1134 c 0,32,33
 163 1204 163 1204 195.5 1268 c 128,-1,34
 228 1332 228 1332 284 1379 c 128,-1,35
 340 1426 340 1426 420 1454 c 128,-1,36
 500 1482 500 1482 591 1482 c 0,37,38
 658 1482 658 1482 735 1468.5 c 128,-1,39
 812 1455 812 1455 875 1430 c 1,40,-1
 839 1200 l 1,41,-1
 803 1189 l 1,42,43
 732 1236 732 1236 665.5 1261 c 128,-1,44
 599 1286 599 1286 551 1286 c 0,45,46
 492 1286 492 1286 455 1254 c 128,-1,47
 418 1222 418 1222 418 1182 c 0,48,49
 418 1155 418 1155 440 1129 c 128,-1,50
 462 1103 462 1103 497.5 1082.5 c 128,-1,51
 533 1062 533 1062 579 1038 c 128,-1,52
 625 1014 625 1014 672.5 990.5 c 128,-1,53
 720 967 720 967 765.5 934 c 128,-1,54
 811 901 811 901 846.5 865 c 128,-1,55
 882 829 882 829 904 778 c 128,-1,56
 926 727 926 727 926 668 c 0,57,58
 926 571 926 571 868.5 484.5 c 128,-1,59
 811 398 811 398 712 345 c 1,0,1
323 659 m 0,60,61
 323 640 323 640 330 621 c 128,-1,62
 337 602 337 602 347 587.5 c 128,-1,63
 357 573 357 573 376 556 c 128,-1,64
 395 539 395 539 410.5 527.5 c 128,-1,65
 426 516 426 516 454.5 499.5 c 128,-1,66
 483 483 483 483 500.5 473.5 c 128,-1,67
 518 464 518 464 551 447 c 1,68,69
 668 505 668 505 668 596 c 0,70,71
 668 616 668 616 661.5 634.5 c 128,-1,72
 655 653 655 653 646.5 667.5 c 128,-1,73
 638 682 638 682 619.5 698.5 c 128,-1,74
 601 715 601 715 587 725.5 c 128,-1,75
 573 736 573 736 546.5 752.5 c 128,-1,76
 520 769 520 769 504 777.5 c 128,-1,77
 488 786 488 786 456 803 c 0,78,79
 446 809 446 809 441 811 c 1,80,81
 323 751 323 751 323 659 c 0,60,61
EndSplineSet
EndChar

StartChar: dieresis
Encoding: 168 168 106
Width: 883
GlyphClass: 2
Flags: W
LayerCount: 2
Fore
SplineSet
252 1553 m 0,0,1
 318 1553 318 1553 354.5 1516 c 128,-1,2
 391 1479 391 1479 391 1412 c 0,3,4
 391 1340 391 1340 351 1299 c 128,-1,5
 311 1258 311 1258 241 1258 c 0,6,7
 174 1258 174 1258 138 1295 c 128,-1,8
 102 1332 102 1332 102 1401 c 0,9,10
 102 1471 102 1471 142 1512 c 128,-1,11
 182 1553 182 1553 252 1553 c 0,0,1
646 1553 m 0,12,13
 712 1553 712 1553 748.5 1516 c 128,-1,14
 785 1479 785 1479 785 1412 c 0,15,16
 785 1340 785 1340 744.5 1299 c 128,-1,17
 704 1258 704 1258 634 1258 c 0,18,19
 567 1258 567 1258 531 1295 c 128,-1,20
 495 1332 495 1332 495 1401 c 0,21,22
 495 1471 495 1471 535.5 1512 c 128,-1,23
 576 1553 576 1553 646 1553 c 0,12,13
EndSplineSet
EndChar

StartChar: copyright
Encoding: 169 169 107
Width: 1560
GlyphClass: 2
Flags: W
LayerCount: 2
Fore
SplineSet
779 1360 m 128,-1,1
 931 1360 931 1360 1058.5 1309.5 c 128,-1,2
 1186 1259 1186 1259 1274.5 1169 c 128,-1,3
 1363 1079 1363 1079 1412.5 949.5 c 128,-1,4
 1462 820 1462 820 1462 666 c 128,-1,5
 1462 512 1462 512 1412.5 382.5 c 128,-1,6
 1363 253 1363 253 1274.5 163 c 128,-1,7
 1186 73 1186 73 1058.5 22.5 c 128,-1,8
 931 -28 931 -28 779 -28 c 128,-1,9
 627 -28 627 -28 500 22.5 c 128,-1,10
 373 73 373 73 284.5 163 c 128,-1,11
 196 253 196 253 147 382.5 c 128,-1,12
 98 512 98 512 98 666 c 128,-1,13
 98 820 98 820 147 949.5 c 128,-1,14
 196 1079 196 1079 284.5 1169 c 128,-1,15
 373 1259 373 1259 500 1309.5 c 128,-1,0
 627 1360 627 1360 779 1360 c 128,-1,1
779 1254 m 128,-1,17
 609 1254 609 1254 478.5 1181 c 128,-1,18
 348 1108 348 1108 276 974 c 128,-1,19
 204 840 204 840 204 666 c 128,-1,20
 204 492 204 492 276 358 c 128,-1,21
 348 224 348 224 478.5 151 c 128,-1,22
 609 78 609 78 779 78 c 128,-1,23
 949 78 949 78 1080 151 c 128,-1,24
 1211 224 1211 224 1283 358 c 128,-1,25
 1355 492 1355 492 1355 666 c 128,-1,26
 1355 840 1355 840 1283 974 c 128,-1,27
 1211 1108 1211 1108 1080 1181 c 128,-1,16
 949 1254 949 1254 779 1254 c 128,-1,17
830 1057 m 0,28,29
 929 1057 929 1057 1032 1019 c 1,30,-1
 996 859 l 1,31,-1
 982 850 l 1,32,33
 949 869 949 869 905 880 c 128,-1,34
 861 891 861 891 823 891 c 0,35,36
 734 891 734 891 691 842 c 128,-1,37
 648 793 648 793 648 686 c 0,38,39
 648 570 648 570 693.5 512.5 c 128,-1,40
 739 455 739 455 832 455 c 0,41,42
 916 455 916 455 996 488 c 1,43,-1
 1013 480 l 1,44,-1
 998 321 l 1,45,46
 913 289 913 289 816 289 c 0,47,48
 628 289 628 289 532 385.5 c 128,-1,49
 436 482 436 482 436 666 c 0,50,51
 436 852 436 852 539 954.5 c 128,-1,52
 642 1057 642 1057 830 1057 c 0,28,29
EndSplineSet
EndChar

StartChar: ordfeminine
Encoding: 170 170 108
Width: 772
GlyphClass: 2
Flags: W
AnchorPoint: "Anchor-1" 0 0 basechar 0
AnchorPoint: "Anchor-0" 399 713 basechar 0
LayerCount: 2
Fore
SplineSet
400 1482 m 0,0,1
 527 1482 527 1482 596.5 1427.5 c 128,-1,2
 666 1373 666 1373 666 1273 c 0,3,4
 666 1248 666 1248 659.5 1111 c 128,-1,5
 653 974 653 974 653 957 c 0,6,7
 653 907 653 907 682 907 c 0,8,9
 705 907 705 907 718 916 c 1,10,-1
 735 902 l 1,11,-1
 712 777 l 1,12,13
 662 739 662 739 598 739 c 0,14,15
 539 739 539 739 510 763.5 c 128,-1,16
 481 788 481 788 466 848 c 1,17,-1
 457 848 l 1,18,19
 384 765 384 765 293 737 c 1,20,21
 184 739 184 739 120.5 798 c 128,-1,22
 57 857 57 857 57 959 c 0,23,24
 57 1036 57 1036 98.5 1083 c 128,-1,25
 140 1130 140 1130 223 1143 c 2,26,-1
 447 1180 l 1,27,-1
 451 1228 l 1,28,29
 451 1275 451 1275 429 1297 c 128,-1,30
 407 1319 407 1319 360 1319 c 0,31,32
 277 1319 277 1319 141 1241 c 1,33,-1
 125 1248 l 1,34,-1
 98 1401 l 1,35,36
 245 1482 245 1482 400 1482 c 0,0,1
447 1071 m 1,37,-1
 325 1048 l 2,38,39
 269 1038 269 1038 269 980 c 0,40,41
 269 942 269 942 288.5 920 c 128,-1,42
 308 898 308 898 343 898 c 0,43,44
 394 898 394 898 445 952 c 1,45,-1
 447 1071 l 1,37,-1
EndSplineSet
EndChar

StartChar: guillemetleft
Encoding: 171 171 109
Width: 974
GlyphClass: 2
Flags: W
LayerCount: 2
Fore
SplineSet
41 488 m 1,0,-1
 41 538 l 1,1,-1
 350 944 l 1,2,-1
 493 868 l 1,3,-1
 498 839 l 1,4,-1
 262 518 l 1,5,-1
 498 200 l 1,6,-1
 493 171 l 1,7,-1
 350 93 l 1,8,-1
 41 488 l 1,0,-1
462 488 m 1,9,-1
 462 538 l 1,10,-1
 770 944 l 1,11,-1
 914 868 l 1,12,-1
 918 839 l 1,13,-1
 682 518 l 1,14,-1
 918 200 l 1,15,-1
 914 171 l 1,16,-1
 770 93 l 1,17,-1
 462 488 l 1,9,-1
EndSplineSet
EndChar

StartChar: logicalnot
Encoding: 172 172 110
Width: 1091
GlyphClass: 2
Flags: W
LayerCount: 2
Fore
SplineSet
982 675 m 1,0,-1
 982 113 l 1,1,-1
 798 100 l 1,2,-1
 775 118 l 1,3,-1
 775 488 l 1,4,-1
 70 488 l 1,5,-1
 50 509 l 1,6,-1
 65 694 l 1,7,-1
 968 694 l 1,8,-1
 982 675 l 1,0,-1
EndSplineSet
EndChar

StartChar: softhyphen
Encoding: 173 173 111
Width: 690
GlyphClass: 2
Flags: W
LayerCount: 2
Fore
SplineSet
627 700 m 1,0,-1
 627 514 l 1,1,-1
 87 430 l 1,2,-1
 61 455 l 1,3,-1
 61 644 l 1,4,-1
 603 725 l 1,5,-1
 627 700 l 1,0,-1
EndSplineSet
EndChar

StartChar: registered
Encoding: 174 174 112
Width: 1013
GlyphClass: 2
Flags: W
LayerCount: 2
Fore
SplineSet
507.5 1596 m 128,-1,1
 698 1596 698 1596 814 1480.5 c 128,-1,2
 930 1365 930 1365 930 1175 c 0,3,4
 930 983 930 983 814 866.5 c 128,-1,5
 698 750 698 750 507 750 c 128,-1,6
 316 750 316 750 200 866.5 c 128,-1,7
 84 983 84 983 84 1175 c 0,8,9
 84 1365 84 1365 200.5 1480.5 c 128,-1,0
 317 1596 317 1596 507.5 1596 c 128,-1,1
509 825 m 256,10,11
 665 825 665 825 760 921.5 c 128,-1,12
 855 1018 855 1018 855 1175 c 0,13,14
 855 1330 855 1330 759.5 1425.5 c 128,-1,15
 664 1521 664 1521 509 1521 c 0,16,17
 353 1521 353 1521 257 1425.5 c 128,-1,18
 161 1330 161 1330 161 1175 c 0,19,20
 161 1017 161 1017 257 921 c 128,-1,21
 353 825 353 825 509 825 c 256,10,11
694 1273 m 0,22,23
 694 1235 694 1235 671.5 1200.5 c 128,-1,24
 649 1166 649 1166 609 1141 c 1,25,26
 656 1070 656 1070 720 991 c 1,27,-1
 718 980 l 1,28,29
 677 963 677 963 612 959 c 1,30,-1
 598 968 l 1,31,32
 549 1042 549 1042 518 1109 c 1,33,-1
 447 1109 l 1,34,-1
 453 966 l 1,35,-1
 343 966 l 1,36,-1
 345 1096 l 1,37,-1
 343 1410 l 1,38,-1
 536 1412 l 2,39,40
 611 1412 611 1412 652.5 1376 c 128,-1,41
 694 1340 694 1340 694 1273 c 0,22,23
451 1195 m 1,42,-1
 521 1191 l 1,43,44
 551 1203 551 1203 564 1219.5 c 128,-1,45
 577 1236 577 1236 577 1264 c 0,46,47
 577 1297 577 1297 558 1312.5 c 128,-1,48
 539 1328 539 1328 498 1330 c 1,49,-1
 453 1328 l 1,50,-1
 451 1195 l 1,42,-1
EndSplineSet
EndChar

StartChar: macron
Encoding: 175 175 113
Width: 883
GlyphClass: 2
Flags: W
LayerCount: 2
Fore
SplineSet
777 1480 m 1,0,-1
 764 1312 l 1,1,-1
 128 1312 l 1,2,-1
 107 1332 l 1,3,-1
 123 1501 l 1,4,-1
 759 1501 l 1,5,-1
 777 1480 l 1,0,-1
EndSplineSet
EndChar

StartChar: degree
Encoding: 176 176 114
Width: 666
GlyphClass: 2
Flags: W
LayerCount: 2
Fore
SplineSet
334 1484 m 0,0,1
 457 1484 457 1484 542 1398.5 c 128,-1,2
 627 1313 627 1313 627 1189 c 0,3,4
 627 1066 627 1066 541.5 981 c 128,-1,5
 456 896 456 896 334 896 c 0,6,7
 209 896 209 896 123 981 c 128,-1,8
 37 1066 37 1066 37 1189 c 0,9,10
 37 1313 37 1313 123 1398.5 c 128,-1,11
 209 1484 209 1484 334 1484 c 0,0,1
332 1353 m 128,-1,13
 262 1353 262 1353 215.5 1306 c 128,-1,14
 169 1259 169 1259 169 1189 c 0,15,16
 169 1120 169 1120 215.5 1074 c 128,-1,17
 262 1028 262 1028 332 1028 c 128,-1,18
 402 1028 402 1028 448.5 1074 c 128,-1,19
 495 1120 495 1120 495 1189 c 0,20,21
 495 1259 495 1259 448.5 1306 c 128,-1,12
 402 1353 402 1353 332 1353 c 128,-1,13
EndSplineSet
EndChar

StartChar: plusminus
Encoding: 177 177 115
Width: 1091
GlyphClass: 2
Flags: W
LayerCount: 2
Fore
SplineSet
648 1063 m 1,0,-1
 648 694 l 1,1,-1
 1016 694 l 1,2,-1
 1037 673 l 1,3,-1
 1023 488 l 1,4,-1
 648 488 l 1,5,-1
 648 113 l 1,6,-1
 464 100 l 1,7,-1
 443 118 l 1,8,-1
 443 488 l 1,9,-1
 73 488 l 1,10,-1
 52 509 l 1,11,-1
 68 694 l 1,12,-1
 443 694 l 1,13,-1
 443 1071 l 1,14,-1
 627 1087 l 1,15,-1
 648 1063 l 1,0,-1
1039 -80 m 1,16,-1
 1023 -264 l 1,17,-1
 73 -264 l 1,18,-1
 52 -243 l 1,19,-1
 68 -59 l 1,20,-1
 1019 -59 l 1,21,-1
 1039 -80 l 1,16,-1
EndSplineSet
EndChar

StartChar: twosuperior
Encoding: 178 178 116
Width: 820
GlyphClass: 2
Flags: W
LayerCount: 2
Fore
SplineSet
418 1603 m 0,0,1
 537 1603 537 1603 614.5 1546 c 128,-1,2
 692 1489 692 1489 692 1389 c 0,3,4
 692 1323 692 1323 649 1245 c 128,-1,5
 606 1167 606 1167 507 1050 c 1,6,-1
 391 905 l 1,7,-1
 395 900 l 1,8,-1
 603 900 l 1,9,-1
 755 909 l 1,10,-1
 766 894 l 1,11,-1
 741 707 l 1,12,-1
 527 716 l 1,13,-1
 148 716 l 1,14,-1
 89 714 l 1,15,-1
 75 720 l 1,16,-1
 75 861 l 1,17,-1
 289 1093 l 1,18,19
 336 1147 336 1147 355.5 1170.5 c 128,-1,20
 375 1194 375 1194 401.5 1229.5 c 128,-1,21
 428 1265 428 1265 437.5 1288.5 c 128,-1,22
 447 1312 447 1312 447 1334 c 0,23,24
 447 1367 447 1367 424 1388.5 c 128,-1,25
 401 1410 401 1410 357 1410 c 0,26,27
 310 1410 310 1410 251 1381.5 c 128,-1,28
 192 1353 192 1353 143 1305 c 1,29,-1
 115 1305 l 1,30,-1
 75 1484 l 1,31,32
 250 1603 250 1603 418 1603 c 0,0,1
EndSplineSet
EndChar

StartChar: threesuperior
Encoding: 179 179 117
Width: 729
GlyphClass: 2
Flags: W
LayerCount: 2
Fore
SplineSet
343 1605 m 0,0,1
 473 1605 473 1605 551 1547 c 128,-1,2
 629 1489 629 1489 629 1393 c 0,3,4
 629 1336 629 1336 596 1280 c 128,-1,5
 563 1224 563 1224 491 1187 c 1,6,-1
 491 1178 l 1,7,8
 655 1129 655 1129 655 973 c 0,9,10
 655 852 655 852 543.5 777.5 c 128,-1,11
 432 703 432 703 250 703 c 0,12,13
 161 703 161 703 78 720 c 1,14,-1
 61 889 l 1,15,-1
 80 905 l 1,16,17
 167 880 167 880 254 880 c 0,18,19
 334 880 334 880 377.5 906.5 c 128,-1,20
 421 933 421 933 421 980 c 0,21,22
 421 1021 421 1021 391.5 1044 c 128,-1,23
 362 1067 362 1067 306 1067 c 2,24,-1
 189 1067 l 1,25,-1
 178 1082 l 1,26,-1
 180 1239 l 1,27,-1
 250 1241 l 2,28,29
 305 1243 305 1243 344.5 1272.5 c 128,-1,30
 384 1302 384 1302 384 1348 c 0,31,32
 384 1419 384 1419 289 1419 c 0,33,34
 216 1419 216 1419 111 1362 c 1,35,-1
 87 1362 l 1,36,-1
 50 1521 l 1,37,38
 188 1605 188 1605 343 1605 c 0,0,1
EndSplineSet
EndChar

StartChar: acute
Encoding: 180 180 118
Width: 883
GlyphClass: 2
Flags: W
LayerCount: 2
Fore
SplineSet
609 1644 m 1,0,-1
 718 1480 l 1,1,-1
 714 1451 l 1,2,3
 382 1247 382 1247 271 1182 c 1,4,-1
 241 1184 l 1,5,-1
 169 1298 l 1,6,7
 419 1496 419 1496 579 1646 c 1,8,-1
 609 1644 l 1,0,-1
EndSplineSet
EndChar

StartChar: micro
Encoding: 181 181 119
Width: 1186
GlyphClass: 2
Flags: W
LayerCount: 2
Fore
SplineSet
1148 200 m 1,0,-1
 1117 39 l 1,1,2
 1045 -16 1045 -16 955 -16 c 0,3,4
 878 -16 878 -16 832.5 21 c 128,-1,5
 787 58 787 58 759 141 c 1,6,-1
 744 141 l 1,7,8
 683 80 683 80 624.5 42.5 c 128,-1,9
 566 5 566 5 498 -13 c 1,10,11
 455 -13 455 -13 416 -7 c 1,12,-1
 416 -421 l 1,13,-1
 130 -421 l 1,14,-1
 141 436 l 1,15,-1
 130 1037 l 1,16,-1
 416 1061 l 1,17,-1
 416 354 l 1,18,19
 433 230 433 230 555 230 c 0,20,21
 649 230 649 230 748 319 c 1,22,-1
 748 1037 l 1,23,-1
 1035 1061 l 1,24,-1
 1016 284 l 1,25,26
 1016 240 1016 240 1028.5 220 c 128,-1,27
 1041 200 1041 200 1069 200 c 0,28,29
 1086 200 1086 200 1128 216 c 1,30,-1
 1148 200 l 1,0,-1
EndSplineSet
EndChar

StartChar: paragraph
Encoding: 182 182 120
Width: 1186
GlyphClass: 2
Flags: W
LayerCount: 2
Fore
SplineSet
1146 1439 m 1,0,-1
 1126 1230 l 1,1,-1
 973 1230 l 1,2,-1
 961 447 l 1,3,-1
 963 310 l 1,4,5
 963 222 963 222 941 153 c 128,-1,6
 919 84 919 84 868 22 c 128,-1,7
 817 -40 817 -40 733.5 -92 c 128,-1,8
 650 -144 650 -144 527 -193 c 1,9,-1
 445 -57 l 1,10,-1
 445 -28 l 1,11,12
 570 41 570 41 624.5 116 c 128,-1,13
 679 191 679 191 679 295 c 2,14,-1
 679 412 l 1,15,-1
 668 1232 l 1,16,-1
 566 1232 l 1,17,18
 476 1219 476 1219 428 1151 c 128,-1,19
 380 1083 380 1083 380 970 c 0,20,21
 380 862 380 862 435 776.5 c 128,-1,22
 490 691 490 691 594 638 c 1,23,-1
 488 480 l 1,24,25
 281 527 281 527 169 656 c 128,-1,26
 57 785 57 785 57 982 c 0,27,28
 57 1212 57 1212 201.5 1338 c 128,-1,29
 346 1464 346 1464 612 1464 c 2,30,-1
 1126 1464 l 1,31,-1
 1146 1439 l 1,0,-1
EndSplineSet
EndChar

StartChar: periodcentered
Encoding: 183 183 121
Width: 519
GlyphClass: 2
Flags: W
LayerCount: 2
Fore
SplineSet
266 735 m 0,0,1
 338 735 338 735 377 694 c 128,-1,2
 416 653 416 653 416 579 c 0,3,4
 416 503 416 503 372.5 457.5 c 128,-1,5
 329 412 329 412 254.5 412 c 128,-1,6
 180 412 180 412 140 452.5 c 128,-1,7
 100 493 100 493 100 568 c 0,8,9
 100 645 100 645 145 690 c 128,-1,10
 190 735 190 735 266 735 c 0,0,1
EndSplineSet
EndChar

StartChar: cedilla
Encoding: 184 184 122
Width: 883
GlyphClass: 2
Flags: W
LayerCount: 2
Fore
SplineSet
477 -109 m 1,0,-1
 555 -152 l 2,1,2
 605 -180 605 -180 626.5 -212.5 c 128,-1,3
 648 -245 648 -245 648 -286 c 0,4,5
 648 -362 648 -362 589.5 -409.5 c 128,-1,6
 531 -457 531 -457 434 -457 c 0,7,8
 331 -457 331 -457 248 -393 c 1,9,-1
 269 -266 l 1,10,-1
 282 -259 l 1,11,12
 351 -327 351 -327 416 -327 c 0,13,14
 471 -327 471 -327 471 -280 c 0,15,16
 471 -254 471 -254 432 -234 c 1,17,-1
 321 -171 l 1,18,-1
 373 59 l 1,19,-1
 518 59 l 1,20,-1
 477 -109 l 1,0,-1
EndSplineSet
EndChar

StartChar: onesuperior
Encoding: 185 185 123
Width: 627
GlyphClass: 2
Flags: W
LayerCount: 2
Fore
SplineSet
457 1580 m 1,0,-1
 445 1030 l 1,1,-1
 455 716 l 1,2,-1
 209 716 l 1,3,-1
 219 1002 l 1,4,-1
 219 1341 l 1,5,-1
 39 1300 l 1,6,-1
 22 1312 l 1,7,-1
 22 1501 l 1,8,-1
 423 1605 l 1,9,-1
 457 1580 l 1,0,-1
EndSplineSet
EndChar

StartChar: ordmasculine
Encoding: 186 186 124
Width: 788
GlyphClass: 2
Flags: W
AnchorPoint: "Anchor-1" 0 0 basechar 0
AnchorPoint: "Anchor-0" 414 711 basechar 0
LayerCount: 2
Fore
SplineSet
407 1482 m 0,0,1
 570 1482 570 1482 653.5 1390.5 c 128,-1,2
 737 1299 737 1299 737 1121 c 0,3,4
 737 932 737 932 646.5 833.5 c 128,-1,5
 556 735 556 735 382 735 c 0,6,7
 220 735 220 735 136 826.5 c 128,-1,8
 52 918 52 918 52 1096 c 0,9,10
 52 1285 52 1285 142.5 1383.5 c 128,-1,11
 233 1482 233 1482 407 1482 c 0,0,1
393 1321 m 0,12,13
 329 1321 329 1321 302 1275.5 c 128,-1,14
 275 1230 275 1230 275 1121 c 0,15,16
 275 994 275 994 302.5 942.5 c 128,-1,17
 330 891 330 891 397 891 c 0,18,19
 463 891 463 891 490.5 936.5 c 128,-1,20
 518 982 518 982 518 1093 c 0,21,22
 518 1218 518 1218 489 1269.5 c 128,-1,23
 460 1321 460 1321 393 1321 c 0,12,13
EndSplineSet
EndChar

StartChar: guillemetright
Encoding: 187 187 125
Width: 967
GlyphClass: 2
Flags: W
LayerCount: 2
Fore
SplineSet
503 553 m 1,0,-1
 503 503 l 1,1,-1
 193 98 l 1,2,-1
 50 173 l 1,3,-1
 46 202 l 1,4,-1
 282 523 l 1,5,-1
 46 841 l 1,6,-1
 50 870 l 1,7,-1
 193 948 l 1,8,-1
 503 553 l 1,0,-1
920 553 m 1,9,-1
 920 503 l 1,10,-1
 612 98 l 1,11,-1
 471 173 l 1,12,-1
 464 202 l 1,13,-1
 700 523 l 1,14,-1
 464 841 l 1,15,-1
 471 870 l 1,16,-1
 612 948 l 1,17,-1
 920 553 l 1,9,-1
EndSplineSet
EndChar

StartChar: onequarter
Encoding: 188 188 126
Width: 1697
GlyphClass: 2
Flags: W
LayerCount: 2
Fore
SplineSet
1351 1441 m 1,0,-1
 291 -209 l 1,1,-1
 161 -132 l 1,2,-1
 148 -100 l 1,3,-1
 1212 1560 l 1,4,-1
 1334 1484 l 1,5,-1
 1351 1441 l 1,0,-1
219 1214 m 1,6,-1
 39 1173 l 1,7,-1
 22 1184 l 1,8,-1
 22 1373 l 1,9,-1
 423 1477 l 1,10,-1
 457 1453 l 1,11,-1
 445 902 l 1,12,-1
 455 588 l 1,13,-1
 209 588 l 1,14,-1
 219 875 l 1,15,-1
 219 1214 l 1,6,-1
1625 191 m 1,16,-1
 1505 195 l 1,17,-1
 1516 16 l 1,18,-1
 1503 0 l 1,19,-1
 1314 -9 l 1,20,-1
 1300 2 l 1,21,-1
 1305 198 l 1,22,-1
 1076 198 l 1,23,-1
 926 191 l 1,24,-1
 909 211 l 1,25,-1
 909 360 l 1,26,-1
 1284 878 l 1,27,-1
 1507 878 l 1,28,-1
 1501 375 l 1,29,-1
 1623 375 l 1,30,-1
 1637 354 l 1,31,-1
 1625 191 l 1,16,-1
1119 375 m 1,32,-1
 1310 375 l 1,33,-1
 1308 620 l 1,34,-1
 1293 620 l 1,35,-1
 1119 375 l 1,32,-1
EndSplineSet
EndChar

StartChar: onehalf
Encoding: 189 189 127
Width: 1757
GlyphClass: 2
Flags: W
LayerCount: 2
Fore
SplineSet
1334 1484 m 1,0,-1
 1351 1441 l 1,1,-1
 291 -209 l 1,2,-1
 161 -132 l 1,3,-1
 148 -100 l 1,4,-1
 1212 1560 l 1,5,-1
 1334 1484 l 1,0,-1
457 1453 m 1,6,-1
 445 902 l 1,7,-1
 455 588 l 1,8,-1
 209 588 l 1,9,-1
 219 875 l 1,10,-1
 219 1214 l 1,11,-1
 39 1173 l 1,12,-1
 22 1184 l 1,13,-1
 22 1373 l 1,14,-1
 423 1477 l 1,15,-1
 457 1453 l 1,6,-1
1355 887 m 0,16,17
 1474 887 1474 887 1550.5 830 c 128,-1,18
 1627 773 1627 773 1627 673 c 0,19,20
 1627 607 1627 607 1584.5 529 c 128,-1,21
 1542 451 1542 451 1443 334 c 1,22,-1
 1328 189 l 1,23,-1
 1332 184 l 1,24,-1
 1538 184 l 1,25,-1
 1692 193 l 1,26,-1
 1703 178 l 1,27,-1
 1677 -9 l 1,28,-1
 1464 0 l 1,29,-1
 1084 0 l 1,30,-1
 1026 -2 l 1,31,-1
 1011 4 l 1,32,-1
 1011 145 l 1,33,-1
 1225 377 l 1,34,35
 1273 431 1273 431 1292.5 454.5 c 128,-1,36
 1312 478 1312 478 1338.5 513.5 c 128,-1,37
 1365 549 1365 549 1374.5 572.5 c 128,-1,38
 1384 596 1384 596 1384 618 c 0,39,40
 1384 651 1384 651 1360.5 672.5 c 128,-1,41
 1337 694 1337 694 1293 694 c 0,42,43
 1246 694 1246 694 1187.5 665 c 128,-1,44
 1129 636 1129 636 1080 588 c 1,45,-1
 1052 588 l 1,46,-1
 1011 768 l 1,47,48
 1186 887 1186 887 1355 887 c 0,16,17
EndSplineSet
EndChar

StartChar: threequarters
Encoding: 190 190 128
Width: 1783
GlyphClass: 2
Flags: W
LayerCount: 2
Fore
SplineSet
1436 1441 m 1,0,-1
 377 -209 l 1,1,-1
 248 -132 l 1,2,-1
 234 -100 l 1,3,-1
 1298 1560 l 1,4,-1
 1421 1484 l 1,5,-1
 1436 1441 l 1,0,-1
655 846 m 0,6,7
 655 725 655 725 543.5 650 c 128,-1,8
 432 575 432 575 250 575 c 0,9,10
 166 575 166 575 78 594 c 1,11,-1
 61 761 l 1,12,-1
 80 777 l 1,13,14
 167 753 167 753 254 753 c 0,15,16
 334 753 334 753 377.5 779 c 128,-1,17
 421 805 421 805 421 852 c 0,18,19
 421 894 421 894 391.5 916.5 c 128,-1,20
 362 939 362 939 306 939 c 2,21,-1
 189 939 l 1,22,-1
 178 955 l 1,23,-1
 180 1111 l 1,24,-1
 250 1114 l 2,25,26
 305 1116 305 1116 344.5 1145.5 c 128,-1,27
 384 1175 384 1175 384 1221 c 0,28,29
 384 1291 384 1291 289 1291 c 0,30,31
 216 1291 216 1291 111 1234 c 1,32,-1
 87 1234 l 1,33,-1
 50 1393 l 1,34,35
 188 1477 188 1477 343 1477 c 0,36,37
 473 1477 473 1477 551 1419.5 c 128,-1,38
 629 1362 629 1362 629 1267 c 0,39,40
 629 1209 629 1209 596 1153 c 128,-1,41
 563 1097 563 1097 491 1059 c 1,42,-1
 491 1050 l 1,43,44
 655 1001 655 1001 655 846 c 0,6,7
1712 191 m 1,45,-1
 1592 195 l 1,46,-1
 1603 16 l 1,47,-1
 1590 0 l 1,48,-1
 1401 -9 l 1,49,-1
 1386 2 l 1,50,-1
 1391 198 l 1,51,-1
 1162 198 l 1,52,-1
 1011 191 l 1,53,-1
 996 211 l 1,54,-1
 996 360 l 1,55,-1
 1371 878 l 1,56,-1
 1594 878 l 1,57,-1
 1587 375 l 1,58,-1
 1709 375 l 1,59,-1
 1723 354 l 1,60,-1
 1712 191 l 1,45,-1
1204 375 m 1,61,-1
 1395 375 l 1,62,-1
 1393 620 l 1,63,-1
 1380 620 l 1,64,-1
 1204 375 l 1,61,-1
EndSplineSet
EndChar

StartChar: questiondown
Encoding: 191 191 129
Width: 772
GlyphClass: 2
Flags: W
LayerCount: 2
Fore
SplineSet
425 759 m 0,0,1
 354 759 354 759 314.5 799.5 c 128,-1,2
 275 840 275 840 275 914 c 0,3,4
 275 991 275 991 318.5 1036.5 c 128,-1,5
 362 1082 362 1082 436.5 1082 c 128,-1,6
 511 1082 511 1082 551 1041.5 c 128,-1,7
 591 1001 591 1001 591 926 c 0,8,9
 591 850 591 850 546 804.5 c 128,-1,10
 501 759 501 759 425 759 c 0,0,1
623 -438 m 1,11,-1
 594 -455 l 1,12,13
 294 -438 294 -438 132 -343.5 c 128,-1,14
 -30 -249 -30 -249 -30 -87 c 0,15,16
 -30 8 -30 8 23.5 88.5 c 128,-1,17
 77 169 77 169 178 228 c 2,18,-1
 341 325 l 1,19,-1
 345 336 l 1,20,-1
 332 529 l 1,21,-1
 543 557 l 1,22,-1
 564 536 l 1,23,-1
 586 264 l 1,24,-1
 575 241 l 1,25,-1
 371 137 l 1,26,27
 243 69 243 69 243 -39 c 0,28,29
 243 -129 243 -129 340.5 -178.5 c 128,-1,30
 438 -228 438 -228 657 -241 c 1,31,-1
 677 -271 l 1,32,-1
 623 -438 l 1,11,-1
EndSplineSet
EndChar

StartChar: Agrave
Encoding: 192 192 130
Width: 1363
GlyphClass: 2
Flags: W
AnchorPoint: "Anchor-1" 0 0 basechar 0
AnchorPoint: "Anchor-0" 683 1464 basechar 0
LayerCount: 2
Fore
SplineSet
928 1639 m 1,0,-1
 898 1629 l 1,1,2
 646 1715 646 1715 410 1807 c 1,3,-1
 400 1835 l 1,4,-1
 475 2015 l 1,5,-1
 505 2021 l 1,6,7
 704 1903 704 1903 976 1766 c 1,8,-1
 928 1639 l 1,0,-1
1328 0 m 1,9,-1
 1013 0 l 1,10,-1
 978 191 l 1,11,-1
 939 327 l 1,12,-1
 653 334 l 1,13,-1
 400 327 l 1,14,-1
 362 206 l 1,15,-1
 323 0 l 1,16,-1
 18 0 l 1,17,-1
 512 1464 l 1,18,-1
 880 1464 l 1,19,-1
 1328 0 l 1,9,-1
872 566 m 1,20,-1
 700 1175 l 1,21,-1
 679 1175 l 1,22,-1
 480 566 l 1,23,-1
 673 562 l 1,24,-1
 872 566 l 1,20,-1
EndSplineSet
Position2: "'cpsp' Capital Spacing lookup 0 subtable" dx=16 dy=0 dh=33 dv=0
EndChar

StartChar: Aacute
Encoding: 193 193 131
Width: 1363
GlyphClass: 2
Flags: W
AnchorPoint: "Anchor-1" 0 0 basechar 0
AnchorPoint: "Anchor-0" 683 1464 basechar 0
LayerCount: 2
Fore
SplineSet
495 1639 m 1,0,-1
 445 1764 l 1,1,2
 717 1901 717 1901 918 2021 c 1,3,-1
 946 2015 l 1,4,-1
 1023 1835 l 1,5,-1
 1013 1807 l 1,6,7
 777 1716 777 1716 525 1629 c 1,8,-1
 495 1639 l 1,0,-1
1328 0 m 1,9,-1
 1013 0 l 1,10,-1
 978 191 l 1,11,-1
 939 327 l 1,12,-1
 653 334 l 1,13,-1
 400 327 l 1,14,-1
 362 206 l 1,15,-1
 323 0 l 1,16,-1
 18 0 l 1,17,-1
 512 1464 l 1,18,-1
 880 1464 l 1,19,-1
 1328 0 l 1,9,-1
872 566 m 1,20,-1
 700 1175 l 1,21,-1
 679 1175 l 1,22,-1
 480 566 l 1,23,-1
 673 562 l 1,24,-1
 872 566 l 1,20,-1
EndSplineSet
Position2: "'cpsp' Capital Spacing lookup 0 subtable" dx=16 dy=0 dh=33 dv=0
EndChar

StartChar: Acircumflex
Encoding: 194 194 132
Width: 1363
GlyphClass: 2
Flags: W
AnchorPoint: "Anchor-1" 0 0 basechar 0
AnchorPoint: "Anchor-0" 683 1464 basechar 0
LayerCount: 2
Fore
SplineSet
407 1655 m 1,0,-1
 350 1775 l 1,1,2
 515 1885 515 1885 655 2011 c 1,3,-1
 716 2011 l 1,4,5
 848 1895 848 1895 1021 1775 c 1,6,-1
 966 1655 l 1,7,-1
 937 1655 l 1,8,9
 716 1780 716 1780 686 1798 c 1,10,11
 641 1771 641 1771 436 1655 c 1,12,-1
 407 1655 l 1,0,-1
1328 0 m 1,13,-1
 1013 0 l 1,14,-1
 978 191 l 1,15,-1
 939 327 l 1,16,-1
 653 334 l 1,17,-1
 400 327 l 1,18,-1
 362 206 l 1,19,-1
 323 0 l 1,20,-1
 18 0 l 1,21,-1
 512 1464 l 1,22,-1
 880 1464 l 1,23,-1
 1328 0 l 1,13,-1
872 566 m 1,24,-1
 700 1175 l 1,25,-1
 679 1175 l 1,26,-1
 480 566 l 1,27,-1
 673 562 l 1,28,-1
 872 566 l 1,24,-1
EndSplineSet
Position2: "'cpsp' Capital Spacing lookup 0 subtable" dx=16 dy=0 dh=33 dv=0
EndChar

StartChar: Atilde
Encoding: 195 195 133
Width: 1363
GlyphClass: 2
Flags: W
AnchorPoint: "Anchor-1" 0 0 basechar 0
AnchorPoint: "Anchor-0" 683 1464 basechar 0
LayerCount: 2
Fore
SplineSet
375 1637 m 1,0,-1
 284 1725 l 1,1,-1
 284 1750 l 1,2,-1
 445 1952 l 1,3,-1
 473 1964 l 1,4,5
 526 1957 526 1957 660 1921 c 128,-1,6
 794 1885 794 1885 823 1885 c 0,7,8
 832 1885 832 1885 842 1887.5 c 128,-1,9
 852 1890 852 1890 863 1897.5 c 128,-1,10
 874 1905 874 1905 881.5 1910.5 c 128,-1,11
 889 1916 889 1916 902 1929.5 c 128,-1,12
 915 1943 915 1943 921.5 1950 c 128,-1,13
 928 1957 928 1957 944 1975 c 128,-1,14
 960 1993 960 1993 966 2000 c 1,15,-1
 993 2000 l 1,16,-1
 1082 1911 l 1,17,-1
 1082 1887 l 1,18,-1
 922 1685 l 1,19,-1
 894 1673 l 1,20,21
 842 1679 842 1679 707.5 1716 c 128,-1,22
 573 1753 573 1753 543 1753 c 0,23,24
 530 1753 530 1753 517 1747.5 c 128,-1,25
 504 1742 504 1742 488 1728 c 128,-1,26
 472 1714 472 1714 462.5 1704.5 c 128,-1,27
 453 1695 453 1695 431.5 1671 c 128,-1,28
 410 1647 410 1647 402 1637 c 1,29,-1
 375 1637 l 1,0,-1
1328 0 m 1,30,-1
 1013 0 l 1,31,-1
 978 191 l 1,32,-1
 939 327 l 1,33,-1
 653 334 l 1,34,-1
 400 327 l 1,35,-1
 362 206 l 1,36,-1
 323 0 l 1,37,-1
 18 0 l 1,38,-1
 512 1464 l 1,39,-1
 880 1464 l 1,40,-1
 1328 0 l 1,30,-1
872 566 m 1,41,-1
 700 1175 l 1,42,-1
 679 1175 l 1,43,-1
 480 566 l 1,44,-1
 673 562 l 1,45,-1
 872 566 l 1,41,-1
EndSplineSet
Position2: "'cpsp' Capital Spacing lookup 0 subtable" dx=16 dy=0 dh=33 dv=0
EndChar

StartChar: Adieresis
Encoding: 196 196 134
Width: 1363
GlyphClass: 2
Flags: W
AnchorPoint: "Anchor-1" 0 0 basechar 0
AnchorPoint: "Anchor-0" 683 1464 basechar 0
LayerCount: 2
Fore
SplineSet
484 1664 m 0,0,1
 417 1664 417 1664 381 1701.5 c 128,-1,2
 345 1739 345 1739 345 1807 c 0,3,4
 345 1877 345 1877 385 1918 c 128,-1,5
 425 1959 425 1959 495 1959 c 0,6,7
 561 1959 561 1959 597.5 1922 c 128,-1,8
 634 1885 634 1885 634 1818 c 0,9,10
 634 1746 634 1746 594 1705 c 128,-1,11
 554 1664 554 1664 484 1664 c 0,0,1
878 1664 m 0,12,13
 812 1664 812 1664 775.5 1701.5 c 128,-1,14
 739 1739 739 1739 739 1807 c 0,15,16
 739 1877 739 1877 779 1918 c 128,-1,17
 819 1959 819 1959 889 1959 c 0,18,19
 955 1959 955 1959 991.5 1922 c 128,-1,20
 1028 1885 1028 1885 1028 1818 c 0,21,22
 1028 1746 1028 1746 988 1705 c 128,-1,23
 948 1664 948 1664 878 1664 c 0,12,13
1328 0 m 1,24,-1
 1013 0 l 1,25,-1
 978 191 l 1,26,-1
 939 327 l 1,27,-1
 653 334 l 1,28,-1
 400 327 l 1,29,-1
 362 206 l 1,30,-1
 323 0 l 1,31,-1
 18 0 l 1,32,-1
 512 1464 l 1,33,-1
 880 1464 l 1,34,-1
 1328 0 l 1,24,-1
872 566 m 1,35,-1
 700 1175 l 1,36,-1
 679 1175 l 1,37,-1
 480 566 l 1,38,-1
 673 562 l 1,39,-1
 872 566 l 1,35,-1
EndSplineSet
Position2: "'cpsp' Capital Spacing lookup 0 subtable" dx=16 dy=0 dh=33 dv=0
EndChar

StartChar: Aring
Encoding: 197 197 135
Width: 1363
GlyphClass: 2
Flags: W
AnchorPoint: "Anchor-1" 0 0 basechar 0
AnchorPoint: "Anchor-0" 683 1464 basechar 0
LayerCount: 2
Fore
SplineSet
677 1623 m 0,0,1
 578 1623 578 1623 522 1678 c 128,-1,2
 466 1733 466 1733 466 1837 c 0,3,4
 466 1940 466 1940 524 1996 c 128,-1,5
 582 2052 582 2052 689 2052 c 0,6,7
 793 2052 793 2052 847.5 1997.5 c 128,-1,8
 902 1943 902 1943 902 1846 c 0,9,10
 902 1740 902 1740 841.5 1681.5 c 128,-1,11
 781 1623 781 1623 677 1623 c 0,0,1
682 1924 m 0,12,13
 591 1924 591 1924 591 1839 c 0,14,15
 591 1794 591 1794 615 1771 c 128,-1,16
 639 1748 639 1748 684 1748 c 0,17,18
 777 1748 777 1748 777 1835 c 0,19,20
 777 1924 777 1924 682 1924 c 0,12,13
1328 0 m 1,21,-1
 1013 0 l 1,22,-1
 978 191 l 1,23,-1
 939 327 l 1,24,-1
 653 334 l 1,25,-1
 400 327 l 1,26,-1
 362 206 l 1,27,-1
 323 0 l 1,28,-1
 18 0 l 1,29,-1
 512 1464 l 1,30,-1
 880 1464 l 1,31,-1
 1328 0 l 1,21,-1
872 566 m 1,32,-1
 700 1175 l 1,33,-1
 679 1175 l 1,34,-1
 480 566 l 1,35,-1
 673 562 l 1,36,-1
 872 566 l 1,32,-1
EndSplineSet
Position2: "'cpsp' Capital Spacing lookup 0 subtable" dx=16 dy=0 dh=33 dv=0
EndChar

StartChar: AE
Encoding: 198 198 136
Width: 1868
GlyphClass: 2
Flags: W
AnchorPoint: "Anchor-1" 0 0 basechar 0
AnchorPoint: "Anchor-0" 1141 1464 basechar 0
LayerCount: 2
Fore
SplineSet
1850 230 m 1,0,-1
 1830 0 l 1,1,-1
 946 0 l 1,2,-1
 935 191 l 1,3,-1
 896 503 l 1,4,-1
 414 375 l 1,5,-1
 334 206 l 1,6,-1
 266 0 l 1,7,-1
 -41 0 l 1,8,-1
 664 1464 l 1,9,-1
 1664 1464 l 1,10,-1
 1685 1439 l 1,11,-1
 1659 1210 l 1,12,-1
 1308 1221 l 1,13,-1
 1107 1221 l 1,14,-1
 1157 809 l 1,15,-1
 1598 922 l 1,16,-1
 1621 905 l 1,17,-1
 1646 689 l 1,18,-1
 1184 579 l 1,19,-1
 1225 241 l 1,20,-1
 1457 241 l 1,21,-1
 1833 254 l 1,22,-1
 1850 230 l 1,0,-1
868 735 m 1,23,-1
 814 1175 l 1,24,-1
 794 1175 l 1,25,-1
 546 650 l 1,26,-1
 868 735 l 1,23,-1
EndSplineSet
Position2: "'cpsp' Capital Spacing lookup 0 subtable" dx=16 dy=0 dh=33 dv=0
EndChar

StartChar: Ccedilla
Encoding: 199 199 137
Width: 1174
GlyphClass: 2
Flags: W
AnchorPoint: "Anchor-1" 711 0 basechar 0
AnchorPoint: "Anchor-0" 715 1464 basechar 0
LayerCount: 2
Fore
SplineSet
759 239 m 0,0,1
 844 239 844 239 933 265 c 128,-1,2
 1022 291 1022 291 1093 336 c 1,3,-1
 1123 321 l 1,4,-1
 1098 59 l 1,5,6
 948 -10 948 -10 779 -20 c 1,7,-1
 757 -109 l 1,8,-1
 835 -152 l 2,9,10
 885 -180 885 -180 906.5 -212.5 c 128,-1,11
 928 -245 928 -245 928 -286 c 0,12,13
 928 -362 928 -362 869 -409.5 c 128,-1,14
 810 -457 810 -457 714 -457 c 0,15,16
 611 -457 611 -457 527 -393 c 1,17,-1
 548 -266 l 1,18,-1
 562 -259 l 1,19,20
 630 -327 630 -327 696 -327 c 0,21,22
 750 -327 750 -327 750 -280 c 0,23,24
 750 -254 750 -254 712 -234 c 1,25,-1
 601 -171 l 1,26,-1
 636 -16 l 1,27,28
 355 14 355 14 209 201.5 c 128,-1,29
 63 389 63 389 63 718 c 0,30,31
 63 1082 63 1082 246 1282 c 128,-1,32
 429 1482 429 1482 761 1482 c 0,33,34
 977 1482 977 1482 1148 1393 c 1,35,-1
 1091 1137 l 1,36,-1
 1069 1126 l 1,37,38
 1001 1174 1001 1174 918.5 1201 c 128,-1,39
 836 1228 836 1228 750 1228 c 0,40,41
 386 1228 386 1228 386 753 c 0,42,43
 386 496 386 496 481.5 367.5 c 128,-1,44
 577 239 577 239 759 239 c 0,0,1
EndSplineSet
Position2: "'cpsp' Capital Spacing lookup 0 subtable" dx=16 dy=0 dh=33 dv=0
EndChar

StartChar: Egrave
Encoding: 200 200 138
Width: 1156
GlyphClass: 2
Flags: W
AnchorPoint: "Anchor-1" 668 0 basechar 0
AnchorPoint: "Anchor-0" 641 1464 basechar 0
LayerCount: 2
Fore
SplineSet
887 1642 m 1,0,-1
 857 1632 l 1,1,2
 605 1718 605 1718 369 1809 c 1,3,-1
 360 1837 l 1,4,-1
 436 2017 l 1,5,-1
 464 2024 l 1,6,7
 665 1904 665 1904 937 1766 c 1,8,-1
 887 1642 l 1,0,-1
1098 254 m 1,9,-1
 1114 230 l 1,10,-1
 1096 0 l 1,11,-1
 178 0 l 1,12,-1
 195 436 l 1,13,-1
 178 1464 l 1,14,-1
 1104 1464 l 1,15,-1
 1121 1439 l 1,16,-1
 1100 1210 l 1,17,-1
 748 1221 l 1,18,-1
 486 1219 l 1,19,-1
 482 864 l 1,20,-1
 729 861 l 1,21,-1
 970 868 l 1,22,-1
 989 846 l 1,23,-1
 968 616 l 1,24,-1
 709 623 l 1,25,-1
 477 620 l 1,26,-1
 475 464 l 1,27,-1
 482 243 l 1,28,-1
 737 241 l 1,29,-1
 1098 254 l 1,9,-1
EndSplineSet
Position2: "'cpsp' Capital Spacing lookup 0 subtable" dx=16 dy=0 dh=33 dv=0
EndChar

StartChar: Eacute
Encoding: 201 201 139
Width: 1156
GlyphClass: 2
Flags: W
AnchorPoint: "Anchor-1" 668 0 basechar 0
AnchorPoint: "Anchor-0" 641 1464 basechar 0
LayerCount: 2
Fore
SplineSet
453 1639 m 1,0,-1
 402 1764 l 1,1,2
 673 1901 673 1901 875 2021 c 1,3,-1
 902 2015 l 1,4,-1
 980 1835 l 1,5,-1
 970 1807 l 1,6,7
 734 1716 734 1716 482 1629 c 1,8,-1
 453 1639 l 1,0,-1
1098 254 m 1,9,-1
 1114 230 l 1,10,-1
 1096 0 l 1,11,-1
 178 0 l 1,12,-1
 195 436 l 1,13,-1
 178 1464 l 1,14,-1
 1104 1464 l 1,15,-1
 1121 1439 l 1,16,-1
 1100 1210 l 1,17,-1
 748 1221 l 1,18,-1
 486 1219 l 1,19,-1
 482 864 l 1,20,-1
 729 861 l 1,21,-1
 970 868 l 1,22,-1
 989 846 l 1,23,-1
 968 616 l 1,24,-1
 709 623 l 1,25,-1
 477 620 l 1,26,-1
 475 464 l 1,27,-1
 482 243 l 1,28,-1
 737 241 l 1,29,-1
 1098 254 l 1,9,-1
EndSplineSet
Position2: "'cpsp' Capital Spacing lookup 0 subtable" dx=16 dy=0 dh=33 dv=0
EndChar

StartChar: Ecircumflex
Encoding: 202 202 140
Width: 1156
GlyphClass: 2
Flags: W
AnchorPoint: "Anchor-1" 668 0 basechar 0
AnchorPoint: "Anchor-0" 641 1464 basechar 0
LayerCount: 2
Fore
SplineSet
362 1655 m 1,0,-1
 304 1775 l 1,1,2
 487 1903 487 1903 607 2011 c 1,3,-1
 670 2011 l 1,4,5
 796 1901 796 1901 976 1775 c 1,6,-1
 920 1655 l 1,7,-1
 891 1655 l 1,8,9
 826 1691 826 1691 642 1798 c 1,10,-1
 391 1655 l 1,11,-1
 362 1655 l 1,0,-1
1098 254 m 1,12,-1
 1114 230 l 1,13,-1
 1096 0 l 1,14,-1
 178 0 l 1,15,-1
 195 436 l 1,16,-1
 178 1464 l 1,17,-1
 1104 1464 l 1,18,-1
 1121 1439 l 1,19,-1
 1100 1210 l 1,20,-1
 748 1221 l 1,21,-1
 486 1219 l 1,22,-1
 482 864 l 1,23,-1
 729 861 l 1,24,-1
 970 868 l 1,25,-1
 989 846 l 1,26,-1
 968 616 l 1,27,-1
 709 623 l 1,28,-1
 477 620 l 1,29,-1
 475 464 l 1,30,-1
 482 243 l 1,31,-1
 737 241 l 1,32,-1
 1098 254 l 1,12,-1
EndSplineSet
Position2: "'cpsp' Capital Spacing lookup 0 subtable" dx=16 dy=0 dh=33 dv=0
EndChar

StartChar: Edieresis
Encoding: 203 203 141
Width: 1156
GlyphClass: 2
Flags: W
AnchorPoint: "Anchor-1" 668 0 basechar 0
AnchorPoint: "Anchor-0" 641 1464 basechar 0
LayerCount: 2
Fore
SplineSet
441 1664 m 0,0,1
 374 1664 374 1664 338 1701.5 c 128,-1,2
 302 1739 302 1739 302 1807 c 0,3,4
 302 1877 302 1877 342.5 1918 c 128,-1,5
 383 1959 383 1959 453 1959 c 0,6,7
 519 1959 519 1959 555 1922 c 128,-1,8
 591 1885 591 1885 591 1818 c 0,9,10
 591 1746 591 1746 551 1705 c 128,-1,11
 511 1664 511 1664 441 1664 c 0,0,1
835 1664 m 0,12,13
 768 1664 768 1664 732 1701.5 c 128,-1,14
 696 1739 696 1739 696 1807 c 0,15,16
 696 1877 696 1877 736 1918 c 128,-1,17
 776 1959 776 1959 846 1959 c 0,18,19
 912 1959 912 1959 948.5 1922 c 128,-1,20
 985 1885 985 1885 985 1818 c 0,21,22
 985 1746 985 1746 945 1705 c 128,-1,23
 905 1664 905 1664 835 1664 c 0,12,13
1098 254 m 1,24,-1
 1114 230 l 1,25,-1
 1096 0 l 1,26,-1
 178 0 l 1,27,-1
 195 436 l 1,28,-1
 178 1464 l 1,29,-1
 1104 1464 l 1,30,-1
 1121 1439 l 1,31,-1
 1100 1210 l 1,32,-1
 748 1221 l 1,33,-1
 486 1219 l 1,34,-1
 482 864 l 1,35,-1
 729 861 l 1,36,-1
 970 868 l 1,37,-1
 989 846 l 1,38,-1
 968 616 l 1,39,-1
 709 623 l 1,40,-1
 477 620 l 1,41,-1
 475 464 l 1,42,-1
 482 243 l 1,43,-1
 737 241 l 1,44,-1
 1098 254 l 1,24,-1
EndSplineSet
Position2: "'cpsp' Capital Spacing lookup 0 subtable" dx=16 dy=0 dh=33 dv=0
EndChar

StartChar: Igrave
Encoding: 204 204 142
Width: 670
GlyphClass: 2
Flags: W
AnchorPoint: "Anchor-1" 0 0 basechar 0
AnchorPoint: "Anchor-0" 334 1464 basechar 0
LayerCount: 2
Fore
SplineSet
128 2017 m 1,0,-1
 154 2024 l 1,1,2
 356 1904 356 1904 627 1766 c 1,3,-1
 577 1642 l 1,4,-1
 548 1632 l 1,5,6
 286 1722 286 1722 59 1809 c 1,7,-1
 50 1837 l 1,8,-1
 128 2017 l 1,0,-1
475 464 m 1,9,-1
 488 0 l 1,10,-1
 178 0 l 1,11,-1
 195 436 l 1,12,-1
 178 1464 l 1,13,-1
 491 1464 l 1,14,-1
 475 464 l 1,9,-1
EndSplineSet
Position2: "'cpsp' Capital Spacing lookup 0 subtable" dx=16 dy=0 dh=33 dv=0
EndChar

StartChar: Iacute
Encoding: 205 205 143
Width: 670
GlyphClass: 2
Flags: W
AnchorPoint: "Anchor-1" 0 0 basechar 0
AnchorPoint: "Anchor-0" 334 1464 basechar 0
LayerCount: 2
Fore
SplineSet
596 2015 m 1,0,-1
 673 1835 l 1,1,-1
 664 1807 l 1,2,3
 428 1716 428 1716 175 1629 c 1,4,-1
 145 1639 l 1,5,-1
 95 1764 l 1,6,7
 367 1901 367 1901 568 2021 c 1,8,-1
 596 2015 l 1,0,-1
475 464 m 1,9,-1
 488 0 l 1,10,-1
 178 0 l 1,11,-1
 195 436 l 1,12,-1
 178 1464 l 1,13,-1
 491 1464 l 1,14,-1
 475 464 l 1,9,-1
EndSplineSet
Position2: "'cpsp' Capital Spacing lookup 0 subtable" dx=16 dy=0 dh=33 dv=0
EndChar

StartChar: Icircumflex
Encoding: 206 206 144
Width: 670
GlyphClass: 2
Flags: W
AnchorPoint: "Anchor-1" 0 0 basechar 0
AnchorPoint: "Anchor-0" 334 1464 basechar 0
LayerCount: 2
Fore
SplineSet
54 1655 m 1,0,-1
 -2 1775 l 1,1,2
 159 1882 159 1882 302 2011 c 1,3,-1
 364 2011 l 1,4,5
 500 1892 500 1892 668 1775 c 1,6,-1
 614 1655 l 1,7,-1
 584 1655 l 1,8,9
 379 1771 379 1771 334 1798 c 1,10,11
 290 1771 290 1771 84 1655 c 1,12,-1
 54 1655 l 1,0,-1
475 464 m 1,13,-1
 488 0 l 1,14,-1
 178 0 l 1,15,-1
 195 436 l 1,16,-1
 178 1464 l 1,17,-1
 491 1464 l 1,18,-1
 475 464 l 1,13,-1
EndSplineSet
Position2: "'cpsp' Capital Spacing lookup 0 subtable" dx=16 dy=0 dh=33 dv=0
EndChar

StartChar: Idieresis
Encoding: 207 207 145
Width: 670
GlyphClass: 2
Flags: W
AnchorPoint: "Anchor-1" 0 0 basechar 0
AnchorPoint: "Anchor-0" 334 1464 basechar 0
LayerCount: 2
Fore
SplineSet
169 1959 m 0,0,1
 235 1959 235 1959 270.5 1922 c 128,-1,2
 306 1885 306 1885 306 1818 c 0,3,4
 306 1746 306 1746 266 1705 c 128,-1,5
 226 1664 226 1664 157 1664 c 0,6,7
 90 1664 90 1664 54 1701.5 c 128,-1,8
 18 1739 18 1739 18 1807 c 0,9,10
 18 1877 18 1877 58.5 1918 c 128,-1,11
 99 1959 99 1959 169 1959 c 0,0,1
516 1959 m 0,12,13
 582 1959 582 1959 618.5 1922 c 128,-1,14
 655 1885 655 1885 655 1818 c 0,15,16
 655 1746 655 1746 615 1705 c 128,-1,17
 575 1664 575 1664 505 1664 c 0,18,19
 439 1664 439 1664 402.5 1701.5 c 128,-1,20
 366 1739 366 1739 366 1807 c 0,21,22
 366 1877 366 1877 406 1918 c 128,-1,23
 446 1959 446 1959 516 1959 c 0,12,13
475 464 m 1,24,-1
 488 0 l 1,25,-1
 178 0 l 1,26,-1
 195 436 l 1,27,-1
 178 1464 l 1,28,-1
 491 1464 l 1,29,-1
 475 464 l 1,24,-1
EndSplineSet
Ligature2: "'liga' Standard Ligatures lookup 30 subtable" dieresis I
Position2: "'cpsp' Capital Spacing lookup 0 subtable" dx=16 dy=0 dh=33 dv=0
EndChar

StartChar: Eth
Encoding: 208 208 146
Width: 1545
GlyphClass: 2
Flags: W
AnchorPoint: "Anchor-1" 0 0 basechar 0
AnchorPoint: "Anchor-0" 786 1464 basechar 0
LayerCount: 2
Fore
SplineSet
236 1464 m 1,0,-1
 825 1473 l 1,1,2
 1142 1473 1142 1473 1312 1296 c 128,-1,3
 1482 1119 1482 1119 1482 787 c 0,4,5
 1482 399 1482 399 1291.5 191.5 c 128,-1,6
 1101 -16 1101 -16 746 -16 c 0,7,8
 495 -16 495 -16 236 0 c 1,9,-1
 234 0 l 1,10,-1
 252 436 l 1,11,-1
 250 625 l 1,12,-1
 48 625 l 1,13,-1
 34 646 l 1,14,-1
 46 830 l 1,15,-1
 245 830 l 1,16,-1
 234 1464 l 1,17,-1
 236 1464 l 1,0,-1
803 223 m 0,18,19
 1162 223 1162 223 1162 716 c 0,20,21
 1162 983 1162 983 1074 1105.5 c 128,-1,22
 986 1228 986 1228 800 1228 c 0,23,24
 683 1228 683 1228 543 1217 c 1,25,-1
 538 830 l 1,26,-1
 805 830 l 1,27,-1
 818 809 l 1,28,-1
 809 625 l 1,29,-1
 534 625 l 1,30,-1
 532 464 l 1,31,-1
 538 239 l 1,32,33
 698 223 698 223 803 223 c 0,18,19
EndSplineSet
Position2: "'cpsp' Capital Spacing lookup 0 subtable" dx=16 dy=0 dh=33 dv=0
EndChar

StartChar: Ntilde
Encoding: 209 209 147
Width: 1579
GlyphClass: 2
Flags: W
AnchorPoint: "Anchor-1" 786 0 basechar 0
AnchorPoint: "Anchor-0" 789 1464 basechar 0
LayerCount: 2
Fore
SplineSet
1184 1911 m 1,0,-1
 1184 1887 l 1,1,-1
 1026 1685 l 1,2,-1
 996 1673 l 1,3,4
 944 1679 944 1679 810 1716 c 128,-1,5
 676 1753 676 1753 646 1753 c 0,6,7
 633 1753 633 1753 620 1747.5 c 128,-1,8
 607 1742 607 1742 591 1728 c 128,-1,9
 575 1714 575 1714 566 1704.5 c 128,-1,10
 557 1695 557 1695 535.5 1671 c 128,-1,11
 514 1647 514 1647 505 1637 c 1,12,-1
 477 1637 l 1,13,-1
 386 1725 l 1,14,-1
 386 1750 l 1,15,-1
 548 1952 l 1,16,-1
 575 1964 l 1,17,18
 628 1957 628 1957 762.5 1921 c 128,-1,19
 897 1885 897 1885 926 1885 c 0,20,21
 936 1885 936 1885 945.5 1887.5 c 128,-1,22
 955 1890 955 1890 966 1897.5 c 128,-1,23
 977 1905 977 1905 984.5 1910.5 c 128,-1,24
 992 1916 992 1916 1005 1929.5 c 128,-1,25
 1018 1943 1018 1943 1024.5 1950 c 128,-1,26
 1031 1957 1031 1957 1047 1975 c 128,-1,27
 1063 1993 1063 1993 1069 2000 c 1,28,-1
 1096 2000 l 1,29,-1
 1184 1911 l 1,0,-1
1386 453 m 1,30,-1
 1399 0 l 1,31,-1
 1067 0 l 1,32,-1
 471 991 l 1,33,-1
 451 991 l 1,34,-1
 447 505 l 1,35,-1
 462 0 l 1,36,-1
 178 0 l 1,37,-1
 195 432 l 1,38,-1
 180 1464 l 1,39,-1
 512 1464 l 1,40,-1
 1107 473 l 1,41,-1
 1128 473 l 1,42,-1
 1119 1451 l 1,43,-1
 1407 1469 l 1,44,-1
 1386 453 l 1,30,-1
EndSplineSet
Position2: "'cpsp' Capital Spacing lookup 0 subtable" dx=16 dy=0 dh=33 dv=0
EndChar

StartChar: Ograve
Encoding: 210 210 148
Width: 1460
GlyphClass: 2
Flags: W
AnchorPoint: "Anchor-1" 0 0 basechar 0
AnchorPoint: "Anchor-0" 731 1464 basechar 0
LayerCount: 2
Fore
SplineSet
527 2017 m 1,0,-1
 555 2024 l 1,1,2
 756 1904 756 1904 1028 1766 c 1,3,-1
 978 1642 l 1,4,-1
 948 1632 l 1,5,6
 696 1718 696 1718 460 1809 c 1,7,-1
 451 1837 l 1,8,-1
 527 2017 l 1,0,-1
757 1484 m 0,9,10
 1064 1484 1064 1484 1231.5 1296 c 128,-1,11
 1399 1108 1399 1108 1399 764 c 0,12,13
 1399 387 1399 387 1218.5 182.5 c 128,-1,14
 1038 -22 1038 -22 707 -22 c 0,15,16
 399 -22 399 -22 231 170 c 128,-1,17
 63 362 63 362 63 714 c 0,18,19
 63 1083 63 1083 244 1283.5 c 128,-1,20
 425 1484 425 1484 757 1484 c 0,9,10
727 1234 m 0,21,22
 546 1234 546 1234 465 1122 c 128,-1,23
 384 1010 384 1010 384 755 c 0,24,25
 384 559 384 559 420 441 c 128,-1,26
 456 323 456 323 531.5 269.5 c 128,-1,27
 607 216 607 216 731 216 c 0,28,29
 912 216 912 216 995 330 c 128,-1,30
 1078 444 1078 444 1078 703 c 0,31,32
 1078 896 1078 896 1041.5 1012.5 c 128,-1,33
 1005 1129 1005 1129 929 1181.5 c 128,-1,34
 853 1234 853 1234 727 1234 c 0,21,22
EndSplineSet
Position2: "'cpsp' Capital Spacing lookup 0 subtable" dx=16 dy=0 dh=33 dv=0
EndChar

StartChar: Oacute
Encoding: 211 211 149
Width: 1460
GlyphClass: 2
Flags: W
AnchorPoint: "Anchor-1" 0 0 basechar 0
AnchorPoint: "Anchor-0" 731 1464 basechar 0
LayerCount: 2
Fore
SplineSet
993 2015 m 1,0,-1
 1071 1835 l 1,1,-1
 1061 1807 l 1,2,3
 825 1716 825 1716 573 1629 c 1,4,-1
 543 1639 l 1,5,-1
 493 1764 l 1,6,7
 764 1901 764 1901 966 2021 c 1,8,-1
 993 2015 l 1,0,-1
757 1484 m 0,9,10
 1064 1484 1064 1484 1231.5 1296 c 128,-1,11
 1399 1108 1399 1108 1399 764 c 0,12,13
 1399 387 1399 387 1218.5 182.5 c 128,-1,14
 1038 -22 1038 -22 707 -22 c 0,15,16
 399 -22 399 -22 231 170 c 128,-1,17
 63 362 63 362 63 714 c 0,18,19
 63 1083 63 1083 244 1283.5 c 128,-1,20
 425 1484 425 1484 757 1484 c 0,9,10
727 1234 m 0,21,22
 546 1234 546 1234 465 1122 c 128,-1,23
 384 1010 384 1010 384 755 c 0,24,25
 384 559 384 559 420 441 c 128,-1,26
 456 323 456 323 531.5 269.5 c 128,-1,27
 607 216 607 216 731 216 c 0,28,29
 912 216 912 216 995 330 c 128,-1,30
 1078 444 1078 444 1078 703 c 0,31,32
 1078 896 1078 896 1041.5 1012.5 c 128,-1,33
 1005 1129 1005 1129 929 1181.5 c 128,-1,34
 853 1234 853 1234 727 1234 c 0,21,22
EndSplineSet
Position2: "'cpsp' Capital Spacing lookup 0 subtable" dx=16 dy=0 dh=33 dv=0
EndChar

StartChar: Ocircumflex
Encoding: 212 212 150
Width: 1460
GlyphClass: 2
Flags: W
AnchorPoint: "Anchor-1" 0 0 basechar 0
AnchorPoint: "Anchor-0" 731 1464 basechar 0
LayerCount: 2
Fore
SplineSet
455 1655 m 1,0,-1
 397 1775 l 1,1,2
 563 1885 563 1885 703 2011 c 1,3,-1
 764 2011 l 1,4,5
 895 1895 895 1895 1069 1775 c 1,6,-1
 1013 1655 l 1,7,-1
 985 1655 l 1,8,9
 779 1771 779 1771 735 1798 c 1,10,11
 705 1780 705 1780 484 1655 c 1,12,-1
 455 1655 l 1,0,-1
757 1484 m 0,13,14
 1064 1484 1064 1484 1231.5 1296 c 128,-1,15
 1399 1108 1399 1108 1399 764 c 0,16,17
 1399 387 1399 387 1218.5 182.5 c 128,-1,18
 1038 -22 1038 -22 707 -22 c 0,19,20
 399 -22 399 -22 231 170 c 128,-1,21
 63 362 63 362 63 714 c 0,22,23
 63 1083 63 1083 244 1283.5 c 128,-1,24
 425 1484 425 1484 757 1484 c 0,13,14
727 1234 m 0,25,26
 546 1234 546 1234 465 1122 c 128,-1,27
 384 1010 384 1010 384 755 c 0,28,29
 384 559 384 559 420 441 c 128,-1,30
 456 323 456 323 531.5 269.5 c 128,-1,31
 607 216 607 216 731 216 c 0,32,33
 912 216 912 216 995 330 c 128,-1,34
 1078 444 1078 444 1078 703 c 0,35,36
 1078 896 1078 896 1041.5 1012.5 c 128,-1,37
 1005 1129 1005 1129 929 1181.5 c 128,-1,38
 853 1234 853 1234 727 1234 c 0,25,26
EndSplineSet
Position2: "'cpsp' Capital Spacing lookup 0 subtable" dx=16 dy=0 dh=33 dv=0
EndChar

StartChar: Otilde
Encoding: 213 213 151
Width: 1460
GlyphClass: 2
Flags: W
AnchorPoint: "Anchor-1" 0 0 basechar 0
AnchorPoint: "Anchor-0" 731 1464 basechar 0
LayerCount: 2
Fore
SplineSet
1130 1911 m 1,0,-1
 1130 1887 l 1,1,-1
 970 1685 l 1,2,-1
 941 1673 l 1,3,4
 890 1679 890 1679 755 1716 c 128,-1,5
 620 1753 620 1753 591 1753 c 0,6,7
 577 1753 577 1753 564.5 1747.5 c 128,-1,8
 552 1742 552 1742 536.5 1728 c 128,-1,9
 521 1714 521 1714 511 1704 c 128,-1,10
 501 1694 501 1694 480.5 1671 c 128,-1,11
 460 1648 460 1648 451 1637 c 1,12,-1
 423 1637 l 1,13,-1
 332 1725 l 1,14,-1
 332 1750 l 1,15,-1
 493 1952 l 1,16,-1
 521 1964 l 1,17,18
 574 1957 574 1957 708 1921 c 128,-1,19
 842 1885 842 1885 870 1885 c 0,20,21
 880 1885 880 1885 890 1887.5 c 128,-1,22
 900 1890 900 1890 910.5 1897.5 c 128,-1,23
 921 1905 921 1905 929 1910.5 c 128,-1,24
 937 1916 937 1916 950 1929.5 c 128,-1,25
 963 1943 963 1943 969 1950 c 128,-1,26
 975 1957 975 1957 991 1975 c 128,-1,27
 1007 1993 1007 1993 1013 2000 c 1,28,-1
 1041 2000 l 1,29,-1
 1130 1911 l 1,0,-1
757 1484 m 0,30,31
 1064 1484 1064 1484 1231.5 1296 c 128,-1,32
 1399 1108 1399 1108 1399 764 c 0,33,34
 1399 387 1399 387 1218.5 182.5 c 128,-1,35
 1038 -22 1038 -22 707 -22 c 0,36,37
 399 -22 399 -22 231 170 c 128,-1,38
 63 362 63 362 63 714 c 0,39,40
 63 1083 63 1083 244 1283.5 c 128,-1,41
 425 1484 425 1484 757 1484 c 0,30,31
727 1234 m 0,42,43
 546 1234 546 1234 465 1122 c 128,-1,44
 384 1010 384 1010 384 755 c 0,45,46
 384 559 384 559 420 441 c 128,-1,47
 456 323 456 323 531.5 269.5 c 128,-1,48
 607 216 607 216 731 216 c 0,49,50
 912 216 912 216 995 330 c 128,-1,51
 1078 444 1078 444 1078 703 c 0,52,53
 1078 896 1078 896 1041.5 1012.5 c 128,-1,54
 1005 1129 1005 1129 929 1181.5 c 128,-1,55
 853 1234 853 1234 727 1234 c 0,42,43
EndSplineSet
Position2: "'cpsp' Capital Spacing lookup 0 subtable" dx=16 dy=0 dh=33 dv=0
EndChar

StartChar: Odieresis
Encoding: 214 214 152
Width: 1460
GlyphClass: 2
Flags: W
AnchorPoint: "Anchor-1" 0 0 basechar 0
AnchorPoint: "Anchor-0" 731 1464 basechar 0
LayerCount: 2
Fore
SplineSet
543 1959 m 0,0,1
 609 1959 609 1959 645.5 1922 c 128,-1,2
 682 1885 682 1885 682 1818 c 0,3,4
 682 1746 682 1746 642 1705 c 128,-1,5
 602 1664 602 1664 532 1664 c 0,6,7
 465 1664 465 1664 429 1701.5 c 128,-1,8
 393 1739 393 1739 393 1807 c 0,9,10
 393 1877 393 1877 433 1918 c 128,-1,11
 473 1959 473 1959 543 1959 c 0,0,1
939 1959 m 0,12,13
 1005 1959 1005 1959 1041.5 1922 c 128,-1,14
 1078 1885 1078 1885 1078 1818 c 0,15,16
 1078 1746 1078 1746 1038 1705 c 128,-1,17
 998 1664 998 1664 928 1664 c 0,18,19
 861 1664 861 1664 825 1701.5 c 128,-1,20
 789 1739 789 1739 789 1807 c 0,21,22
 789 1877 789 1877 829 1918 c 128,-1,23
 869 1959 869 1959 939 1959 c 0,12,13
757 1484 m 0,24,25
 1064 1484 1064 1484 1231.5 1296 c 128,-1,26
 1399 1108 1399 1108 1399 764 c 0,27,28
 1399 387 1399 387 1218.5 182.5 c 128,-1,29
 1038 -22 1038 -22 707 -22 c 0,30,31
 399 -22 399 -22 231 170 c 128,-1,32
 63 362 63 362 63 714 c 0,33,34
 63 1083 63 1083 244 1283.5 c 128,-1,35
 425 1484 425 1484 757 1484 c 0,24,25
727 1234 m 0,36,37
 546 1234 546 1234 465 1122 c 128,-1,38
 384 1010 384 1010 384 755 c 0,39,40
 384 559 384 559 420 441 c 128,-1,41
 456 323 456 323 531.5 269.5 c 128,-1,42
 607 216 607 216 731 216 c 0,43,44
 912 216 912 216 995 330 c 128,-1,45
 1078 444 1078 444 1078 703 c 0,46,47
 1078 896 1078 896 1041.5 1012.5 c 128,-1,48
 1005 1129 1005 1129 929 1181.5 c 128,-1,49
 853 1234 853 1234 727 1234 c 0,36,37
EndSplineSet
Ligature2: "'liga' Standard Ligatures lookup 30 subtable" dieresis O
Position2: "'cpsp' Capital Spacing lookup 0 subtable" dx=16 dy=0 dh=33 dv=0
EndChar

StartChar: multiply
Encoding: 215 215 153
Width: 1091
GlyphClass: 2
Flags: W
LayerCount: 2
Fore
SplineSet
952 885 m 1,0,-1
 952 852 l 1,1,-1
 692 594 l 1,2,-1
 952 330 l 1,3,-1
 952 302 l 1,4,-1
 811 182 l 1,5,-1
 546 445 l 1,6,-1
 280 180 l 1,7,-1
 141 302 l 1,8,-1
 141 327 l 1,9,-1
 402 594 l 1,10,-1
 141 852 l 1,11,-1
 141 885 l 1,12,-1
 280 1002 l 1,13,-1
 546 737 l 1,14,-1
 811 1002 l 1,15,-1
 952 885 l 1,0,-1
EndSplineSet
EndChar

StartChar: Oslash
Encoding: 216 216 154
Width: 1460
GlyphClass: 2
Flags: W
AnchorPoint: "Anchor-1" 0 0 basechar 0
AnchorPoint: "Anchor-0" 729 1466 basechar 0
LayerCount: 2
Fore
SplineSet
1280 1601 m 1,0,-1
 1164 1360 l 1,1,2
 1279 1271 1279 1271 1339 1119.5 c 128,-1,3
 1399 968 1399 968 1399 764 c 0,4,5
 1399 387 1399 387 1218.5 182.5 c 128,-1,6
 1038 -22 1038 -22 707 -22 c 0,7,8
 598 -22 598 -22 514 0 c 1,9,-1
 384 -271 l 1,10,-1
 191 -200 l 1,11,-1
 178 -173 l 1,12,-1
 306 98 l 1,13,14
 63 286 63 286 63 714 c 0,15,16
 63 1083 63 1083 244 1283.5 c 128,-1,17
 425 1484 425 1484 757 1484 c 0,18,19
 861 1484 861 1484 957 1460 c 1,20,-1
 1073 1701 l 1,21,-1
 1262 1632 l 1,22,-1
 1280 1601 l 1,0,-1
731 216 m 0,23,24
 912 216 912 216 995 330 c 128,-1,25
 1078 444 1078 444 1078 703 c 0,26,27
 1078 896 1078 896 1041.5 1012.5 c 128,-1,28
 1005 1129 1005 1129 929 1181.5 c 128,-1,29
 853 1234 853 1234 727 1234 c 0,30,31
 546 1234 546 1234 465 1122 c 128,-1,32
 384 1010 384 1010 384 755 c 0,33,34
 384 559 384 559 420 441 c 128,-1,35
 456 323 456 323 531.5 269.5 c 128,-1,36
 607 216 607 216 731 216 c 0,23,24
EndSplineSet
Position2: "'cpsp' Capital Spacing lookup 0 subtable" dx=16 dy=0 dh=33 dv=0
EndChar

StartChar: Ugrave
Encoding: 217 217 155
Width: 1449
GlyphClass: 2
Flags: W
AnchorPoint: "Anchor-1" 0 0 basechar 0
AnchorPoint: "Anchor-0" 729 1464 basechar 0
LayerCount: 2
Fore
SplineSet
523 2017 m 1,0,-1
 551 2024 l 1,1,2
 752 1904 752 1904 1023 1766 c 1,3,-1
 973 1642 l 1,4,-1
 944 1632 l 1,5,6
 691 1718 691 1718 455 1809 c 1,7,-1
 445 1837 l 1,8,-1
 523 2017 l 1,0,-1
1303 720 m 1,9,-1
 1300 527 l 1,10,11
 1303 265 1303 265 1148 122.5 c 128,-1,12
 993 -20 993 -20 705 -20 c 0,13,14
 428 -20 428 -20 282 118.5 c 128,-1,15
 136 257 136 257 141 516 c 2,16,-1
 145 727 l 1,17,-1
 139 1464 l 1,18,-1
 447 1464 l 1,19,-1
 432 557 l 2,20,21
 430 392 430 392 502 312 c 128,-1,22
 574 232 574 232 723 232 c 0,23,24
 1017 232 1017 232 1013 541 c 2,25,-1
 1000 1464 l 1,26,-1
 1312 1464 l 1,27,-1
 1303 720 l 1,9,-1
EndSplineSet
Position2: "'cpsp' Capital Spacing lookup 0 subtable" dx=16 dy=0 dh=33 dv=0
EndChar

StartChar: Uacute
Encoding: 218 218 156
Width: 1449
GlyphClass: 2
Flags: W
AnchorPoint: "Anchor-1" 0 0 basechar 0
AnchorPoint: "Anchor-0" 729 1464 basechar 0
LayerCount: 2
Fore
SplineSet
991 2015 m 1,0,-1
 1069 1835 l 1,1,-1
 1059 1807 l 1,2,3
 823 1716 823 1716 571 1629 c 1,4,-1
 541 1639 l 1,5,-1
 491 1764 l 1,6,7
 762 1901 762 1901 963 2021 c 1,8,-1
 991 2015 l 1,0,-1
1303 720 m 1,9,-1
 1300 527 l 1,10,11
 1303 265 1303 265 1148 122.5 c 128,-1,12
 993 -20 993 -20 705 -20 c 0,13,14
 428 -20 428 -20 282 118.5 c 128,-1,15
 136 257 136 257 141 516 c 2,16,-1
 145 727 l 1,17,-1
 139 1464 l 1,18,-1
 447 1464 l 1,19,-1
 432 557 l 2,20,21
 430 392 430 392 502 312 c 128,-1,22
 574 232 574 232 723 232 c 0,23,24
 1017 232 1017 232 1013 541 c 2,25,-1
 1000 1464 l 1,26,-1
 1312 1464 l 1,27,-1
 1303 720 l 1,9,-1
EndSplineSet
Position2: "'cpsp' Capital Spacing lookup 0 subtable" dx=16 dy=0 dh=33 dv=0
EndChar

StartChar: Ucircumflex
Encoding: 219 219 157
Width: 1449
GlyphClass: 2
Flags: W
AnchorPoint: "Anchor-1" 0 0 basechar 0
AnchorPoint: "Anchor-0" 729 1464 basechar 0
LayerCount: 2
Fore
SplineSet
451 1655 m 1,0,-1
 393 1775 l 1,1,2
 559 1885 559 1885 698 2011 c 1,3,-1
 759 2011 l 1,4,5
 895 1892 895 1892 1063 1775 c 1,6,-1
 1009 1655 l 1,7,-1
 980 1655 l 1,8,9
 759 1780 759 1780 729 1798 c 1,10,11
 685 1771 685 1771 480 1655 c 1,12,-1
 451 1655 l 1,0,-1
1303 720 m 1,13,-1
 1300 527 l 1,14,15
 1303 265 1303 265 1148 122.5 c 128,-1,16
 993 -20 993 -20 705 -20 c 0,17,18
 428 -20 428 -20 282 118.5 c 128,-1,19
 136 257 136 257 141 516 c 2,20,-1
 145 727 l 1,21,-1
 139 1464 l 1,22,-1
 447 1464 l 1,23,-1
 432 557 l 2,24,25
 430 392 430 392 502 312 c 128,-1,26
 574 232 574 232 723 232 c 0,27,28
 1017 232 1017 232 1013 541 c 2,29,-1
 1000 1464 l 1,30,-1
 1312 1464 l 1,31,-1
 1303 720 l 1,13,-1
EndSplineSet
Position2: "'cpsp' Capital Spacing lookup 0 subtable" dx=16 dy=0 dh=33 dv=0
EndChar

StartChar: Udieresis
Encoding: 220 220 158
Width: 1449
GlyphClass: 2
Flags: W
AnchorPoint: "Anchor-1" 0 0 basechar 0
AnchorPoint: "Anchor-0" 729 1464 basechar 0
LayerCount: 2
Fore
SplineSet
541 1959 m 0,0,1
 607 1959 607 1959 643 1922 c 128,-1,2
 679 1885 679 1885 679 1818 c 0,3,4
 679 1746 679 1746 639 1705 c 128,-1,5
 599 1664 599 1664 529 1664 c 0,6,7
 463 1664 463 1664 427 1701.5 c 128,-1,8
 391 1739 391 1739 391 1807 c 0,9,10
 391 1877 391 1877 431 1918 c 128,-1,11
 471 1959 471 1959 541 1959 c 0,0,1
937 1959 m 0,12,13
 1003 1959 1003 1959 1039.5 1922 c 128,-1,14
 1076 1885 1076 1885 1076 1818 c 0,15,16
 1076 1746 1076 1746 1036 1705 c 128,-1,17
 996 1664 996 1664 926 1664 c 0,18,19
 859 1664 859 1664 823 1701.5 c 128,-1,20
 787 1739 787 1739 787 1807 c 0,21,22
 787 1877 787 1877 827 1918 c 128,-1,23
 867 1959 867 1959 937 1959 c 0,12,13
1303 720 m 1,24,-1
 1300 527 l 1,25,26
 1303 265 1303 265 1148 122.5 c 128,-1,27
 993 -20 993 -20 705 -20 c 0,28,29
 428 -20 428 -20 282 118.5 c 128,-1,30
 136 257 136 257 141 516 c 2,31,-1
 145 727 l 1,32,-1
 139 1464 l 1,33,-1
 447 1464 l 1,34,-1
 432 557 l 2,35,36
 430 392 430 392 502 312 c 128,-1,37
 574 232 574 232 723 232 c 0,38,39
 1017 232 1017 232 1013 541 c 2,40,-1
 1000 1464 l 1,41,-1
 1312 1464 l 1,42,-1
 1303 720 l 1,24,-1
EndSplineSet
Position2: "'cpsp' Capital Spacing lookup 0 subtable" dx=16 dy=0 dh=33 dv=0
EndChar

StartChar: Yacute
Encoding: 221 221 159
Width: 1267
GlyphClass: 2
Flags: W
AnchorPoint: "Anchor-1" 0 0 basechar 0
AnchorPoint: "Anchor-0" 627 1464 basechar 0
LayerCount: 2
Fore
SplineSet
438 1639 m 1,0,-1
 388 1764 l 1,1,2
 660 1901 660 1901 861 2021 c 1,3,-1
 889 2015 l 1,4,-1
 966 1835 l 1,5,-1
 957 1807 l 1,6,7
 721 1716 721 1716 468 1629 c 1,8,-1
 438 1639 l 1,0,-1
757 407 m 1,9,-1
 770 0 l 1,10,-1
 462 0 l 1,11,-1
 480 407 l 1,12,-1
 477 488 l 1,13,-1
 9 1464 l 1,14,-1
 334 1464 l 1,15,-1
 369 1362 l 1,16,-1
 616 805 l 1,17,-1
 636 805 l 1,18,-1
 914 1353 l 1,19,-1
 955 1464 l 1,20,-1
 1273 1464 l 1,21,-1
 761 498 l 1,22,-1
 757 407 l 1,9,-1
EndSplineSet
Ligature2: "'liga' Standard Ligatures lookup 30 subtable" acute Y
Position2: "'cpsp' Capital Spacing lookup 0 subtable" dx=16 dy=0 dh=33 dv=0
EndChar

StartChar: Thorn
Encoding: 222 222 160
Width: 1274
GlyphClass: 2
Flags: W
LayerCount: 2
Fore
SplineSet
488 1234 m 1,0,-1
 748 1234 l 2,1,2
 982 1234 982 1234 1105 1120.5 c 128,-1,3
 1228 1007 1228 1007 1228 785 c 0,4,5
 1228 528 1228 528 1072 386.5 c 128,-1,6
 916 245 916 245 627 245 c 1,7,-1
 482 243 l 1,8,-1
 488 0 l 1,9,-1
 178 0 l 1,10,-1
 193 436 l 1,11,-1
 182 1232 l 1,12,-1
 178 1464 l 1,13,-1
 493 1464 l 1,14,-1
 488 1234 l 1,0,-1
477 482 m 1,15,-1
 692 473 l 1,16,17
 796 501 796 501 849 570.5 c 128,-1,18
 902 640 902 640 902 761 c 0,19,20
 902 886 902 886 841.5 944 c 128,-1,21
 781 1002 781 1002 650 1007 c 1,22,-1
 486 1000 l 1,23,-1
 477 482 l 1,15,-1
EndSplineSet
Position2: "'cpsp' Capital Spacing lookup 0 subtable" dx=16 dy=0 dh=33 dv=0
EndChar

StartChar: germandbls
Encoding: 223 223 161
Width: 1381
GlyphClass: 2
Flags: W
LayerCount: 2
Fore
SplineSet
946 850 m 0,0,1
 946 808 946 808 969.5 773 c 128,-1,2
 993 738 993 738 1031.5 711 c 128,-1,3
 1070 684 1070 684 1116 658 c 128,-1,4
 1162 632 1162 632 1208 601.5 c 128,-1,5
 1254 571 1254 571 1292 534.5 c 128,-1,6
 1330 498 1330 498 1354 444.5 c 128,-1,7
 1378 391 1378 391 1378 325 c 0,8,9
 1378 256 1378 256 1351.5 194.5 c 128,-1,10
 1325 133 1325 133 1274.5 84 c 128,-1,11
 1224 35 1224 35 1142.5 6.5 c 128,-1,12
 1061 -22 1061 -22 959 -22 c 0,13,14
 799 -22 799 -22 634 46 c 1,15,-1
 670 282 l 1,16,-1
 698 300 l 1,17,18
 767 239 767 239 845.5 205 c 128,-1,19
 924 171 924 171 987 171 c 0,20,21
 1047 171 1047 171 1082 200 c 128,-1,22
 1117 229 1117 229 1117 273 c 0,23,24
 1117 307 1117 307 1093 337 c 128,-1,25
 1069 367 1069 367 1031 392.5 c 128,-1,26
 993 418 993 418 946.5 444 c 128,-1,27
 900 470 900 470 854 503 c 128,-1,28
 808 536 808 536 770 575 c 128,-1,29
 732 614 732 614 708 671 c 128,-1,30
 684 728 684 728 684 796 c 0,31,32
 684 845 684 845 696.5 886.5 c 128,-1,33
 709 928 709 928 729.5 956.5 c 128,-1,34
 750 985 750 985 775 1010.5 c 128,-1,35
 800 1036 800 1036 824.5 1059.5 c 128,-1,36
 849 1083 849 1083 869.5 1107 c 128,-1,37
 890 1131 890 1131 903 1163.5 c 128,-1,38
 916 1196 916 1196 916 1234 c 0,39,40
 916 1310 916 1310 868 1348 c 128,-1,41
 820 1386 820 1386 731 1386 c 0,42,43
 628 1386 628 1386 569.5 1328 c 128,-1,44
 511 1270 511 1270 509 1148 c 2,45,-1
 498 464 l 1,46,-1
 514 0 l 1,47,-1
 211 0 l 1,48,-1
 230 432 l 1,49,-1
 223 866 l 1,50,-1
 68 866 l 1,51,-1
 59 882 l 1,52,-1
 73 1048 l 1,53,-1
 221 1048 l 1,54,-1
 221 1114 l 2,55,56
 221 1268 221 1268 287.5 1378.5 c 128,-1,57
 354 1489 354 1489 473 1545 c 128,-1,58
 592 1601 592 1601 750 1601 c 0,59,60
 854 1601 854 1601 935 1576 c 128,-1,61
 1016 1551 1016 1551 1066.5 1507.5 c 128,-1,62
 1117 1464 1117 1464 1143 1406 c 128,-1,63
 1169 1348 1169 1348 1169 1280 c 0,64,65
 1169 1233 1169 1233 1156.5 1191.5 c 128,-1,66
 1144 1150 1144 1150 1124.5 1119.5 c 128,-1,67
 1105 1089 1105 1089 1081 1061 c 128,-1,68
 1057 1033 1057 1033 1033.5 1008.5 c 128,-1,69
 1010 984 1010 984 990 960.5 c 128,-1,70
 970 937 970 937 958 908.5 c 128,-1,71
 946 880 946 880 946 850 c 0,0,1
EndSplineSet
Substitution2: "Single Substitution lookup 41 subtable" germandbls.calt
Substitution2: "'case' Case-Sensitive Forms lookup 28 subtable" Germandbls
Substitution2: "'aalt' Access All Alternates lookup 0 subtable" Germandbls
EndChar

StartChar: agrave
Encoding: 224 224 162
Width: 1093
GlyphClass: 2
Flags: W
AnchorPoint: "Anchor-1" 0 0 basechar 0
AnchorPoint: "Anchor-0" 531 1056 basechar 0
LayerCount: 2
Fore
SplineSet
366 1644 m 1,0,-1
 395 1646 l 1,1,2
 550 1502 550 1502 807 1298 c 1,3,-1
 735 1184 l 1,4,-1
 705 1182 l 1,5,6
 593 1247 593 1247 262 1451 c 1,7,-1
 256 1480 l 1,8,-1
 366 1644 l 1,0,-1
555 1078 m 0,9,10
 730 1078 730 1078 829 999 c 128,-1,11
 928 920 928 920 928 779 c 0,12,13
 928 740 928 740 915 525.5 c 128,-1,14
 902 311 902 311 902 275 c 0,15,16
 902 237 902 237 914 221.5 c 128,-1,17
 926 206 926 206 957 206 c 0,18,19
 974 206 974 206 1016 216 c 1,20,-1
 1037 198 l 1,21,-1
 1011 39 l 1,22,23
 935 -9 935 -9 844 -18 c 1,24,25
 774 -11 774 -11 728.5 31.5 c 128,-1,26
 683 74 683 74 668 148 c 1,27,-1
 653 148 l 1,28,29
 544 30 544 30 421 -20 c 1,30,31
 257 -18 257 -18 162.5 66 c 128,-1,32
 68 150 68 150 68 295 c 0,33,34
 68 516 68 516 302 562 c 1,35,-1
 650 627 l 1,36,-1
 650 720 l 2,37,38
 650 868 650 868 505 868 c 0,39,40
 433 868 433 868 355 836.5 c 128,-1,41
 277 805 277 805 180 737 c 1,42,-1
 157 750 l 1,43,-1
 123 950 l 1,44,45
 326 1078 326 1078 555 1078 c 0,9,10
648 475 m 1,46,-1
 410 423 l 2,47,48
 371 414 371 414 353.5 392.5 c 128,-1,49
 336 371 336 371 336 327 c 0,50,51
 336 268 336 268 368 235 c 128,-1,52
 400 202 400 202 457 202 c 0,53,54
 547 202 547 202 644 306 c 1,55,-1
 648 475 l 1,46,-1
EndSplineSet
Substitution2: "'case' Case-Sensitive Forms lookup 28 subtable" Agrave
Substitution2: "'aalt' Access All Alternates lookup 0 subtable" Agrave
EndChar

StartChar: aacute
Encoding: 225 225 163
Width: 1093
GlyphClass: 2
Flags: W
AnchorPoint: "Anchor-1" 0 0 basechar 0
AnchorPoint: "Anchor-0" 531 1056 basechar 0
LayerCount: 2
Fore
SplineSet
753 1644 m 1,0,-1
 861 1480 l 1,1,-1
 857 1451 l 1,2,3
 526 1247 526 1247 414 1182 c 1,4,-1
 384 1184 l 1,5,-1
 312 1298 l 1,6,7
 562 1496 562 1496 723 1646 c 1,8,-1
 753 1644 l 1,0,-1
555 1078 m 0,9,10
 730 1078 730 1078 829 999 c 128,-1,11
 928 920 928 920 928 779 c 0,12,13
 928 740 928 740 915 525.5 c 128,-1,14
 902 311 902 311 902 275 c 0,15,16
 902 237 902 237 914 221.5 c 128,-1,17
 926 206 926 206 957 206 c 0,18,19
 974 206 974 206 1016 216 c 1,20,-1
 1037 198 l 1,21,-1
 1011 39 l 1,22,23
 935 -9 935 -9 844 -18 c 1,24,25
 774 -11 774 -11 728.5 31.5 c 128,-1,26
 683 74 683 74 668 148 c 1,27,-1
 653 148 l 1,28,29
 544 30 544 30 421 -20 c 1,30,31
 257 -18 257 -18 162.5 66 c 128,-1,32
 68 150 68 150 68 295 c 0,33,34
 68 516 68 516 302 562 c 1,35,-1
 650 627 l 1,36,-1
 650 720 l 2,37,38
 650 868 650 868 505 868 c 0,39,40
 433 868 433 868 355 836.5 c 128,-1,41
 277 805 277 805 180 737 c 1,42,-1
 157 750 l 1,43,-1
 123 950 l 1,44,45
 326 1078 326 1078 555 1078 c 0,9,10
648 475 m 1,46,-1
 410 423 l 2,47,48
 371 414 371 414 353.5 392.5 c 128,-1,49
 336 371 336 371 336 327 c 0,50,51
 336 268 336 268 368 235 c 128,-1,52
 400 202 400 202 457 202 c 0,53,54
 547 202 547 202 644 306 c 1,55,-1
 648 475 l 1,46,-1
EndSplineSet
Substitution2: "'case' Case-Sensitive Forms lookup 28 subtable" Aacute
Substitution2: "'aalt' Access All Alternates lookup 0 subtable" Aacute
EndChar

StartChar: acircumflex
Encoding: 226 226 164
Width: 1093
GlyphClass: 2
Flags: W
AnchorPoint: "Anchor-1" 0 0 basechar 0
AnchorPoint: "Anchor-0" 531 1056 basechar 0
LayerCount: 2
Fore
SplineSet
256 1195 m 1,0,-1
 180 1312 l 1,1,2
 317 1437 317 1437 501 1632 c 1,3,-1
 566 1632 l 1,4,5
 739 1443 739 1443 885 1312 c 1,6,-1
 809 1195 l 1,7,-1
 779 1195 l 1,8,9
 630 1314 630 1314 532 1405 c 1,10,11
 442 1321 442 1321 286 1195 c 1,12,-1
 256 1195 l 1,0,-1
555 1078 m 0,13,14
 730 1078 730 1078 829 999 c 128,-1,15
 928 920 928 920 928 779 c 0,16,17
 928 740 928 740 915 525.5 c 128,-1,18
 902 311 902 311 902 275 c 0,19,20
 902 237 902 237 914 221.5 c 128,-1,21
 926 206 926 206 957 206 c 0,22,23
 974 206 974 206 1016 216 c 1,24,-1
 1037 198 l 1,25,-1
 1011 39 l 1,26,27
 935 -9 935 -9 844 -18 c 1,28,29
 774 -11 774 -11 728.5 31.5 c 128,-1,30
 683 74 683 74 668 148 c 1,31,-1
 653 148 l 1,32,33
 544 30 544 30 421 -20 c 1,34,35
 257 -18 257 -18 162.5 66 c 128,-1,36
 68 150 68 150 68 295 c 0,37,38
 68 516 68 516 302 562 c 1,39,-1
 650 627 l 1,40,-1
 650 720 l 2,41,42
 650 868 650 868 505 868 c 0,43,44
 433 868 433 868 355 836.5 c 128,-1,45
 277 805 277 805 180 737 c 1,46,-1
 157 750 l 1,47,-1
 123 950 l 1,48,49
 326 1078 326 1078 555 1078 c 0,13,14
648 475 m 1,50,-1
 410 423 l 2,51,52
 371 414 371 414 353.5 392.5 c 128,-1,53
 336 371 336 371 336 327 c 0,54,55
 336 268 336 268 368 235 c 128,-1,56
 400 202 400 202 457 202 c 0,57,58
 547 202 547 202 644 306 c 1,59,-1
 648 475 l 1,50,-1
EndSplineSet
Substitution2: "'case' Case-Sensitive Forms lookup 28 subtable" Acircumflex
Substitution2: "'aalt' Access All Alternates lookup 0 subtable" Acircumflex
EndChar

StartChar: atilde
Encoding: 227 227 165
Width: 1093
GlyphClass: 2
Flags: W
AnchorPoint: "Anchor-1" 0 0 basechar 0
AnchorPoint: "Anchor-0" 531 1056 basechar 0
LayerCount: 2
Fore
SplineSet
928 1505 m 1,0,-1
 928 1480 l 1,1,-1
 768 1278 l 1,2,-1
 739 1267 l 1,3,4
 688 1273 688 1273 553 1309 c 128,-1,5
 418 1345 418 1345 388 1345 c 0,6,7
 375 1345 375 1345 362.5 1340 c 128,-1,8
 350 1335 350 1335 334 1320.5 c 128,-1,9
 318 1306 318 1306 308.5 1297 c 128,-1,10
 299 1288 299 1288 277.5 1263.5 c 128,-1,11
 256 1239 256 1239 248 1230 c 1,12,-1
 221 1230 l 1,13,-1
 130 1319 l 1,14,-1
 130 1343 l 1,15,-1
 291 1546 l 1,16,-1
 319 1557 l 1,17,18
 372 1551 372 1551 506 1514 c 128,-1,19
 640 1477 640 1477 668 1477 c 0,20,21
 678 1477 678 1477 688 1480 c 128,-1,22
 698 1483 698 1483 708.5 1490 c 128,-1,23
 719 1497 719 1497 727 1503.5 c 128,-1,24
 735 1510 735 1510 747.5 1523 c 128,-1,25
 760 1536 760 1536 767 1544 c 128,-1,26
 774 1552 774 1552 789 1569 c 128,-1,27
 804 1586 804 1586 811 1594 c 1,28,-1
 839 1594 l 1,29,-1
 928 1505 l 1,0,-1
555 1078 m 0,30,31
 730 1078 730 1078 829 999 c 128,-1,32
 928 920 928 920 928 779 c 0,33,34
 928 740 928 740 915 525.5 c 128,-1,35
 902 311 902 311 902 275 c 0,36,37
 902 237 902 237 914 221.5 c 128,-1,38
 926 206 926 206 957 206 c 0,39,40
 974 206 974 206 1016 216 c 1,41,-1
 1037 198 l 1,42,-1
 1011 39 l 1,43,44
 935 -9 935 -9 844 -18 c 1,45,46
 774 -11 774 -11 728.5 31.5 c 128,-1,47
 683 74 683 74 668 148 c 1,48,-1
 653 148 l 1,49,50
 544 30 544 30 421 -20 c 1,51,52
 257 -18 257 -18 162.5 66 c 128,-1,53
 68 150 68 150 68 295 c 0,54,55
 68 516 68 516 302 562 c 1,56,-1
 650 627 l 1,57,-1
 650 720 l 2,58,59
 650 868 650 868 505 868 c 0,60,61
 433 868 433 868 355 836.5 c 128,-1,62
 277 805 277 805 180 737 c 1,63,-1
 157 750 l 1,64,-1
 123 950 l 1,65,66
 326 1078 326 1078 555 1078 c 0,30,31
648 475 m 1,67,-1
 410 423 l 2,68,69
 371 414 371 414 353.5 392.5 c 128,-1,70
 336 371 336 371 336 327 c 0,71,72
 336 268 336 268 368 235 c 128,-1,73
 400 202 400 202 457 202 c 0,74,75
 547 202 547 202 644 306 c 1,76,-1
 648 475 l 1,67,-1
EndSplineSet
Substitution2: "'case' Case-Sensitive Forms lookup 28 subtable" Atilde
Substitution2: "'aalt' Access All Alternates lookup 0 subtable" Atilde
EndChar

StartChar: adieresis
Encoding: 228 228 166
Width: 1093
GlyphClass: 2
Flags: W
AnchorPoint: "Anchor-1" 0 0 basechar 0
AnchorPoint: "Anchor-0" 531 1056 basechar 0
LayerCount: 2
Fore
SplineSet
343 1553 m 0,0,1
 409 1553 409 1553 445.5 1516 c 128,-1,2
 482 1479 482 1479 482 1412 c 0,3,4
 482 1340 482 1340 442 1299 c 128,-1,5
 402 1258 402 1258 332 1258 c 0,6,7
 265 1258 265 1258 229 1295 c 128,-1,8
 193 1332 193 1332 193 1401 c 0,9,10
 193 1471 193 1471 233 1512 c 128,-1,11
 273 1553 273 1553 343 1553 c 0,0,1
739 1553 m 0,12,13
 806 1553 806 1553 842 1516 c 128,-1,14
 878 1479 878 1479 878 1412 c 0,15,16
 878 1340 878 1340 837.5 1299 c 128,-1,17
 797 1258 797 1258 727 1258 c 0,18,19
 661 1258 661 1258 624.5 1295 c 128,-1,20
 588 1332 588 1332 588 1401 c 0,21,22
 588 1471 588 1471 628.5 1512 c 128,-1,23
 669 1553 669 1553 739 1553 c 0,12,13
555 1078 m 0,24,25
 730 1078 730 1078 829 999 c 128,-1,26
 928 920 928 920 928 779 c 0,27,28
 928 740 928 740 915 525.5 c 128,-1,29
 902 311 902 311 902 275 c 0,30,31
 902 237 902 237 914 221.5 c 128,-1,32
 926 206 926 206 957 206 c 0,33,34
 974 206 974 206 1016 216 c 1,35,-1
 1037 198 l 1,36,-1
 1011 39 l 1,37,38
 935 -9 935 -9 844 -18 c 1,39,40
 774 -11 774 -11 728.5 31.5 c 128,-1,41
 683 74 683 74 668 148 c 1,42,-1
 653 148 l 1,43,44
 544 30 544 30 421 -20 c 1,45,46
 257 -18 257 -18 162.5 66 c 128,-1,47
 68 150 68 150 68 295 c 0,48,49
 68 516 68 516 302 562 c 1,50,-1
 650 627 l 1,51,-1
 650 720 l 2,52,53
 650 868 650 868 505 868 c 0,54,55
 433 868 433 868 355 836.5 c 128,-1,56
 277 805 277 805 180 737 c 1,57,-1
 157 750 l 1,58,-1
 123 950 l 1,59,60
 326 1078 326 1078 555 1078 c 0,24,25
648 475 m 1,61,-1
 410 423 l 2,62,63
 371 414 371 414 353.5 392.5 c 128,-1,64
 336 371 336 371 336 327 c 0,65,66
 336 268 336 268 368 235 c 128,-1,67
 400 202 400 202 457 202 c 0,68,69
 547 202 547 202 644 306 c 1,70,-1
 648 475 l 1,61,-1
EndSplineSet
Substitution2: "'case' Case-Sensitive Forms lookup 28 subtable" Adieresis
Substitution2: "'aalt' Access All Alternates lookup 0 subtable" Adieresis
EndChar

StartChar: aring
Encoding: 229 229 167
Width: 1093
GlyphClass: 2
Flags: W
AnchorPoint: "Anchor-1" 0 0 basechar 0
AnchorPoint: "Anchor-0" 531 1056 basechar 0
LayerCount: 2
Fore
SplineSet
534 1646 m 0,0,1
 638 1646 638 1646 693 1591 c 128,-1,2
 748 1536 748 1536 748 1439 c 0,3,4
 748 1333 748 1333 687.5 1275 c 128,-1,5
 627 1217 627 1217 523 1217 c 0,6,7
 424 1217 424 1217 368 1271.5 c 128,-1,8
 312 1326 312 1326 312 1430 c 0,9,10
 312 1533 312 1533 369.5 1589.5 c 128,-1,11
 427 1646 427 1646 534 1646 c 0,0,1
527 1516 m 0,12,13
 436 1516 436 1516 436 1432 c 0,14,15
 436 1387 436 1387 460.5 1364 c 128,-1,16
 485 1341 485 1341 529 1341 c 0,17,18
 623 1341 623 1341 623 1427 c 0,19,20
 623 1516 623 1516 527 1516 c 0,12,13
555 1078 m 0,21,22
 730 1078 730 1078 829 999 c 128,-1,23
 928 920 928 920 928 779 c 0,24,25
 928 740 928 740 915 525.5 c 128,-1,26
 902 311 902 311 902 275 c 0,27,28
 902 237 902 237 914 221.5 c 128,-1,29
 926 206 926 206 957 206 c 0,30,31
 974 206 974 206 1016 216 c 1,32,-1
 1037 198 l 1,33,-1
 1011 39 l 1,34,35
 935 -9 935 -9 844 -18 c 1,36,37
 774 -11 774 -11 728.5 31.5 c 128,-1,38
 683 74 683 74 668 148 c 1,39,-1
 653 148 l 1,40,41
 544 30 544 30 421 -20 c 1,42,43
 257 -18 257 -18 162.5 66 c 128,-1,44
 68 150 68 150 68 295 c 0,45,46
 68 516 68 516 302 562 c 1,47,-1
 650 627 l 1,48,-1
 650 720 l 2,49,50
 650 868 650 868 505 868 c 0,51,52
 433 868 433 868 355 836.5 c 128,-1,53
 277 805 277 805 180 737 c 1,54,-1
 157 750 l 1,55,-1
 123 950 l 1,56,57
 326 1078 326 1078 555 1078 c 0,21,22
648 475 m 1,58,-1
 410 423 l 2,59,60
 371 414 371 414 353.5 392.5 c 128,-1,61
 336 371 336 371 336 327 c 0,62,63
 336 268 336 268 368 235 c 128,-1,64
 400 202 400 202 457 202 c 0,65,66
 547 202 547 202 644 306 c 1,67,-1
 648 475 l 1,58,-1
EndSplineSet
Substitution2: "'case' Case-Sensitive Forms lookup 28 subtable" Aring
Substitution2: "'aalt' Access All Alternates lookup 0 subtable" Aring
EndChar

StartChar: ae
Encoding: 230 230 168
Width: 1577
GlyphClass: 2
Flags: W
AnchorPoint: "Anchor-1" 0 0 basechar 0
AnchorPoint: "Anchor-0" 795 1056 basechar 0
LayerCount: 2
Fore
SplineSet
1121 1076 m 0,0,1
 1316 1076 1316 1076 1423.5 949.5 c 128,-1,2
 1531 823 1531 823 1516 591 c 1,3,-1
 1486 555 l 1,4,-1
 882 484 l 1,5,6
 893 338 893 338 957 269 c 128,-1,7
 1021 200 1021 200 1150 200 c 0,8,9
 1218 200 1218 200 1296.5 221 c 128,-1,10
 1375 242 1375 242 1449 282 c 1,11,-1
 1473 266 l 1,12,-1
 1430 46 l 1,13,14
 1361 15 1361 15 1279 -3.5 c 128,-1,15
 1197 -22 1197 -22 1126 -22 c 0,16,17
 993 -22 993 -22 893 27 c 128,-1,18
 793 76 793 76 731 173 c 1,19,20
 606 41 606 41 447 -20 c 1,21,22
 271 -18 271 -18 167 63 c 128,-1,23
 63 144 63 144 63 291 c 0,24,25
 63 402 63 402 123.5 476.5 c 128,-1,26
 184 551 184 551 297 564 c 2,27,-1
 638 601 l 1,28,-1
 638 720 l 2,29,30
 638 795 638 795 603 831.5 c 128,-1,31
 568 868 568 868 495 868 c 0,32,33
 362 868 362 868 173 735 c 1,34,-1
 152 748 l 1,35,-1
 115 952 l 1,36,37
 212 1014 212 1014 319.5 1046 c 128,-1,38
 427 1078 427 1078 532 1078 c 0,39,40
 727 1078 727 1078 809 957 c 1,41,42
 869 1015 869 1015 949.5 1045.5 c 128,-1,43
 1030 1076 1030 1076 1121 1076 c 0,0,1
1091 878 m 1,44,45
 1002 876 1002 876 941 806 c 128,-1,46
 880 736 880 736 880 634 c 2,47,-1
 880 632 l 1,48,-1
 1250 684 l 1,49,50
 1251 781 1251 781 1210 829.5 c 128,-1,51
 1169 878 1169 878 1091 878 c 1,44,45
457 204 m 0,52,53
 501 204 501 204 545 228.5 c 128,-1,54
 589 253 589 253 659 316 c 1,55,56
 644 402 644 402 642 451 c 1,57,-1
 423 418 l 2,58,59
 375 410 375 410 354.5 387 c 128,-1,60
 334 364 334 364 334 323 c 0,61,62
 334 266 334 266 367 235 c 128,-1,63
 400 204 400 204 457 204 c 0,52,53
EndSplineSet
Substitution2: "'case' Case-Sensitive Forms lookup 28 subtable" AE
Substitution2: "'aalt' Access All Alternates lookup 0 subtable" AE
EndChar

StartChar: ccedilla
Encoding: 231 231 169
Width: 874
GlyphClass: 2
Flags: W
AnchorPoint: "Anchor-1" 509 0 basechar 0
AnchorPoint: "Anchor-0" 546 1056 basechar 0
LayerCount: 2
Fore
SplineSet
588 216 m 0,0,1
 690 216 690 216 814 273 c 1,2,-1
 839 254 l 1,3,-1
 807 20 l 1,4,5
 691 -17 691 -17 575 -20 c 1,6,-1
 555 -109 l 1,7,-1
 632 -152 l 2,8,9
 682 -180 682 -180 703.5 -212.5 c 128,-1,10
 725 -245 725 -245 725 -286 c 0,11,12
 725 -362 725 -362 666.5 -409.5 c 128,-1,13
 608 -457 608 -457 512 -457 c 0,14,15
 409 -457 409 -457 325 -393 c 1,16,-1
 345 -266 l 1,17,-1
 360 -259 l 1,18,19
 428 -327 428 -327 493 -327 c 0,20,21
 548 -327 548 -327 548 -280 c 0,22,23
 548 -254 548 -254 509 -234 c 1,24,-1
 397 -171 l 1,25,-1
 434 -16 l 1,26,27
 258 15 258 15 161.5 153.5 c 128,-1,28
 65 292 65 292 65 516 c 0,29,30
 65 779 65 779 199.5 928.5 c 128,-1,31
 334 1078 334 1078 573 1078 c 0,32,33
 734 1078 734 1078 850 1021 c 1,34,-1
 800 779 l 1,35,-1
 775 768 l 1,36,37
 659 832 659 832 571 832 c 0,38,39
 465 832 465 832 408.5 757.5 c 128,-1,40
 352 683 352 683 352 543 c 0,41,42
 352 385 352 385 413 300.5 c 128,-1,43
 474 216 474 216 588 216 c 0,0,1
EndSplineSet
Substitution2: "'case' Case-Sensitive Forms lookup 28 subtable" Ccedilla
Substitution2: "'aalt' Access All Alternates lookup 0 subtable" Ccedilla
EndChar

StartChar: egrave
Encoding: 232 232 170
Width: 1070
GlyphClass: 2
Flags: W
AnchorPoint: "Anchor-1" 268 0 basechar 0
AnchorPoint: "Anchor-0" 566 1054 basechar 0
LayerCount: 2
Fore
SplineSet
768 1184 m 1,0,-1
 739 1182 l 1,1,2
 608 1258 608 1258 295 1451 c 1,3,-1
 291 1480 l 1,4,-1
 400 1644 l 1,5,-1
 430 1646 l 1,6,7
 584 1502 584 1502 841 1298 c 1,8,-1
 768 1184 l 1,0,-1
948 491 m 1,9,-1
 343 488 l 1,10,11
 351 346 351 346 420 274 c 128,-1,12
 489 202 489 202 625 202 c 0,13,14
 771 202 771 202 932 284 c 1,15,-1
 957 269 l 1,16,-1
 916 46 l 1,17,18
 755 -22 755 -22 596 -22 c 0,19,20
 346 -22 346 -22 205.5 123 c 128,-1,21
 65 268 65 268 65 523 c 0,22,23
 65 780 65 780 206.5 928 c 128,-1,24
 348 1076 348 1076 588 1076 c 0,25,26
 785 1076 785 1076 892.5 965.5 c 128,-1,27
 1000 855 1000 855 1000 659 c 0,28,29
 1000 598 1000 598 991 534 c 1,30,-1
 948 491 l 1,9,-1
735 666 m 1,31,-1
 739 694 l 1,32,33
 739 786 739 786 696.5 832 c 128,-1,34
 654 878 654 878 577 878 c 0,35,36
 487 878 487 878 429 820.5 c 128,-1,37
 371 763 371 763 350 655 c 1,38,-1
 735 666 l 1,31,-1
EndSplineSet
Substitution2: "'case' Case-Sensitive Forms lookup 28 subtable" Egrave
Substitution2: "'aalt' Access All Alternates lookup 0 subtable" Egrave
EndChar

StartChar: eacute
Encoding: 233 233 171
Width: 1070
GlyphClass: 2
Flags: W
AnchorPoint: "Anchor-1" 268 0 basechar 0
AnchorPoint: "Anchor-0" 566 1054 basechar 0
LayerCount: 2
Fore
SplineSet
418 1184 m 1,0,-1
 345 1298 l 1,1,2
 603 1502 603 1502 757 1646 c 1,3,-1
 787 1644 l 1,4,-1
 896 1480 l 1,5,-1
 891 1451 l 1,6,7
 578 1258 578 1258 447 1182 c 1,8,-1
 418 1184 l 1,0,-1
948 491 m 1,9,-1
 343 488 l 1,10,11
 351 346 351 346 420 274 c 128,-1,12
 489 202 489 202 625 202 c 0,13,14
 771 202 771 202 932 284 c 1,15,-1
 957 269 l 1,16,-1
 916 46 l 1,17,18
 755 -22 755 -22 596 -22 c 0,19,20
 346 -22 346 -22 205.5 123 c 128,-1,21
 65 268 65 268 65 523 c 0,22,23
 65 780 65 780 206.5 928 c 128,-1,24
 348 1076 348 1076 588 1076 c 0,25,26
 785 1076 785 1076 892.5 965.5 c 128,-1,27
 1000 855 1000 855 1000 659 c 0,28,29
 1000 598 1000 598 991 534 c 1,30,-1
 948 491 l 1,9,-1
735 666 m 1,31,-1
 739 694 l 1,32,33
 739 786 739 786 696.5 832 c 128,-1,34
 654 878 654 878 577 878 c 0,35,36
 487 878 487 878 429 820.5 c 128,-1,37
 371 763 371 763 350 655 c 1,38,-1
 735 666 l 1,31,-1
EndSplineSet
Substitution2: "'case' Case-Sensitive Forms lookup 28 subtable" Eacute
Substitution2: "'aalt' Access All Alternates lookup 0 subtable" Eacute
EndChar

StartChar: ecircumflex
Encoding: 234 234 172
Width: 1070
GlyphClass: 2
Flags: W
AnchorPoint: "Anchor-1" 268 0 basechar 0
AnchorPoint: "Anchor-0" 566 1054 basechar 0
LayerCount: 2
Fore
SplineSet
293 1195 m 1,0,-1
 216 1312 l 1,1,2
 345 1429 345 1429 536 1632 c 1,3,-1
 603 1632 l 1,4,5
 781 1438 781 1438 920 1312 c 1,6,-1
 846 1195 l 1,7,-1
 816 1195 l 1,8,9
 666 1314 666 1314 568 1405 c 1,10,11
 479 1321 479 1321 323 1195 c 1,12,-1
 293 1195 l 1,0,-1
948 491 m 1,13,-1
 343 488 l 1,14,15
 351 346 351 346 420 274 c 128,-1,16
 489 202 489 202 625 202 c 0,17,18
 771 202 771 202 932 284 c 1,19,-1
 957 269 l 1,20,-1
 916 46 l 1,21,22
 755 -22 755 -22 596 -22 c 0,23,24
 346 -22 346 -22 205.5 123 c 128,-1,25
 65 268 65 268 65 523 c 0,26,27
 65 780 65 780 206.5 928 c 128,-1,28
 348 1076 348 1076 588 1076 c 0,29,30
 785 1076 785 1076 892.5 965.5 c 128,-1,31
 1000 855 1000 855 1000 659 c 0,32,33
 1000 598 1000 598 991 534 c 1,34,-1
 948 491 l 1,13,-1
735 666 m 1,35,-1
 739 694 l 1,36,37
 739 786 739 786 696.5 832 c 128,-1,38
 654 878 654 878 577 878 c 0,39,40
 487 878 487 878 429 820.5 c 128,-1,41
 371 763 371 763 350 655 c 1,42,-1
 735 666 l 1,35,-1
EndSplineSet
Substitution2: "'case' Case-Sensitive Forms lookup 28 subtable" Ecircumflex
Substitution2: "'aalt' Access All Alternates lookup 0 subtable" Ecircumflex
EndChar

StartChar: edieresis
Encoding: 235 235 173
Width: 1070
GlyphClass: 2
Flags: W
AnchorPoint: "Anchor-1" 268 0 basechar 0
AnchorPoint: "Anchor-0" 566 1054 basechar 0
LayerCount: 2
Fore
SplineSet
366 1258 m 0,0,1
 300 1258 300 1258 264 1295 c 128,-1,2
 228 1332 228 1332 228 1401 c 0,3,4
 228 1471 228 1471 268 1512 c 128,-1,5
 308 1553 308 1553 377 1553 c 0,6,7
 444 1553 444 1553 480 1516 c 128,-1,8
 516 1479 516 1479 516 1412 c 0,9,10
 516 1340 516 1340 476 1299 c 128,-1,11
 436 1258 436 1258 366 1258 c 0,0,1
761 1258 m 0,12,13
 695 1258 695 1258 659 1295 c 128,-1,14
 623 1332 623 1332 623 1401 c 0,15,16
 623 1471 623 1471 663 1512 c 128,-1,17
 703 1553 703 1553 773 1553 c 0,18,19
 839 1553 839 1553 875 1516 c 128,-1,20
 911 1479 911 1479 911 1412 c 0,21,22
 911 1340 911 1340 871 1299 c 128,-1,23
 831 1258 831 1258 761 1258 c 0,12,13
948 491 m 1,24,-1
 343 488 l 1,25,26
 351 346 351 346 420 274 c 128,-1,27
 489 202 489 202 625 202 c 0,28,29
 771 202 771 202 932 284 c 1,30,-1
 957 269 l 1,31,-1
 916 46 l 1,32,33
 755 -22 755 -22 596 -22 c 0,34,35
 346 -22 346 -22 205.5 123 c 128,-1,36
 65 268 65 268 65 523 c 0,37,38
 65 780 65 780 206.5 928 c 128,-1,39
 348 1076 348 1076 588 1076 c 0,40,41
 785 1076 785 1076 892.5 965.5 c 128,-1,42
 1000 855 1000 855 1000 659 c 0,43,44
 1000 598 1000 598 991 534 c 1,45,-1
 948 491 l 1,24,-1
735 666 m 1,46,-1
 739 694 l 1,47,48
 739 786 739 786 696.5 832 c 128,-1,49
 654 878 654 878 577 878 c 0,50,51
 487 878 487 878 429 820.5 c 128,-1,52
 371 763 371 763 350 655 c 1,53,-1
 735 666 l 1,46,-1
EndSplineSet
Substitution2: "'case' Case-Sensitive Forms lookup 28 subtable" Edieresis
Substitution2: "'aalt' Access All Alternates lookup 0 subtable" Edieresis
EndChar

StartChar: igrave
Encoding: 236 236 174
Width: 577
GlyphClass: 2
Flags: W
AnchorPoint: "Anchor-1" 0 0 basechar 0
AnchorPoint: "Anchor-0" 293 1056 basechar 0
LayerCount: 2
Fore
SplineSet
128 1644 m 1,0,-1
 157 1646 l 1,1,2
 311 1502 311 1502 568 1298 c 1,3,-1
 495 1184 l 1,4,-1
 466 1182 l 1,5,6
 335 1258 335 1258 22 1451 c 1,7,-1
 18 1480 l 1,8,-1
 128 1644 l 1,0,-1
423 466 m 1,9,-1
 438 0 l 1,10,-1
 137 0 l 1,11,-1
 152 436 l 1,12,-1
 139 1037 l 1,13,-1
 441 1061 l 1,14,-1
 423 466 l 1,9,-1
EndSplineSet
Substitution2: "'case' Case-Sensitive Forms lookup 28 subtable" Igrave
Substitution2: "'aalt' Access All Alternates lookup 0 subtable" Igrave
EndChar

StartChar: iacute
Encoding: 237 237 175
Width: 577
GlyphClass: 2
Flags: W
AnchorPoint: "Anchor-1" 0 0 basechar 0
AnchorPoint: "Anchor-0" 293 1056 basechar 0
LayerCount: 2
Fore
SplineSet
514 1644 m 1,0,-1
 623 1480 l 1,1,-1
 618 1451 l 1,2,3
 287 1247 287 1247 175 1182 c 1,4,-1
 145 1184 l 1,5,-1
 73 1298 l 1,6,7
 323 1496 323 1496 484 1646 c 1,8,-1
 514 1644 l 1,0,-1
423 466 m 1,9,-1
 438 0 l 1,10,-1
 137 0 l 1,11,-1
 152 436 l 1,12,-1
 139 1037 l 1,13,-1
 441 1061 l 1,14,-1
 423 466 l 1,9,-1
EndSplineSet
Substitution2: "'case' Case-Sensitive Forms lookup 28 subtable" Iacute
Substitution2: "'aalt' Access All Alternates lookup 0 subtable" Iacute
EndChar

StartChar: icircumflex
Encoding: 238 238 176
Width: 577
GlyphClass: 2
Flags: W
AnchorPoint: "Anchor-1" 0 0 basechar 0
AnchorPoint: "Anchor-0" 293 1056 basechar 0
LayerCount: 2
Fore
SplineSet
18 1195 m 1,0,-1
 -59 1312 l 1,1,2
 78 1437 78 1437 262 1632 c 1,3,-1
 327 1632 l 1,4,5
 500 1443 500 1443 646 1312 c 1,6,-1
 571 1195 l 1,7,-1
 541 1195 l 1,8,9
 391 1314 391 1314 293 1405 c 1,10,11
 203 1321 203 1321 48 1195 c 1,12,-1
 18 1195 l 1,0,-1
423 466 m 1,13,-1
 438 0 l 1,14,-1
 137 0 l 1,15,-1
 152 436 l 1,16,-1
 139 1037 l 1,17,-1
 441 1061 l 1,18,-1
 423 466 l 1,13,-1
EndSplineSet
Substitution2: "'case' Case-Sensitive Forms lookup 28 subtable" Icircumflex
Substitution2: "'aalt' Access All Alternates lookup 0 subtable" Icircumflex
EndChar

StartChar: idieresis
Encoding: 239 239 177
Width: 577
GlyphClass: 2
Flags: W
AnchorPoint: "Anchor-1" 0 0 basechar 0
AnchorPoint: "Anchor-0" 293 1056 basechar 0
LayerCount: 2
Fore
SplineSet
128 1553 m 0,0,1
 194 1553 194 1553 230 1516 c 128,-1,2
 266 1479 266 1479 266 1412 c 0,3,4
 266 1340 266 1340 225.5 1299 c 128,-1,5
 185 1258 185 1258 115 1258 c 0,6,7
 49 1258 49 1258 13.5 1295 c 128,-1,8
 -22 1332 -22 1332 -22 1401 c 0,9,10
 -22 1471 -22 1471 18 1512 c 128,-1,11
 58 1553 58 1553 128 1553 c 0,0,1
475 1553 m 0,12,13
 541 1553 541 1553 577.5 1516 c 128,-1,14
 614 1479 614 1479 614 1412 c 0,15,16
 614 1340 614 1340 574 1299 c 128,-1,17
 534 1258 534 1258 464 1258 c 0,18,19
 397 1258 397 1258 361 1295 c 128,-1,20
 325 1332 325 1332 325 1401 c 0,21,22
 325 1471 325 1471 365 1512 c 128,-1,23
 405 1553 405 1553 475 1553 c 0,12,13
423 466 m 1,24,-1
 438 0 l 1,25,-1
 137 0 l 1,26,-1
 152 436 l 1,27,-1
 139 1037 l 1,28,-1
 441 1061 l 1,29,-1
 423 466 l 1,24,-1
EndSplineSet
Ligature2: "'liga' Standard Ligatures lookup 30 subtable" dieresis i
Substitution2: "'case' Case-Sensitive Forms lookup 28 subtable" Idieresis
Substitution2: "'aalt' Access All Alternates lookup 0 subtable" Idieresis
EndChar

StartChar: eth
Encoding: 240 240 178
Width: 1128
GlyphClass: 2
Flags: W
LayerCount: 2
Fore
SplineSet
914 1469 m 1,0,-1
 707 1351 l 1,1,2
 878 1190 878 1190 964 990.5 c 128,-1,3
 1050 791 1050 791 1050 564 c 0,4,5
 1050 282 1050 282 920.5 130 c 128,-1,6
 791 -22 791 -22 551 -22 c 0,7,8
 325 -22 325 -22 200 115 c 128,-1,9
 75 252 75 252 75 509 c 256,10,11
 75 766 75 766 199 904.5 c 128,-1,12
 323 1043 323 1043 557 1043 c 0,13,14
 616 1043 616 1043 659 1035 c 1,15,16
 594 1140 594 1140 486 1223 c 1,17,-1
 223 1073 l 1,18,-1
 198 1082 l 1,19,-1
 137 1202 l 1,20,-1
 343 1321 l 1,21,22
 246 1378 246 1378 118 1434 c 1,23,-1
 118 1471 l 1,24,-1
 306 1612 l 1,25,-1
 325 1612 l 1,26,27
 478 1534 478 1534 579 1457 c 1,28,-1
 827 1598 l 1,29,-1
 852 1592 l 1,30,-1
 914 1469 l 1,0,-1
568 173 m 0,31,32
 681 173 681 173 730 256.5 c 128,-1,33
 779 340 779 340 779 534 c 0,34,35
 779 665 779 665 759 770 c 1,36,37
 681 839 681 839 573 839 c 0,38,39
 456 839 456 839 400.5 761 c 128,-1,40
 345 683 345 683 345 509 c 0,41,42
 345 333 345 333 400.5 253 c 128,-1,43
 456 173 456 173 568 173 c 0,31,32
EndSplineSet
Substitution2: "'case' Case-Sensitive Forms lookup 28 subtable" Eth
Substitution2: "'aalt' Access All Alternates lookup 0 subtable" Eth
EndChar

StartChar: ntilde
Encoding: 241 241 179
Width: 1197
GlyphClass: 2
Flags: W
AnchorPoint: "Anchor-1" 609 0 basechar 0
AnchorPoint: "Anchor-0" 636 1056 basechar 0
LayerCount: 2
Fore
SplineSet
327 1230 m 1,0,-1
 236 1319 l 1,1,-1
 236 1343 l 1,2,-1
 397 1546 l 1,3,-1
 425 1557 l 1,4,5
 479 1551 479 1551 613 1514 c 128,-1,6
 747 1477 747 1477 775 1477 c 0,7,8
 785 1477 785 1477 794.5 1480 c 128,-1,9
 804 1483 804 1483 815 1490 c 128,-1,10
 826 1497 826 1497 834 1503.5 c 128,-1,11
 842 1510 842 1510 854.5 1523 c 128,-1,12
 867 1536 867 1536 874 1544 c 128,-1,13
 881 1552 881 1552 896 1569 c 128,-1,14
 911 1586 911 1586 918 1594 c 1,15,-1
 946 1594 l 1,16,-1
 1035 1505 l 1,17,-1
 1035 1480 l 1,18,-1
 875 1278 l 1,19,-1
 846 1267 l 1,20,21
 795 1273 795 1273 660 1309 c 128,-1,22
 525 1345 525 1345 495 1345 c 0,23,24
 482 1345 482 1345 469 1340 c 128,-1,25
 456 1335 456 1335 440 1320.5 c 128,-1,26
 424 1306 424 1306 415 1297 c 128,-1,27
 406 1288 406 1288 384.5 1263.5 c 128,-1,28
 363 1239 363 1239 354 1230 c 1,29,-1
 327 1230 l 1,0,-1
768 0 m 1,30,-1
 787 659 l 2,31,32
 789 740 789 740 752 783.5 c 128,-1,33
 715 827 715 827 644 827 c 0,34,35
 542 827 542 827 425 729 c 1,36,-1
 423 466 l 1,37,-1
 438 0 l 1,38,-1
 137 0 l 1,39,-1
 152 436 l 1,40,-1
 139 1037 l 1,41,-1
 427 1061 l 1,42,-1
 425 907 l 1,43,-1
 443 907 l 1,44,45
 567 1021 567 1021 716 1071 c 1,46,47
 889 1071 889 1071 979.5 992 c 128,-1,48
 1070 913 1070 913 1067 766 c 2,49,-1
 1059 464 l 1,50,-1
 1073 0 l 1,51,-1
 768 0 l 1,30,-1
EndSplineSet
Substitution2: "'case' Case-Sensitive Forms lookup 28 subtable" Ntilde
Substitution2: "'aalt' Access All Alternates lookup 0 subtable" Ntilde
EndChar

StartChar: ograve
Encoding: 242 242 180
Width: 1122
GlyphClass: 2
Flags: W
AnchorPoint: "Anchor-1" 0 0 basechar 0
AnchorPoint: "Anchor-0" 563 1056 basechar 0
LayerCount: 2
Fore
SplineSet
397 1644 m 1,0,-1
 427 1646 l 1,1,2
 582 1502 582 1502 839 1298 c 1,3,-1
 766 1184 l 1,4,-1
 737 1182 l 1,5,6
 606 1258 606 1258 293 1451 c 1,7,-1
 289 1480 l 1,8,-1
 397 1644 l 1,0,-1
575 1078 m 0,9,10
 807 1078 807 1078 929.5 942 c 128,-1,11
 1052 806 1052 806 1052 548 c 0,12,13
 1052 272 1052 272 921 125 c 128,-1,14
 790 -22 790 -22 543 -22 c 0,15,16
 311 -22 311 -22 188 114.5 c 128,-1,17
 65 251 65 251 65 507 c 0,18,19
 65 784 65 784 196.5 931 c 128,-1,20
 328 1078 328 1078 575 1078 c 0,9,10
557 872 m 0,21,22
 449 872 449 872 399.5 799.5 c 128,-1,23
 350 727 350 727 350 566 c 0,24,25
 350 357 350 357 401 268.5 c 128,-1,26
 452 180 452 180 566 180 c 0,27,28
 674 180 674 180 722 251 c 128,-1,29
 770 322 770 322 770 486 c 0,30,31
 770 693 770 693 720 782.5 c 128,-1,32
 670 872 670 872 557 872 c 0,21,22
EndSplineSet
Substitution2: "'case' Case-Sensitive Forms lookup 28 subtable" Ograve
Substitution2: "'aalt' Access All Alternates lookup 0 subtable" Ograve
EndChar

StartChar: oacute
Encoding: 243 243 181
Width: 1122
GlyphClass: 2
Flags: W
AnchorPoint: "Anchor-1" 0 0 basechar 0
AnchorPoint: "Anchor-0" 563 1056 basechar 0
LayerCount: 2
Fore
SplineSet
785 1644 m 1,0,-1
 894 1480 l 1,1,-1
 889 1451 l 1,2,3
 576 1258 576 1258 445 1182 c 1,4,-1
 416 1184 l 1,5,-1
 343 1298 l 1,6,7
 600 1502 600 1502 755 1646 c 1,8,-1
 785 1644 l 1,0,-1
575 1078 m 0,9,10
 807 1078 807 1078 929.5 942 c 128,-1,11
 1052 806 1052 806 1052 548 c 0,12,13
 1052 272 1052 272 921 125 c 128,-1,14
 790 -22 790 -22 543 -22 c 0,15,16
 311 -22 311 -22 188 114.5 c 128,-1,17
 65 251 65 251 65 507 c 0,18,19
 65 784 65 784 196.5 931 c 128,-1,20
 328 1078 328 1078 575 1078 c 0,9,10
557 872 m 0,21,22
 449 872 449 872 399.5 799.5 c 128,-1,23
 350 727 350 727 350 566 c 0,24,25
 350 357 350 357 401 268.5 c 128,-1,26
 452 180 452 180 566 180 c 0,27,28
 674 180 674 180 722 251 c 128,-1,29
 770 322 770 322 770 486 c 0,30,31
 770 693 770 693 720 782.5 c 128,-1,32
 670 872 670 872 557 872 c 0,21,22
EndSplineSet
Substitution2: "'case' Case-Sensitive Forms lookup 28 subtable" Oacute
Substitution2: "'aalt' Access All Alternates lookup 0 subtable" Oacute
EndChar

StartChar: ocircumflex
Encoding: 244 244 182
Width: 1122
GlyphClass: 2
Flags: W
AnchorPoint: "Anchor-1" 0 0 basechar 0
AnchorPoint: "Anchor-0" 563 1056 basechar 0
LayerCount: 2
Fore
SplineSet
291 1195 m 1,0,-1
 214 1312 l 1,1,2
 343 1429 343 1429 534 1632 c 1,3,-1
 601 1632 l 1,4,5
 778 1438 778 1438 918 1312 c 1,6,-1
 844 1195 l 1,7,-1
 814 1195 l 1,8,9
 664 1314 664 1314 566 1405 c 1,10,11
 476 1321 476 1321 321 1195 c 1,12,-1
 291 1195 l 1,0,-1
575 1078 m 0,13,14
 807 1078 807 1078 929.5 942 c 128,-1,15
 1052 806 1052 806 1052 548 c 0,16,17
 1052 272 1052 272 921 125 c 128,-1,18
 790 -22 790 -22 543 -22 c 0,19,20
 311 -22 311 -22 188 114.5 c 128,-1,21
 65 251 65 251 65 507 c 0,22,23
 65 784 65 784 196.5 931 c 128,-1,24
 328 1078 328 1078 575 1078 c 0,13,14
557 872 m 0,25,26
 449 872 449 872 399.5 799.5 c 128,-1,27
 350 727 350 727 350 566 c 0,28,29
 350 357 350 357 401 268.5 c 128,-1,30
 452 180 452 180 566 180 c 0,31,32
 674 180 674 180 722 251 c 128,-1,33
 770 322 770 322 770 486 c 0,34,35
 770 693 770 693 720 782.5 c 128,-1,36
 670 872 670 872 557 872 c 0,25,26
EndSplineSet
Substitution2: "'case' Case-Sensitive Forms lookup 28 subtable" Ocircumflex
Substitution2: "'aalt' Access All Alternates lookup 0 subtable" Ocircumflex
EndChar

StartChar: otilde
Encoding: 245 245 183
Width: 1122
GlyphClass: 2
Flags: W
AnchorPoint: "Anchor-1" 0 0 basechar 0
AnchorPoint: "Anchor-0" 563 1056 basechar 0
LayerCount: 2
Fore
SplineSet
961 1505 m 1,0,-1
 961 1480 l 1,1,-1
 803 1278 l 1,2,-1
 773 1267 l 1,3,4
 721 1273 721 1273 587 1309 c 128,-1,5
 453 1345 453 1345 423 1345 c 0,6,7
 410 1345 410 1345 397 1340 c 128,-1,8
 384 1335 384 1335 368 1320.5 c 128,-1,9
 352 1306 352 1306 343 1297 c 128,-1,10
 334 1288 334 1288 312.5 1263.5 c 128,-1,11
 291 1239 291 1239 282 1230 c 1,12,-1
 254 1230 l 1,13,-1
 163 1319 l 1,14,-1
 163 1343 l 1,15,-1
 325 1546 l 1,16,-1
 352 1557 l 1,17,18
 405 1551 405 1551 539.5 1514 c 128,-1,19
 674 1477 674 1477 703 1477 c 0,20,21
 713 1477 713 1477 722.5 1480 c 128,-1,22
 732 1483 732 1483 742.5 1490 c 128,-1,23
 753 1497 753 1497 761.5 1503.5 c 128,-1,24
 770 1510 770 1510 782.5 1523 c 128,-1,25
 795 1536 795 1536 802 1544 c 128,-1,26
 809 1552 809 1552 824 1569 c 128,-1,27
 839 1586 839 1586 846 1594 c 1,28,-1
 872 1594 l 1,29,-1
 961 1505 l 1,0,-1
575 1078 m 0,30,31
 807 1078 807 1078 929.5 942 c 128,-1,32
 1052 806 1052 806 1052 548 c 0,33,34
 1052 272 1052 272 921 125 c 128,-1,35
 790 -22 790 -22 543 -22 c 0,36,37
 311 -22 311 -22 188 114.5 c 128,-1,38
 65 251 65 251 65 507 c 0,39,40
 65 784 65 784 196.5 931 c 128,-1,41
 328 1078 328 1078 575 1078 c 0,30,31
557 872 m 0,42,43
 449 872 449 872 399.5 799.5 c 128,-1,44
 350 727 350 727 350 566 c 0,45,46
 350 357 350 357 401 268.5 c 128,-1,47
 452 180 452 180 566 180 c 0,48,49
 674 180 674 180 722 251 c 128,-1,50
 770 322 770 322 770 486 c 0,51,52
 770 693 770 693 720 782.5 c 128,-1,53
 670 872 670 872 557 872 c 0,42,43
EndSplineSet
Substitution2: "'case' Case-Sensitive Forms lookup 28 subtable" Otilde
Substitution2: "'aalt' Access All Alternates lookup 0 subtable" Otilde
EndChar

StartChar: odieresis
Encoding: 246 246 184
Width: 1122
GlyphClass: 2
Flags: W
AnchorPoint: "Anchor-1" 0 0 basechar 0
AnchorPoint: "Anchor-0" 563 1056 basechar 0
LayerCount: 2
Fore
SplineSet
375 1553 m 0,0,1
 442 1553 442 1553 478 1516 c 128,-1,2
 514 1479 514 1479 514 1412 c 0,3,4
 514 1340 514 1340 474 1299 c 128,-1,5
 434 1258 434 1258 364 1258 c 0,6,7
 298 1258 298 1258 261.5 1295 c 128,-1,8
 225 1332 225 1332 225 1401 c 0,9,10
 225 1471 225 1471 265 1512 c 128,-1,11
 305 1553 305 1553 375 1553 c 0,0,1
770 1553 m 0,12,13
 837 1553 837 1553 873 1516 c 128,-1,14
 909 1479 909 1479 909 1412 c 0,15,16
 909 1340 909 1340 869 1299 c 128,-1,17
 829 1258 829 1258 759 1258 c 0,18,19
 693 1258 693 1258 656.5 1295 c 128,-1,20
 620 1332 620 1332 620 1401 c 0,21,22
 620 1471 620 1471 660.5 1512 c 128,-1,23
 701 1553 701 1553 770 1553 c 0,12,13
575 1078 m 0,24,25
 807 1078 807 1078 929.5 942 c 128,-1,26
 1052 806 1052 806 1052 548 c 0,27,28
 1052 272 1052 272 921 125 c 128,-1,29
 790 -22 790 -22 543 -22 c 0,30,31
 311 -22 311 -22 188 114.5 c 128,-1,32
 65 251 65 251 65 507 c 0,33,34
 65 784 65 784 196.5 931 c 128,-1,35
 328 1078 328 1078 575 1078 c 0,24,25
557 872 m 0,36,37
 449 872 449 872 399.5 799.5 c 128,-1,38
 350 727 350 727 350 566 c 0,39,40
 350 357 350 357 401 268.5 c 128,-1,41
 452 180 452 180 566 180 c 0,42,43
 674 180 674 180 722 251 c 128,-1,44
 770 322 770 322 770 486 c 0,45,46
 770 693 770 693 720 782.5 c 128,-1,47
 670 872 670 872 557 872 c 0,36,37
EndSplineSet
Ligature2: "'liga' Standard Ligatures lookup 30 subtable" dieresis o
Substitution2: "'case' Case-Sensitive Forms lookup 28 subtable" Odieresis
Substitution2: "'aalt' Access All Alternates lookup 0 subtable" Odieresis
EndChar

StartChar: divide
Encoding: 247 247 185
Width: 1091
GlyphClass: 2
Flags: W
LayerCount: 2
Fore
SplineSet
584 1123 m 0,0,1
 649 1123 649 1123 683.5 1087.5 c 128,-1,2
 718 1052 718 1052 718 987 c 0,3,4
 718 918 718 918 679.5 878.5 c 128,-1,5
 641 839 641 839 575 839 c 256,6,7
 509 839 509 839 473.5 874.5 c 128,-1,8
 438 910 438 910 438 976 c 0,9,10
 438 1044 438 1044 477.5 1083.5 c 128,-1,11
 517 1123 517 1123 584 1123 c 0,0,1
1052 673 m 1,12,-1
 1037 488 l 1,13,-1
 87 488 l 1,14,-1
 65 509 l 1,15,-1
 82 694 l 1,16,-1
 1030 694 l 1,17,-1
 1052 673 l 1,12,-1
584 354 m 0,18,19
 648 354 648 354 683 318 c 128,-1,20
 718 282 718 282 718 219 c 0,21,22
 718 150 718 150 679.5 109 c 128,-1,23
 641 68 641 68 575 68 c 128,-1,24
 509 68 509 68 473.5 104 c 128,-1,25
 438 140 438 140 438 206.5 c 128,-1,26
 438 273 438 273 477.5 313.5 c 128,-1,27
 517 354 517 354 584 354 c 0,18,19
EndSplineSet
EndChar

StartChar: oslash
Encoding: 248 248 186
Width: 1122
GlyphClass: 2
Flags: W
AnchorPoint: "Anchor-1" 0 0 basechar 0
AnchorPoint: "Anchor-0" 561 1056 basechar 0
LayerCount: 2
Fore
SplineSet
1046 1189 m 1,0,-1
 916 957 l 1,1,2
 1052 817 1052 817 1052 548 c 0,3,4
 1052 272 1052 272 921 125 c 128,-1,5
 790 -22 790 -22 543 -22 c 0,6,7
 464 -22 464 -22 391 -4 c 1,8,-1
 234 -284 l 1,9,-1
 61 -200 l 1,10,-1
 54 -175 l 1,11,-1
 204 98 l 1,12,13
 65 233 65 233 65 507 c 0,14,15
 65 784 65 784 196.5 931 c 128,-1,16
 328 1078 328 1078 575 1078 c 0,17,18
 650 1078 650 1078 731 1059 c 1,19,-1
 866 1298 l 1,20,-1
 1030 1217 l 1,21,-1
 1046 1189 l 1,0,-1
566 180 m 0,22,23
 674 180 674 180 722 251 c 128,-1,24
 770 322 770 322 770 486 c 0,25,26
 770 693 770 693 720 782.5 c 128,-1,27
 670 872 670 872 557 872 c 0,28,29
 449 872 449 872 399.5 799.5 c 128,-1,30
 350 727 350 727 350 566 c 0,31,32
 350 357 350 357 401 268.5 c 128,-1,33
 452 180 452 180 566 180 c 0,22,23
EndSplineSet
Substitution2: "'case' Case-Sensitive Forms lookup 28 subtable" Oslash
Substitution2: "'aalt' Access All Alternates lookup 0 subtable" Oslash
EndChar

StartChar: ugrave
Encoding: 249 249 187
Width: 1186
GlyphClass: 2
Flags: W
AnchorPoint: "Anchor-1" 0 0 basechar 0
AnchorPoint: "Anchor-0" 588 1056 basechar 0
LayerCount: 2
Fore
SplineSet
423 1644 m 1,0,-1
 453 1646 l 1,1,2
 614 1496 614 1496 864 1298 c 1,3,-1
 791 1184 l 1,4,-1
 761 1182 l 1,5,6
 650 1247 650 1247 319 1451 c 1,7,-1
 314 1480 l 1,8,-1
 423 1644 l 1,0,-1
1037 1061 m 1,9,-1
 1016 275 l 2,10,11
 1016 238 1016 238 1028.5 222 c 128,-1,12
 1041 206 1041 206 1069 206 c 0,13,14
 1086 206 1086 206 1128 216 c 1,15,-1
 1150 198 l 1,16,-1
 1123 39 l 1,17,18
 1051 -8 1051 -8 957 -18 c 1,19,20
 888 -11 888 -11 842 32.5 c 128,-1,21
 796 76 796 76 775 152 c 1,22,-1
 755 152 l 1,23,24
 624 28 624 28 486 -13 c 1,25,26
 315 -13 315 -13 224.5 65.5 c 128,-1,27
 134 144 134 144 134 291 c 1,28,-1
 141 559 l 1,29,-1
 130 1037 l 1,30,-1
 423 1061 l 1,31,-1
 416 391 l 2,32,33
 415 312 415 312 449 271 c 128,-1,34
 483 230 483 230 551 230 c 0,35,36
 649 230 649 230 748 319 c 1,37,-1
 748 1037 l 1,38,-1
 1037 1061 l 1,9,-1
EndSplineSet
Substitution2: "'case' Case-Sensitive Forms lookup 28 subtable" Ugrave
Substitution2: "'aalt' Access All Alternates lookup 0 subtable" Ugrave
EndChar

StartChar: uacute
Encoding: 250 250 188
Width: 1186
GlyphClass: 2
Flags: W
AnchorPoint: "Anchor-1" 0 0 basechar 0
AnchorPoint: "Anchor-0" 588 1056 basechar 0
LayerCount: 2
Fore
SplineSet
809 1644 m 1,0,-1
 918 1480 l 1,1,-1
 914 1451 l 1,2,3
 582 1247 582 1247 471 1182 c 1,4,-1
 441 1184 l 1,5,-1
 369 1298 l 1,6,7
 619 1496 619 1496 779 1646 c 1,8,-1
 809 1644 l 1,0,-1
1037 1061 m 1,9,-1
 1016 275 l 2,10,11
 1016 238 1016 238 1028.5 222 c 128,-1,12
 1041 206 1041 206 1069 206 c 0,13,14
 1086 206 1086 206 1128 216 c 1,15,-1
 1150 198 l 1,16,-1
 1123 39 l 1,17,18
 1051 -8 1051 -8 957 -18 c 1,19,20
 888 -11 888 -11 842 32.5 c 128,-1,21
 796 76 796 76 775 152 c 1,22,-1
 755 152 l 1,23,24
 624 28 624 28 486 -13 c 1,25,26
 315 -13 315 -13 224.5 65.5 c 128,-1,27
 134 144 134 144 134 291 c 1,28,-1
 141 559 l 1,29,-1
 130 1037 l 1,30,-1
 423 1061 l 1,31,-1
 416 391 l 2,32,33
 415 312 415 312 449 271 c 128,-1,34
 483 230 483 230 551 230 c 0,35,36
 649 230 649 230 748 319 c 1,37,-1
 748 1037 l 1,38,-1
 1037 1061 l 1,9,-1
EndSplineSet
Substitution2: "'case' Case-Sensitive Forms lookup 28 subtable" Uacute
Substitution2: "'aalt' Access All Alternates lookup 0 subtable" Uacute
EndChar

StartChar: ucircumflex
Encoding: 251 251 189
Width: 1186
GlyphClass: 2
Flags: W
AnchorPoint: "Anchor-1" 0 0 basechar 0
AnchorPoint: "Anchor-0" 588 1056 basechar 0
LayerCount: 2
Fore
SplineSet
314 1195 m 1,0,-1
 236 1312 l 1,1,2
 373 1437 373 1437 557 1632 c 1,3,-1
 623 1632 l 1,4,5
 795 1443 795 1443 941 1312 c 1,6,-1
 866 1195 l 1,7,-1
 837 1195 l 1,8,9
 680 1320 680 1320 588 1405 c 1,10,11
 499 1321 499 1321 343 1195 c 1,12,-1
 314 1195 l 1,0,-1
1037 1061 m 1,13,-1
 1016 275 l 2,14,15
 1016 238 1016 238 1028.5 222 c 128,-1,16
 1041 206 1041 206 1069 206 c 0,17,18
 1086 206 1086 206 1128 216 c 1,19,-1
 1150 198 l 1,20,-1
 1123 39 l 1,21,22
 1051 -8 1051 -8 957 -18 c 1,23,24
 888 -11 888 -11 842 32.5 c 128,-1,25
 796 76 796 76 775 152 c 1,26,-1
 755 152 l 1,27,28
 624 28 624 28 486 -13 c 1,29,30
 315 -13 315 -13 224.5 65.5 c 128,-1,31
 134 144 134 144 134 291 c 1,32,-1
 141 559 l 1,33,-1
 130 1037 l 1,34,-1
 423 1061 l 1,35,-1
 416 391 l 2,36,37
 415 312 415 312 449 271 c 128,-1,38
 483 230 483 230 551 230 c 0,39,40
 649 230 649 230 748 319 c 1,41,-1
 748 1037 l 1,42,-1
 1037 1061 l 1,13,-1
EndSplineSet
Substitution2: "'case' Case-Sensitive Forms lookup 28 subtable" Ucircumflex
Substitution2: "'aalt' Access All Alternates lookup 0 subtable" Ucircumflex
EndChar

StartChar: udieresis
Encoding: 252 252 190
Width: 1186
GlyphClass: 2
Flags: W
AnchorPoint: "Anchor-1" 0 0 basechar 0
AnchorPoint: "Anchor-0" 588 1056 basechar 0
LayerCount: 2
Fore
SplineSet
400 1553 m 0,0,1
 466 1553 466 1553 502 1516 c 128,-1,2
 538 1479 538 1479 538 1412 c 0,3,4
 538 1340 538 1340 498 1299 c 128,-1,5
 458 1258 458 1258 388 1258 c 0,6,7
 322 1258 322 1258 286 1295 c 128,-1,8
 250 1332 250 1332 250 1401 c 0,9,10
 250 1471 250 1471 290 1512 c 128,-1,11
 330 1553 330 1553 400 1553 c 0,0,1
796 1553 m 0,12,13
 862 1553 862 1553 898.5 1516 c 128,-1,14
 935 1479 935 1479 935 1412 c 0,15,16
 935 1340 935 1340 895 1299 c 128,-1,17
 855 1258 855 1258 785 1258 c 0,18,19
 718 1258 718 1258 682 1295 c 128,-1,20
 646 1332 646 1332 646 1401 c 0,21,22
 646 1471 646 1471 686 1512 c 128,-1,23
 726 1553 726 1553 796 1553 c 0,12,13
1037 1061 m 1,24,-1
 1016 275 l 2,25,26
 1016 238 1016 238 1028.5 222 c 128,-1,27
 1041 206 1041 206 1069 206 c 0,28,29
 1086 206 1086 206 1128 216 c 1,30,-1
 1150 198 l 1,31,-1
 1123 39 l 1,32,33
 1051 -8 1051 -8 957 -18 c 1,34,35
 888 -11 888 -11 842 32.5 c 128,-1,36
 796 76 796 76 775 152 c 1,37,-1
 755 152 l 1,38,39
 624 28 624 28 486 -13 c 1,40,41
 315 -13 315 -13 224.5 65.5 c 128,-1,42
 134 144 134 144 134 291 c 1,43,-1
 141 559 l 1,44,-1
 130 1037 l 1,45,-1
 423 1061 l 1,46,-1
 416 391 l 2,47,48
 415 312 415 312 449 271 c 128,-1,49
 483 230 483 230 551 230 c 0,50,51
 649 230 649 230 748 319 c 1,52,-1
 748 1037 l 1,53,-1
 1037 1061 l 1,24,-1
EndSplineSet
Substitution2: "'case' Case-Sensitive Forms lookup 28 subtable" Udieresis
Substitution2: "'aalt' Access All Alternates lookup 0 subtable" Udieresis
EndChar

StartChar: yacute
Encoding: 253 253 191
Width: 1015
GlyphClass: 2
Flags: W
AnchorPoint: "Anchor-1" 0 0 basechar 0
AnchorPoint: "Anchor-0" 518 1056 basechar 0
LayerCount: 2
Fore
SplineSet
739 1644 m 1,0,-1
 848 1480 l 1,1,-1
 844 1451 l 1,2,3
 530 1258 530 1258 400 1182 c 1,4,-1
 371 1184 l 1,5,-1
 297 1298 l 1,6,7
 555 1502 555 1502 709 1646 c 1,8,-1
 739 1644 l 1,0,-1
325 896 m 1,9,-1
 512 306 l 1,10,-1
 532 306 l 1,11,-1
 716 868 l 1,12,-1
 753 1057 l 1,13,-1
 1016 1057 l 1,14,-1
 673 73 l 2,15,16
 598 -142 598 -142 471.5 -256.5 c 128,-1,17
 345 -371 345 -371 113 -436 c 1,18,-1
 91 -434 l 1,19,20
 12 -361 12 -361 -46 -252 c 1,21,-1
 -34 -221 l 1,22,23
 106 -197 106 -197 206.5 -144.5 c 128,-1,24
 307 -92 307 -92 386 0 c 1,25,-1
 0 1050 l 1,26,-1
 291 1063 l 1,27,-1
 325 896 l 1,9,-1
EndSplineSet
Ligature2: "'liga' Standard Ligatures lookup 30 subtable" acute y
Substitution2: "'case' Case-Sensitive Forms lookup 28 subtable" Yacute
Substitution2: "'aalt' Access All Alternates lookup 0 subtable" Yacute
EndChar

StartChar: thorn
Encoding: 254 254 192
Width: 1186
GlyphClass: 2
Flags: W
LayerCount: 2
Fore
SplineSet
707 1071 m 1,0,1
 906 1071 906 1071 1012.5 936 c 128,-1,2
 1119 801 1119 801 1119 559 c 0,3,4
 1119 280 1119 280 980 129 c 128,-1,5
 841 -22 841 -22 596 -22 c 0,6,7
 517 -22 517 -22 438 -2 c 1,8,-1
 445 -421 l 1,9,-1
 148 -421 l 1,10,-1
 161 436 l 1,11,-1
 148 1573 l 1,12,-1
 447 1596 l 1,13,-1
 438 907 l 1,14,-1
 453 907 l 1,15,16
 517 967 517 967 576 1005.5 c 128,-1,17
 635 1044 635 1044 707 1071 c 1,0,1
594 175 m 0,18,19
 710 175 710 175 774.5 259 c 128,-1,20
 839 343 839 343 837 521 c 0,21,22
 835 670 835 670 783.5 748.5 c 128,-1,23
 732 827 732 827 634 827 c 0,24,25
 542 827 542 827 436 729 c 1,26,-1
 432 471 l 1,27,-1
 436 216 l 1,28,29
 520 175 520 175 594 175 c 0,18,19
EndSplineSet
Substitution2: "'case' Case-Sensitive Forms lookup 28 subtable" Thorn
Substitution2: "'aalt' Access All Alternates lookup 0 subtable" Thorn
EndChar

StartChar: ydieresis
Encoding: 255 255 193
Width: 1015
GlyphClass: 2
Flags: W
AnchorPoint: "Anchor-1" 0 0 basechar 0
AnchorPoint: "Anchor-0" 518 1056 basechar 0
LayerCount: 2
Fore
SplineSet
330 1553 m 0,0,1
 396 1553 396 1553 432 1516 c 128,-1,2
 468 1479 468 1479 468 1412 c 0,3,4
 468 1340 468 1340 428 1299 c 128,-1,5
 388 1258 388 1258 319 1258 c 0,6,7
 252 1258 252 1258 216 1295 c 128,-1,8
 180 1332 180 1332 180 1401 c 0,9,10
 180 1471 180 1471 220 1512 c 128,-1,11
 260 1553 260 1553 330 1553 c 0,0,1
725 1553 m 0,12,13
 791 1553 791 1553 827.5 1516 c 128,-1,14
 864 1479 864 1479 864 1412 c 0,15,16
 864 1340 864 1340 824 1299 c 128,-1,17
 784 1258 784 1258 714 1258 c 0,18,19
 647 1258 647 1258 611 1295 c 128,-1,20
 575 1332 575 1332 575 1401 c 0,21,22
 575 1471 575 1471 615 1512 c 128,-1,23
 655 1553 655 1553 725 1553 c 0,12,13
325 896 m 1,24,-1
 512 306 l 1,25,-1
 532 306 l 1,26,-1
 716 868 l 1,27,-1
 753 1057 l 1,28,-1
 1016 1057 l 1,29,-1
 673 73 l 2,30,31
 598 -142 598 -142 471.5 -256.5 c 128,-1,32
 345 -371 345 -371 113 -436 c 1,33,-1
 91 -434 l 1,34,35
 12 -361 12 -361 -46 -252 c 1,36,-1
 -34 -221 l 1,37,38
 106 -197 106 -197 206.5 -144.5 c 128,-1,39
 307 -92 307 -92 386 0 c 1,40,-1
 0 1050 l 1,41,-1
 291 1063 l 1,42,-1
 325 896 l 1,24,-1
EndSplineSet
Substitution2: "'case' Case-Sensitive Forms lookup 28 subtable" Ydieresis
Substitution2: "'aalt' Access All Alternates lookup 0 subtable" Ydieresis
EndChar

StartChar: Amacron
Encoding: 256 256 194
Width: 1363
GlyphClass: 2
Flags: W
AnchorPoint: "Anchor-1" 0 0 basechar 0
AnchorPoint: "Anchor-0" 683 1464 basechar 0
LayerCount: 2
Fore
SplineSet
371 1718 m 1,0,-1
 350 1739 l 1,1,-1
 366 1907 l 1,2,-1
 1002 1907 l 1,3,-1
 1021 1887 l 1,4,-1
 1007 1718 l 1,5,-1
 371 1718 l 1,0,-1
1328 0 m 1,6,-1
 1013 0 l 1,7,-1
 978 191 l 1,8,-1
 939 327 l 1,9,-1
 653 334 l 1,10,-1
 400 327 l 1,11,-1
 362 206 l 1,12,-1
 323 0 l 1,13,-1
 18 0 l 1,14,-1
 512 1464 l 1,15,-1
 880 1464 l 1,16,-1
 1328 0 l 1,6,-1
872 566 m 1,17,-1
 700 1175 l 1,18,-1
 679 1175 l 1,19,-1
 480 566 l 1,20,-1
 673 562 l 1,21,-1
 872 566 l 1,17,-1
EndSplineSet
Position2: "'cpsp' Capital Spacing lookup 0 subtable" dx=16 dy=0 dh=33 dv=0
EndChar

StartChar: amacron
Encoding: 257 257 195
Width: 1093
GlyphClass: 2
Flags: W
AnchorPoint: "Anchor-1" 0 0 basechar 0
AnchorPoint: "Anchor-0" 531 1056 basechar 0
LayerCount: 2
Fore
SplineSet
866 1480 m 1,0,-1
 852 1312 l 1,1,-1
 216 1312 l 1,2,-1
 195 1332 l 1,3,-1
 211 1501 l 1,4,-1
 848 1501 l 1,5,-1
 866 1480 l 1,0,-1
555 1078 m 0,6,7
 730 1078 730 1078 829 999 c 128,-1,8
 928 920 928 920 928 779 c 0,9,10
 928 740 928 740 915 525.5 c 128,-1,11
 902 311 902 311 902 275 c 0,12,13
 902 237 902 237 914 221.5 c 128,-1,14
 926 206 926 206 957 206 c 0,15,16
 974 206 974 206 1016 216 c 1,17,-1
 1037 198 l 1,18,-1
 1011 39 l 1,19,20
 935 -9 935 -9 844 -18 c 1,21,22
 774 -11 774 -11 728.5 31.5 c 128,-1,23
 683 74 683 74 668 148 c 1,24,-1
 653 148 l 1,25,26
 544 30 544 30 421 -20 c 1,27,28
 257 -18 257 -18 162.5 66 c 128,-1,29
 68 150 68 150 68 295 c 0,30,31
 68 516 68 516 302 562 c 1,32,-1
 650 627 l 1,33,-1
 650 720 l 2,34,35
 650 868 650 868 505 868 c 0,36,37
 433 868 433 868 355 836.5 c 128,-1,38
 277 805 277 805 180 737 c 1,39,-1
 157 750 l 1,40,-1
 123 950 l 1,41,42
 326 1078 326 1078 555 1078 c 0,6,7
648 475 m 1,43,-1
 410 423 l 2,44,45
 371 414 371 414 353.5 392.5 c 128,-1,46
 336 371 336 371 336 327 c 0,47,48
 336 268 336 268 368 235 c 128,-1,49
 400 202 400 202 457 202 c 0,50,51
 547 202 547 202 644 306 c 1,52,-1
 648 475 l 1,43,-1
EndSplineSet
Substitution2: "'case' Case-Sensitive Forms lookup 28 subtable" Amacron
Substitution2: "'aalt' Access All Alternates lookup 0 subtable" Amacron
EndChar

StartChar: Abreve
Encoding: 258 258 196
Width: 1363
GlyphClass: 2
Flags: W
AnchorPoint: "Anchor-1" 0 0 basechar 0
AnchorPoint: "Anchor-0" 683 1464 basechar 0
LayerCount: 2
Fore
SplineSet
679 1639 m 0,0,1
 557 1639 557 1639 469.5 1701 c 128,-1,2
 382 1763 382 1763 343 1878 c 1,3,-1
 414 1976 l 1,4,-1
 457 1976 l 1,5,6
 487 1915 487 1915 548 1881.5 c 128,-1,7
 609 1848 609 1848 692 1848 c 0,8,9
 769 1848 769 1848 826.5 1881.5 c 128,-1,10
 884 1915 884 1915 914 1976 c 1,11,-1
 957 1976 l 1,12,-1
 1028 1878 l 1,13,14
 985 1762 985 1762 895.5 1700.5 c 128,-1,15
 806 1639 806 1639 679 1639 c 0,0,1
1328 0 m 1,16,-1
 1013 0 l 1,17,-1
 978 191 l 1,18,-1
 939 327 l 1,19,-1
 653 334 l 1,20,-1
 400 327 l 1,21,-1
 362 206 l 1,22,-1
 323 0 l 1,23,-1
 18 0 l 1,24,-1
 512 1464 l 1,25,-1
 880 1464 l 1,26,-1
 1328 0 l 1,16,-1
872 566 m 1,27,-1
 700 1175 l 1,28,-1
 679 1175 l 1,29,-1
 480 566 l 1,30,-1
 673 562 l 1,31,-1
 872 566 l 1,27,-1
EndSplineSet
Position2: "'cpsp' Capital Spacing lookup 0 subtable" dx=16 dy=0 dh=33 dv=0
EndChar

